<ttFont>
    <TTGlyph name=".notdef" xMin="0" yMin="0" xMax="500" yMax="700">
      <contour>
        <pt x="0" y="700" on="1"/>
        <pt x="500" y="700" on="1"/>
        <pt x="500" y="0" on="1"/>
        <pt x="0" y="0" on="1"/>
      </contour>
      <contour>
        <pt x="50" y="650" on="1"/>
        <pt x="50" y="50" on="1"/>
        <pt x="450" y="50" on="1"/>
        <pt x="450" y="650" on="1"/>
      </contour>
      <contour>
        <pt x="229" y="278" on="1"/>
        <pt x="229" y="307" on="0"/>
        <pt x="256" y="345" on="0"/>
        <pt x="283" y="367" on="1"/>
        <pt x="311" y="390" on="0"/>
        <pt x="339" y="431" on="0"/>
        <pt x="339" y="465" on="1"/>
        <pt x="339" y="496" on="0"/>
        <pt x="301" y="552" on="0"/>
        <pt x="250" y="552" on="1"/>
        <pt x="192" y="552" on="0"/>
        <pt x="152" y="485" on="0"/>
        <pt x="152" y="452" on="1"/>
        <pt x="152" y="424" on="1"/>
        <pt x="103" y="424" on="1"/>
        <pt x="102" y="428" on="0"/>
        <pt x="99" y="444" on="0"/>
        <pt x="99" y="455" on="1"/>
        <pt x="99" y="478" on="0"/>
        <pt x="120" y="544" on="0"/>
        <pt x="187" y="602" on="0"/>
        <pt x="250" y="602" on="1"/>
        <pt x="313" y="602" on="0"/>
        <pt x="376" y="546" on="0"/>
        <pt x="393" y="486" on="0"/>
        <pt x="393" y="467" on="1"/>
        <pt x="393" y="422" on="0"/>
        <pt x="356" y="364" on="0"/>
        <pt x="326" y="338" on="1"/>
        <pt x="304" y="320" on="0"/>
        <pt x="282" y="290" on="0"/>
        <pt x="282" y="268" on="1"/>
        <pt x="282" y="215" on="1"/>
        <pt x="229" y="215" on="1"/>
      </contour>
      <contour>
        <pt x="225" y="169" on="1"/>
        <pt x="285" y="169" on="1"/>
        <pt x="285" y="99" on="1"/>
        <pt x="225" y="99" on="1"/>
      </contour>
    </TTGlyph>
    <TTGlyph name=".ttfautohint" xMin="0" yMin="0" xMax="0" yMax="0">
      <contour>
        <pt x="0" y="0" on="1"/>
      </contour>
    </TTGlyph>
    <TTGlyph name="A" xMin="26" yMin="0" xMax="656" yMax="688">
      <contour>
        <pt x="492" y="184" on="1"/>
        <pt x="188" y="184" on="1"/>
        <pt x="120" y="0" on="1"/>
        <pt x="26" y="0" on="1"/>
        <pt x="282" y="688" on="1"/>
        <pt x="400" y="688" on="1"/>
        <pt x="656" y="0" on="1"/>
        <pt x="560" y="0" on="1"/>
      </contour>
      <contour>
        <pt x="337" y="594" on="1"/>
        <pt x="215" y="263" on="1"/>
        <pt x="464" y="263" on="1"/>
        <pt x="342" y="594" on="1"/>
      </contour>
    </TTGlyph>
    <TTGlyph name="A.ss01" xMin="90" yMin="0" xMax="616" yMax="696">
      <contour>
        <pt x="524" y="236" on="1"/>
        <pt x="182" y="236" on="1"/>
        <pt x="182" y="0" on="1"/>
        <pt x="90" y="0" on="1"/>
        <pt x="90" y="386" on="1"/>
        <pt x="90" y="521" on="0"/>
        <pt x="124" y="645" on="0"/>
        <pt x="232" y="696" on="0"/>
        <pt x="352" y="696" on="1"/>
        <pt x="472" y="696" on="0"/>
        <pt x="581" y="645" on="0"/>
        <pt x="616" y="520" on="0"/>
        <pt x="616" y="386" on="1"/>
        <pt x="616" y="0" on="1"/>
        <pt x="524" y="0" on="1"/>
      </contour>
      <contour>
        <pt x="524" y="511" on="0"/>
        <pt x="505" y="586" on="0"/>
        <pt x="435" y="616" on="0"/>
        <pt x="352" y="616" on="1"/>
        <pt x="269" y="616" on="0"/>
        <pt x="201" y="586" on="0"/>
        <pt x="182" y="511" on="0"/>
        <pt x="182" y="420" on="1"/>
        <pt x="182" y="318" on="1"/>
        <pt x="524" y="318" on="1"/>
        <pt x="524" y="420" on="1"/>
      </contour>
    </TTGlyph>
    <TTGlyph name="AE" xMin="-8" yMin="0" xMax="898" yMax="688">
      <contour>
        <pt x="477" y="184" on="1"/>
        <pt x="174" y="184" on="1"/>
        <pt x="85" y="0" on="1"/>
        <pt x="-8" y="0" on="1"/>
        <pt x="324" y="688" on="1"/>
        <pt x="898" y="688" on="1"/>
        <pt x="898" y="608" on="1"/>
        <pt x="462" y="608" on="1"/>
        <pt x="521" y="387" on="1"/>
        <pt x="851" y="387" on="1"/>
        <pt x="851" y="308" on="1"/>
        <pt x="540" y="308" on="1"/>
        <pt x="602" y="79" on="1"/>
        <pt x="898" y="79" on="1"/>
        <pt x="898" y="0" on="1"/>
        <pt x="525" y="0" on="1"/>
      </contour>
      <contour>
        <pt x="369" y="594" on="1"/>
        <pt x="210" y="263" on="1"/>
        <pt x="459" y="263" on="1"/>
        <pt x="374" y="594" on="1"/>
      </contour>
    </TTGlyph>
    <TTGlyph name="AEacute" xMin="-8" yMin="0" xMax="897" yMax="886">
      <component glyphName=".ttfautohint" x="0" y="0" flags="0x0"/>
      <component glyphName="AE" x="0" y="0" flags="0x0"/>
      <component glyphName="acutecomb.case" x="651" y="0" flags="0x0"/>
    </TTGlyph>
    <TTGlyph name="Aacute" xMin="26" yMin="0" xMax="656" yMax="891">
      <component glyphName=".ttfautohint" x="26" y="0" flags="0x0"/>
      <component glyphName="A" x="0" y="0" flags="0x0"/>
      <component glyphName="acute" x="266" y="148" flags="0x4"/>
    </TTGlyph>
    <TTGlyph name="Aacute.ss01" xMin="90" yMin="0" xMax="616" yMax="891">
      <component glyphName=".ttfautohint" x="90" y="0" flags="0x0"/>
      <component glyphName="A.ss01" x="0" y="0" flags="0x0"/>
      <component glyphName="acute" x="290" y="148" flags="0x4"/>
    </TTGlyph>
    <TTGlyph name="Abreve" xMin="26" yMin="0" xMax="656" yMax="886">
      <component glyphName=".ttfautohint" x="26" y="0" flags="0x0"/>
      <component glyphName="A" x="0" y="0" flags="0x0"/>
      <component glyphName="uni0306.case" x="499" y="0" flags="0x0"/>
    </TTGlyph>
    <TTGlyph name="Abreve.ss01" xMin="90" yMin="0" xMax="616" yMax="886">
      <component glyphName=".ttfautohint" x="90" y="0" flags="0x0"/>
      <component glyphName="A.ss01" x="0" y="0" flags="0x0"/>
      <component glyphName="uni0306.case" x="511" y="0" flags="0x0"/>
    </TTGlyph>
    <TTGlyph name="Acircumflex" xMin="26" yMin="0" xMax="656" yMax="892">
      <component glyphName=".ttfautohint" x="26" y="0" flags="0x0"/>
      <component glyphName="A" x="0" y="0" flags="0x0"/>
      <component glyphName="circumflex" x="175" y="149" flags="0x4"/>
    </TTGlyph>
    <TTGlyph name="Acircumflex.ss01" xMin="90" yMin="0" xMax="616" yMax="892">
      <component glyphName=".ttfautohint" x="90" y="0" flags="0x0"/>
      <component glyphName="A.ss01" x="0" y="0" flags="0x0"/>
      <component glyphName="circumflex" x="189" y="149" flags="0x4"/>
    </TTGlyph>
    <TTGlyph name="Adieresis" xMin="26" yMin="0" xMax="656" yMax="858">
      <component glyphName=".ttfautohint" x="26" y="0" flags="0x0"/>
      <component glyphName="A" x="0" y="0" flags="0x0"/>
      <component glyphName="dieresis" x="186" y="128" flags="0x4"/>
    </TTGlyph>
    <TTGlyph name="Adieresis.ss01" xMin="90" yMin="0" xMax="616" yMax="857">
      <component glyphName=".ttfautohint" x="90" y="0" flags="0x0"/>
      <component glyphName="A.ss01" x="0" y="0" flags="0x0"/>
      <component glyphName="dieresis" x="201" y="127" flags="0x4"/>
    </TTGlyph>
    <TTGlyph name="Agrave" xMin="26" yMin="0" xMax="656" yMax="891">
      <component glyphName=".ttfautohint" x="26" y="0" flags="0x0"/>
      <component glyphName="A" x="0" y="0" flags="0x0"/>
      <component glyphName="grave" x="181" y="148" flags="0x4"/>
    </TTGlyph>
    <TTGlyph name="Agrave.ss01" xMin="90" yMin="0" xMax="616" yMax="891">
      <component glyphName=".ttfautohint" x="90" y="0" flags="0x0"/>
      <component glyphName="A.ss01" x="0" y="0" flags="0x0"/>
      <component glyphName="grave" x="188" y="148" flags="0x4"/>
    </TTGlyph>
    <TTGlyph name="Amacron" xMin="26" yMin="0" xMax="656" yMax="885">
      <component glyphName=".ttfautohint" x="26" y="0" flags="0x0"/>
      <component glyphName="A" x="0" y="0" flags="0x0"/>
      <component glyphName="uni0304.case" x="522" y="0" flags="0x0"/>
    </TTGlyph>
    <TTGlyph name="Amacron.ss01" xMin="90" yMin="0" xMax="616" yMax="885">
      <component glyphName=".ttfautohint" x="90" y="0" flags="0x0"/>
      <component glyphName="A.ss01" x="0" y="0" flags="0x0"/>
      <component glyphName="uni0304.case" x="534" y="0" flags="0x0"/>
    </TTGlyph>
    <TTGlyph name="Aogonek" xMin="26" yMin="-196" xMax="656" yMax="688">
      <contour>
        <pt x="576" y="-139" on="0"/>
        <pt x="623" y="-139" on="1"/>
        <pt x="634" y="-139" on="0"/>
        <pt x="640" y="-138" on="1"/>
        <pt x="640" y="-194" on="1"/>
        <pt x="602" y="-196" on="0"/>
        <pt x="599" y="-196" on="1"/>
        <pt x="501" y="-196" on="0"/>
        <pt x="501" y="-118" on="1"/>
        <pt x="501" y="-89" on="0"/>
        <pt x="533" y="-26" on="0"/>
        <pt x="560" y="1" on="1"/>
        <pt x="492" y="184" on="1"/>
        <pt x="188" y="184" on="1"/>
        <pt x="120" y="0" on="1"/>
        <pt x="26" y="0" on="1"/>
        <pt x="282" y="688" on="1"/>
        <pt x="400" y="688" on="1"/>
        <pt x="656" y="0" on="1"/>
        <pt x="635" y="0" on="1"/>
        <pt x="613" y="-18" on="0"/>
        <pt x="576" y="-76" on="0"/>
        <pt x="576" y="-100" on="1"/>
      </contour>
      <contour>
        <pt x="464" y="263" on="1"/>
        <pt x="342" y="594" on="1"/>
        <pt x="337" y="594" on="1"/>
        <pt x="215" y="263" on="1"/>
      </contour>
    </TTGlyph>
    <TTGlyph name="Aogonek.ss01" xMin="89" yMin="-196" xMax="615" yMax="695">
      <contour>
        <pt x="576" y="-19" on="0"/>
        <pt x="540" y="-76" on="0"/>
        <pt x="540" y="-100" on="1"/>
        <pt x="540" y="-139" on="0"/>
        <pt x="587" y="-139" on="1"/>
        <pt x="597" y="-139" on="0"/>
        <pt x="604" y="-138" on="1"/>
        <pt x="604" y="-194" on="1"/>
        <pt x="578" y="-196" on="0"/>
        <pt x="562" y="-196" on="1"/>
        <pt x="464" y="-196" on="0"/>
        <pt x="464" y="-118" on="1"/>
        <pt x="464" y="-90" on="0"/>
        <pt x="496" y="-26" on="0"/>
        <pt x="523" y="1" on="1"/>
        <pt x="523" y="236" on="1"/>
        <pt x="182" y="236" on="1"/>
        <pt x="182" y="0" on="1"/>
        <pt x="89" y="0" on="1"/>
        <pt x="89" y="386" on="1"/>
        <pt x="89" y="520" on="0"/>
        <pt x="124" y="645" on="0"/>
        <pt x="232" y="695" on="0"/>
        <pt x="352" y="695" on="1"/>
        <pt x="472" y="695" on="0"/>
        <pt x="580" y="644" on="0"/>
        <pt x="615" y="520" on="0"/>
        <pt x="615" y="386" on="1"/>
        <pt x="615" y="0" on="1"/>
        <pt x="598" y="0" on="1"/>
      </contour>
      <contour>
        <pt x="523" y="318" on="1"/>
        <pt x="523" y="420" on="1"/>
        <pt x="523" y="511" on="0"/>
        <pt x="504" y="586" on="0"/>
        <pt x="435" y="616" on="0"/>
        <pt x="352" y="616" on="1"/>
        <pt x="269" y="616" on="0"/>
        <pt x="201" y="586" on="0"/>
        <pt x="182" y="511" on="0"/>
        <pt x="182" y="420" on="1"/>
        <pt x="182" y="318" on="1"/>
      </contour>
    </TTGlyph>
    <TTGlyph name="Aring" xMin="26" yMin="0" xMax="656" yMax="883">
      <contour>
        <pt x="656" y="0" on="1"/>
        <pt x="560" y="0" on="1"/>
        <pt x="492" y="184" on="1"/>
        <pt x="188" y="184" on="1"/>
        <pt x="120" y="0" on="1"/>
        <pt x="26" y="0" on="1"/>
        <pt x="276" y="675" on="1"/>
        <pt x="247" y="680" on="0"/>
        <pt x="220" y="705" on="0"/>
        <pt x="213" y="741" on="0"/>
        <pt x="213" y="776" on="1"/>
        <pt x="213" y="819" on="0"/>
        <pt x="227" y="862" on="0"/>
        <pt x="281" y="883" on="0"/>
        <pt x="340" y="883" on="1"/>
        <pt x="400" y="883" on="0"/>
        <pt x="455" y="862" on="0"/>
        <pt x="470" y="819" on="0"/>
        <pt x="470" y="776" on="1"/>
        <pt x="470" y="742" on="0"/>
        <pt x="462" y="705" on="0"/>
        <pt x="435" y="680" on="0"/>
        <pt x="406" y="675" on="1"/>
      </contour>
      <contour>
        <pt x="305" y="838" on="0"/>
        <pt x="275" y="827" on="0"/>
        <pt x="268" y="804" on="0"/>
        <pt x="268" y="776" on="1"/>
        <pt x="268" y="749" on="0"/>
        <pt x="275" y="726" on="0"/>
        <pt x="305" y="715" on="0"/>
        <pt x="340" y="715" on="1"/>
        <pt x="377" y="715" on="0"/>
        <pt x="408" y="726" on="0"/>
        <pt x="415" y="749" on="0"/>
        <pt x="415" y="776" on="1"/>
        <pt x="415" y="804" on="0"/>
        <pt x="408" y="827" on="0"/>
        <pt x="377" y="838" on="0"/>
        <pt x="340" y="838" on="1"/>
      </contour>
      <contour>
        <pt x="464" y="263" on="1"/>
        <pt x="342" y="594" on="1"/>
        <pt x="337" y="594" on="1"/>
        <pt x="215" y="263" on="1"/>
      </contour>
    </TTGlyph>
    <TTGlyph name="Aring.ss01" xMin="90" yMin="0" xMax="616" yMax="952">
      <component glyphName=".ttfautohint" x="90" y="0" flags="0x0"/>
      <component glyphName="A.ss01" x="0" y="0" flags="0x0"/>
      <component glyphName="ring" x="202" y="138" flags="0x4"/>
    </TTGlyph>
    <TTGlyph name="Aringacute" xMin="26" yMin="0" xMax="656" yMax="1081">
      <component glyphName=".ttfautohint" x="26" y="0" flags="0x0"/>
      <component glyphName="Aring" x="0" y="0" flags="0x0"/>
      <component glyphName="acutecomb.case" x="516" y="195" flags="0x4"/>
    </TTGlyph>
    <TTGlyph name="Aringacute.ss01" xMin="90" yMin="0" xMax="616" yMax="1098">
      <component glyphName=".ttfautohint" x="90" y="0" flags="0x0"/>
      <component glyphName="A.ss01" x="0" y="0" flags="0x0"/>
      <component glyphName="uni030A.case" x="505" y="0" flags="0x0"/>
      <component glyphName="acutecomb.case" x="531" y="212" flags="0x4"/>
    </TTGlyph>
    <TTGlyph name="Atilde" xMin="26" yMin="0" xMax="656" yMax="877">
      <component glyphName=".ttfautohint" x="26" y="0" flags="0x0"/>
      <component glyphName="A" x="0" y="0" flags="0x0"/>
      <component glyphName="tilde" x="140" y="134" flags="0x4"/>
    </TTGlyph>
    <TTGlyph name="Atilde.ss01" xMin="90" yMin="0" xMax="616" yMax="877">
      <component glyphName=".ttfautohint" x="90" y="0" flags="0x0"/>
      <component glyphName="A.ss01" x="0" y="0" flags="0x0"/>
      <component glyphName="tilde" x="151" y="134" flags="0x4"/>
    </TTGlyph>
    <TTGlyph name="B" xMin="98" yMin="0" xMax="610" yMax="688">
      <contour>
        <pt x="98" y="688" on="1"/>
        <pt x="419" y="688" on="1"/>
        <pt x="517" y="688" on="0"/>
        <pt x="602" y="599" on="0"/>
        <pt x="602" y="515" on="1"/>
        <pt x="602" y="446" on="0"/>
        <pt x="546" y="365" on="0"/>
        <pt x="485" y="353" on="1"/>
        <pt x="485" y="349" on="1"/>
        <pt x="555" y="336" on="0"/>
        <pt x="610" y="252" on="0"/>
        <pt x="610" y="181" on="1"/>
        <pt x="610" y="97" on="0"/>
        <pt x="525" y="0" on="0"/>
        <pt x="416" y="0" on="1"/>
        <pt x="98" y="0" on="1"/>
      </contour>
      <contour>
        <pt x="451" y="388" on="0"/>
        <pt x="510" y="441" on="0"/>
        <pt x="510" y="498" on="1"/>
        <pt x="510" y="540" on="0"/>
        <pt x="489" y="587" on="0"/>
        <pt x="437" y="608" on="0"/>
        <pt x="388" y="608" on="1"/>
        <pt x="190" y="608" on="1"/>
        <pt x="190" y="388" on="1"/>
        <pt x="388" y="388" on="1"/>
      </contour>
      <contour>
        <pt x="441" y="79" on="0"/>
        <pt x="495" y="101" on="0"/>
        <pt x="517" y="150" on="0"/>
        <pt x="517" y="193" on="1"/>
        <pt x="517" y="256" on="0"/>
        <pt x="461" y="309" on="0"/>
        <pt x="392" y="309" on="1"/>
        <pt x="190" y="309" on="1"/>
        <pt x="190" y="79" on="1"/>
        <pt x="392" y="79" on="1"/>
      </contour>
    </TTGlyph>
    <TTGlyph name="C" xMin="75" yMin="-8" xMax="518" yMax="696">
      <contour>
        <pt x="486" y="-1" on="0"/>
        <pt x="393" y="-8" on="0"/>
        <pt x="352" y="-8" on="1"/>
        <pt x="228" y="-8" on="0"/>
        <pt x="114" y="46" on="0"/>
        <pt x="75" y="189" on="0"/>
        <pt x="75" y="344" on="1"/>
        <pt x="75" y="498" on="0"/>
        <pt x="114" y="642" on="0"/>
        <pt x="228" y="696" on="0"/>
        <pt x="352" y="696" on="1"/>
        <pt x="392" y="696" on="0"/>
        <pt x="483" y="687" on="0"/>
        <pt x="514" y="681" on="1"/>
        <pt x="514" y="606" on="1"/>
        <pt x="437" y="616" on="0"/>
        <pt x="376" y="616" on="1"/>
        <pt x="273" y="616" on="0"/>
        <pt x="192" y="584" on="0"/>
        <pt x="167" y="478" on="0"/>
        <pt x="167" y="344" on="1"/>
        <pt x="167" y="210" on="0"/>
        <pt x="192" y="104" on="0"/>
        <pt x="273" y="71" on="0"/>
        <pt x="376" y="71" on="1"/>
        <pt x="453" y="71" on="0"/>
        <pt x="518" y="81" on="1"/>
        <pt x="518" y="5" on="1"/>
      </contour>
    </TTGlyph>
    <TTGlyph name="Cacute" xMin="75" yMin="-8" xMax="518" yMax="886">
      <component glyphName=".ttfautohint" x="75" y="0" flags="0x0"/>
      <component glyphName="C" x="0" y="0" flags="0x0"/>
      <component glyphName="acutecomb.case" x="462" y="0" flags="0x0"/>
    </TTGlyph>
    <TTGlyph name="Cacute.loclPLK" xMin="75" yMin="-8" xMax="518" yMax="886">
      <component glyphName=".ttfautohint" x="75" y="0" flags="0x0"/>
      <component glyphName="C" x="0" y="0" flags="0x0"/>
      <component glyphName="acute.case.loclPLK" x="229" y="0" flags="0x0"/>
    </TTGlyph>
    <TTGlyph name="Ccaron" xMin="75" yMin="-8" xMax="518" yMax="886">
      <component glyphName=".ttfautohint" x="75" y="0" flags="0x0"/>
      <component glyphName="C" x="0" y="0" flags="0x0"/>
      <component glyphName="uni030C.case" x="453" y="0" flags="0x0"/>
    </TTGlyph>
    <TTGlyph name="Ccedilla" xMin="75" yMin="-190" xMax="517" yMax="695">
      <contour>
        <pt x="454" y="71" on="0"/>
        <pt x="517" y="81" on="1"/>
        <pt x="517" y="5" on="1"/>
        <pt x="485" y="-1" on="0"/>
        <pt x="393" y="-8" on="0"/>
        <pt x="352" y="-8" on="1"/>
        <pt x="327" y="-8" on="0"/>
        <pt x="315" y="-7" on="1"/>
        <pt x="277" y="-190" on="1"/>
        <pt x="191" y="-190" on="1"/>
        <pt x="191" y="-185" on="1"/>
        <pt x="253" y="-3" on="1"/>
        <pt x="177" y="7" on="0"/>
        <pt x="102" y="74" on="0"/>
        <pt x="75" y="212" on="0"/>
        <pt x="75" y="344" on="1"/>
        <pt x="75" y="498" on="0"/>
        <pt x="114" y="641" on="0"/>
        <pt x="228" y="695" on="0"/>
        <pt x="352" y="695" on="1"/>
        <pt x="393" y="695" on="0"/>
        <pt x="484" y="687" on="0"/>
        <pt x="513" y="680" on="1"/>
        <pt x="513" y="606" on="1"/>
        <pt x="436" y="616" on="0"/>
        <pt x="375" y="616" on="1"/>
        <pt x="273" y="616" on="0"/>
        <pt x="192" y="584" on="0"/>
        <pt x="167" y="478" on="0"/>
        <pt x="167" y="344" on="1"/>
        <pt x="167" y="210" on="0"/>
        <pt x="192" y="104" on="0"/>
        <pt x="273" y="71" on="0"/>
        <pt x="375" y="71" on="1"/>
      </contour>
    </TTGlyph>
    <TTGlyph name="Ccircumflex" xMin="75" yMin="-8" xMax="518" yMax="886">
      <component glyphName=".ttfautohint" x="75" y="0" flags="0x0"/>
      <component glyphName="C" x="0" y="0" flags="0x0"/>
      <component glyphName="uni0302.case" x="453" y="0" flags="0x0"/>
    </TTGlyph>
    <TTGlyph name="Cdotaccent" xMin="75" yMin="-8" xMax="518" yMax="873">
      <component glyphName=".ttfautohint" x="75" y="0" flags="0x0"/>
      <component glyphName="C" x="0" y="0" flags="0x0"/>
      <component glyphName="uni0307.case" x="347" y="0" flags="0x0"/>
    </TTGlyph>
    <TTGlyph name="D" xMin="98" yMin="0" xMax="612" yMax="688">
      <contour>
        <pt x="98" y="688" on="1"/>
        <pt x="318" y="688" on="1"/>
        <pt x="461" y="688" on="0"/>
        <pt x="580" y="637" on="0"/>
        <pt x="612" y="505" on="0"/>
        <pt x="612" y="344" on="1"/>
        <pt x="612" y="183" on="0"/>
        <pt x="580" y="51" on="0"/>
        <pt x="462" y="0" on="0"/>
        <pt x="318" y="0" on="1"/>
        <pt x="98" y="0" on="1"/>
      </contour>
      <contour>
        <pt x="304" y="79" on="1"/>
        <pt x="418" y="79" on="0"/>
        <pt x="496" y="104" on="0"/>
        <pt x="519" y="203" on="0"/>
        <pt x="519" y="344" on="1"/>
        <pt x="519" y="483" on="0"/>
        <pt x="495" y="583" on="0"/>
        <pt x="417" y="608" on="0"/>
        <pt x="304" y="608" on="1"/>
        <pt x="190" y="608" on="1"/>
        <pt x="190" y="79" on="1"/>
      </contour>
    </TTGlyph>
    <TTGlyph name="Dcaron" xMin="98" yMin="0" xMax="612" yMax="886">
      <component glyphName=".ttfautohint" x="98" y="0" flags="0x0"/>
      <component glyphName="D" x="0" y="0" flags="0x0"/>
      <component glyphName="uni030C.case" x="511" y="0" flags="0x0"/>
    </TTGlyph>
    <TTGlyph name="Dcroat" xMin="30" yMin="0" xMax="612" yMax="688">
      <component glyphName=".ttfautohint" x="30" y="0" flags="0x0"/>
      <component glyphName="Eth" x="0" y="0" flags="0x0"/>
    </TTGlyph>
    <TTGlyph name="E" xMin="98" yMin="0" xMax="547" yMax="688">
      <contour>
        <pt x="98" y="688" on="1"/>
        <pt x="547" y="688" on="1"/>
        <pt x="547" y="608" on="1"/>
        <pt x="190" y="608" on="1"/>
        <pt x="190" y="387" on="1"/>
        <pt x="500" y="387" on="1"/>
        <pt x="500" y="308" on="1"/>
        <pt x="190" y="308" on="1"/>
        <pt x="190" y="79" on="1"/>
        <pt x="547" y="79" on="1"/>
        <pt x="547" y="0" on="1"/>
        <pt x="98" y="0" on="1"/>
      </contour>
    </TTGlyph>
    <TTGlyph name="Eacute" xMin="98" yMin="0" xMax="547" yMax="891">
      <component glyphName=".ttfautohint" x="98" y="0" flags="0x0"/>
      <component glyphName="E" x="0" y="0" flags="0x0"/>
      <component glyphName="acute" x="267" y="148" flags="0x4"/>
    </TTGlyph>
    <TTGlyph name="Ebreve" xMin="98" yMin="0" xMax="547" yMax="886">
      <component glyphName=".ttfautohint" x="98" y="0" flags="0x0"/>
      <component glyphName="E" x="0" y="0" flags="0x0"/>
      <component glyphName="uni0306.case" x="480" y="0" flags="0x0"/>
    </TTGlyph>
    <TTGlyph name="Ecaron" xMin="98" yMin="0" xMax="547" yMax="886">
      <component glyphName=".ttfautohint" x="98" y="0" flags="0x0"/>
      <component glyphName="E" x="0" y="0" flags="0x0"/>
      <component glyphName="uni030C.case" x="489" y="0" flags="0x0"/>
    </TTGlyph>
    <TTGlyph name="Ecircumflex" xMin="98" yMin="0" xMax="547" yMax="892">
      <component glyphName=".ttfautohint" x="98" y="0" flags="0x0"/>
      <component glyphName="E" x="0" y="0" flags="0x0"/>
      <component glyphName="circumflex" x="156" y="149" flags="0x4"/>
    </TTGlyph>
    <TTGlyph name="Edieresis" xMin="98" yMin="0" xMax="547" yMax="858">
      <component glyphName=".ttfautohint" x="98" y="0" flags="0x0"/>
      <component glyphName="E" x="0" y="0" flags="0x0"/>
      <component glyphName="dieresis" x="172" y="128" flags="0x4"/>
    </TTGlyph>
    <TTGlyph name="Edotaccent" xMin="98" yMin="0" xMax="547" yMax="873">
      <component glyphName=".ttfautohint" x="98" y="0" flags="0x0"/>
      <component glyphName="E" x="0" y="0" flags="0x0"/>
      <component glyphName="uni0307.case" x="382" y="0" flags="0x0"/>
    </TTGlyph>
    <TTGlyph name="Egrave" xMin="98" yMin="0" xMax="547" yMax="891">
      <component glyphName=".ttfautohint" x="98" y="0" flags="0x0"/>
      <component glyphName="E" x="0" y="0" flags="0x0"/>
      <component glyphName="grave" x="161" y="148" flags="0x4"/>
    </TTGlyph>
    <TTGlyph name="Emacron" xMin="98" yMin="0" xMax="547" yMax="885">
      <component glyphName=".ttfautohint" x="98" y="0" flags="0x0"/>
      <component glyphName="E" x="0" y="0" flags="0x0"/>
      <component glyphName="uni0304.case" x="503" y="0" flags="0x0"/>
    </TTGlyph>
    <TTGlyph name="Eng" xMin="98" yMin="-200" xMax="632" yMax="688">
      <contour>
        <pt x="632" y="688" on="1"/>
        <pt x="632" y="-58" on="1"/>
        <pt x="632" y="-123" on="0"/>
        <pt x="599" y="-183" on="0"/>
        <pt x="525" y="-200" on="0"/>
        <pt x="448" y="-200" on="1"/>
        <pt x="448" y="-132" on="1"/>
        <pt x="492" y="-132" on="0"/>
        <pt x="531" y="-122" on="0"/>
        <pt x="543" y="-100" on="0"/>
        <pt x="543" y="-77" on="1"/>
        <pt x="543" y="0" on="1"/>
        <pt x="190" y="526" on="1"/>
        <pt x="186" y="526" on="1"/>
        <pt x="186" y="0" on="1"/>
        <pt x="98" y="0" on="1"/>
        <pt x="98" y="688" on="1"/>
        <pt x="193" y="688" on="1"/>
        <pt x="539" y="173" on="1"/>
        <pt x="543" y="173" on="1"/>
        <pt x="543" y="688" on="1"/>
      </contour>
    </TTGlyph>
    <TTGlyph name="Eogonek" xMin="98" yMin="-196" xMax="547" yMax="688">
      <contour>
        <pt x="449" y="-196" on="0"/>
        <pt x="403" y="-155" on="0"/>
        <pt x="403" y="-121" on="1"/>
        <pt x="403" y="-61" on="0"/>
        <pt x="470" y="0" on="1"/>
        <pt x="98" y="0" on="1"/>
        <pt x="98" y="688" on="1"/>
        <pt x="547" y="688" on="1"/>
        <pt x="547" y="608" on="1"/>
        <pt x="190" y="608" on="1"/>
        <pt x="190" y="387" on="1"/>
        <pt x="500" y="387" on="1"/>
        <pt x="500" y="308" on="1"/>
        <pt x="190" y="308" on="1"/>
        <pt x="190" y="79" on="1"/>
        <pt x="547" y="79" on="1"/>
        <pt x="547" y="0" on="1"/>
        <pt x="522" y="-17" on="0"/>
        <pt x="479" y="-75" on="0"/>
        <pt x="479" y="-101" on="1"/>
        <pt x="479" y="-139" on="0"/>
        <pt x="524" y="-139" on="1"/>
        <pt x="539" y="-139" on="0"/>
        <pt x="543" y="-138" on="1"/>
        <pt x="543" y="-194" on="1"/>
        <pt x="540" y="-194" on="0"/>
        <pt x="520" y="-196" on="0"/>
        <pt x="501" y="-196" on="1"/>
      </contour>
    </TTGlyph>
    <TTGlyph name="Eth" xMin="30" yMin="0" xMax="612" yMax="688">
      <contour>
        <pt x="98" y="311" on="1"/>
        <pt x="30" y="311" on="1"/>
        <pt x="30" y="385" on="1"/>
        <pt x="98" y="385" on="1"/>
        <pt x="98" y="688" on="1"/>
        <pt x="318" y="688" on="1"/>
        <pt x="461" y="688" on="0"/>
        <pt x="580" y="637" on="0"/>
        <pt x="612" y="505" on="0"/>
        <pt x="612" y="344" on="1"/>
        <pt x="612" y="183" on="0"/>
        <pt x="580" y="51" on="0"/>
        <pt x="462" y="0" on="0"/>
        <pt x="318" y="0" on="1"/>
        <pt x="98" y="0" on="1"/>
      </contour>
      <contour>
        <pt x="418" y="79" on="0"/>
        <pt x="496" y="104" on="0"/>
        <pt x="519" y="203" on="0"/>
        <pt x="519" y="344" on="1"/>
        <pt x="519" y="483" on="0"/>
        <pt x="495" y="583" on="0"/>
        <pt x="417" y="608" on="0"/>
        <pt x="304" y="608" on="1"/>
        <pt x="190" y="608" on="1"/>
        <pt x="190" y="385" on="1"/>
        <pt x="298" y="385" on="1"/>
        <pt x="298" y="311" on="1"/>
        <pt x="190" y="311" on="1"/>
        <pt x="190" y="79" on="1"/>
        <pt x="304" y="79" on="1"/>
      </contour>
    </TTGlyph>
    <TTGlyph name="Euro" xMin="37" yMin="-8" xMax="562" yMax="696">
      <contour>
        <pt x="289" y="-8" on="0"/>
        <pt x="180" y="30" on="0"/>
        <pt x="131" y="134" on="0"/>
        <pt x="125" y="240" on="1"/>
        <pt x="37" y="240" on="1"/>
        <pt x="37" y="297" on="1"/>
        <pt x="123" y="297" on="1"/>
        <pt x="123" y="393" on="1"/>
        <pt x="37" y="393" on="1"/>
        <pt x="37" y="450" on="1"/>
        <pt x="125" y="450" on="1"/>
        <pt x="131" y="551" on="0"/>
        <pt x="181" y="655" on="0"/>
        <pt x="293" y="696" on="0"/>
        <pt x="398" y="696" on="1"/>
        <pt x="465" y="696" on="0"/>
        <pt x="554" y="682" on="0"/>
        <pt x="558" y="681" on="1"/>
        <pt x="558" y="607" on="1"/>
        <pt x="537" y="610" on="0"/>
        <pt x="455" y="616" on="0"/>
        <pt x="421" y="616" on="1"/>
        <pt x="335" y="616" on="0"/>
        <pt x="256" y="595" on="0"/>
        <pt x="222" y="527" on="0"/>
        <pt x="218" y="450" on="1"/>
        <pt x="509" y="450" on="1"/>
        <pt x="509" y="393" on="1"/>
        <pt x="216" y="393" on="1"/>
        <pt x="216" y="297" on="1"/>
        <pt x="509" y="297" on="1"/>
        <pt x="509" y="240" on="1"/>
        <pt x="218" y="240" on="1"/>
        <pt x="222" y="162" on="0"/>
        <pt x="256" y="92" on="0"/>
        <pt x="335" y="71" on="0"/>
        <pt x="421" y="71" on="1"/>
        <pt x="465" y="71" on="0"/>
        <pt x="545" y="78" on="0"/>
        <pt x="562" y="81" on="1"/>
        <pt x="562" y="4" on="1"/>
        <pt x="466" y="-8" on="0"/>
        <pt x="398" y="-8" on="1"/>
      </contour>
    </TTGlyph>
    <TTGlyph name="F" xMin="98" yMin="0" xMax="527" yMax="688">
      <contour>
        <pt x="98" y="688" on="1"/>
        <pt x="527" y="688" on="1"/>
        <pt x="527" y="608" on="1"/>
        <pt x="190" y="608" on="1"/>
        <pt x="190" y="371" on="1"/>
        <pt x="490" y="371" on="1"/>
        <pt x="490" y="292" on="1"/>
        <pt x="190" y="292" on="1"/>
        <pt x="190" y="0" on="1"/>
        <pt x="98" y="0" on="1"/>
      </contour>
    </TTGlyph>
    <TTGlyph name="G" xMin="75" yMin="-8" xMax="588" yMax="696">
      <contour>
        <pt x="348" y="295" on="1"/>
        <pt x="348" y="372" on="1"/>
        <pt x="588" y="372" on="1"/>
        <pt x="588" y="12" on="1"/>
        <pt x="538" y="3" on="0"/>
        <pt x="415" y="-8" on="0"/>
        <pt x="367" y="-8" on="1"/>
        <pt x="241" y="-8" on="0"/>
        <pt x="120" y="46" on="0"/>
        <pt x="75" y="192" on="0"/>
        <pt x="75" y="344" on="1"/>
        <pt x="75" y="495" on="0"/>
        <pt x="121" y="641" on="0"/>
        <pt x="242" y="696" on="0"/>
        <pt x="367" y="696" on="1"/>
        <pt x="418" y="696" on="0"/>
        <pt x="540" y="684" on="0"/>
        <pt x="585" y="675" on="1"/>
        <pt x="585" y="601" on="1"/>
        <pt x="478" y="616" on="0"/>
        <pt x="411" y="616" on="1"/>
        <pt x="294" y="616" on="0"/>
        <pt x="203" y="590" on="0"/>
        <pt x="167" y="481" on="0"/>
        <pt x="167" y="344" on="1"/>
        <pt x="167" y="218" on="0"/>
        <pt x="194" y="108" on="0"/>
        <pt x="276" y="69" on="0"/>
        <pt x="369" y="69" on="1"/>
        <pt x="398" y="69" on="0"/>
        <pt x="474" y="74" on="0"/>
        <pt x="498" y="77" on="1"/>
        <pt x="498" y="295" on="1"/>
      </contour>
    </TTGlyph>
    <TTGlyph name="G.ss01" xMin="75" yMin="-8" xMax="619" yMax="696">
      <contour>
        <pt x="239" y="-8" on="0"/>
        <pt x="118" y="46" on="0"/>
        <pt x="75" y="191" on="0"/>
        <pt x="75" y="344" on="1"/>
        <pt x="75" y="495" on="0"/>
        <pt x="123" y="641" on="0"/>
        <pt x="247" y="696" on="0"/>
        <pt x="375" y="696" on="1"/>
        <pt x="425" y="696" on="0"/>
        <pt x="548" y="684" on="0"/>
        <pt x="594" y="675" on="1"/>
        <pt x="594" y="601" on="1"/>
        <pt x="486" y="616" on="0"/>
        <pt x="419" y="616" on="1"/>
        <pt x="298" y="616" on="0"/>
        <pt x="204" y="590" on="0"/>
        <pt x="167" y="481" on="0"/>
        <pt x="167" y="344" on="1"/>
        <pt x="167" y="216" on="0"/>
        <pt x="195" y="106" on="0"/>
        <pt x="272" y="71" on="0"/>
        <pt x="363" y="71" on="1"/>
        <pt x="446" y="71" on="0"/>
        <pt x="510" y="96" on="0"/>
        <pt x="528" y="174" on="0"/>
        <pt x="528" y="278" on="1"/>
        <pt x="528" y="303" on="1"/>
        <pt x="375" y="303" on="1"/>
        <pt x="375" y="380" on="1"/>
        <pt x="619" y="380" on="1"/>
        <pt x="619" y="296" on="1"/>
        <pt x="619" y="156" on="0"/>
        <pt x="593" y="41" on="0"/>
        <pt x="491" y="-8" on="0"/>
        <pt x="367" y="-8" on="1"/>
      </contour>
    </TTGlyph>
    <TTGlyph name="G_tilde.loclGUA" xMin="75" yMin="-8" xMax="588" yMax="887">
      <component glyphName=".ttfautohint" x="75" y="0" flags="0x0"/>
      <component glyphName="G" x="0" y="0" flags="0x0"/>
      <component glyphName="tildecomb.case" x="539" y="0" flags="0x0"/>
    </TTGlyph>
    <TTGlyph name="Gbreve" xMin="75" yMin="-8" xMax="588" yMax="886">
      <component glyphName=".ttfautohint" x="75" y="0" flags="0x0"/>
      <component glyphName="G" x="0" y="0" flags="0x0"/>
      <component glyphName="uni0306.case" x="495" y="0" flags="0x0"/>
    </TTGlyph>
    <TTGlyph name="Gbreve.ss01" xMin="75" yMin="-8" xMax="619" yMax="886">
      <component glyphName=".ttfautohint" x="75" y="0" flags="0x0"/>
      <component glyphName="G.ss01" x="0" y="0" flags="0x0"/>
      <component glyphName="uni0306.case" x="504" y="0" flags="0x0"/>
    </TTGlyph>
    <TTGlyph name="Gcaron" xMin="75" yMin="-8" xMax="588" yMax="886">
      <component glyphName=".ttfautohint" x="75" y="0" flags="0x0"/>
      <component glyphName="G" x="0" y="0" flags="0x0"/>
      <component glyphName="uni030C.case" x="504" y="0" flags="0x0"/>
    </TTGlyph>
    <TTGlyph name="Gcaron.ss01" xMin="75" yMin="-8" xMax="619" yMax="886">
      <component glyphName=".ttfautohint" x="75" y="0" flags="0x0"/>
      <component glyphName="G.ss01" x="0" y="0" flags="0x0"/>
      <component glyphName="uni030C.case" x="513" y="0" flags="0x0"/>
    </TTGlyph>
    <TTGlyph name="Gcircumflex" xMin="75" yMin="-8" xMax="588" yMax="886">
      <component glyphName=".ttfautohint" x="75" y="0" flags="0x0"/>
      <component glyphName="G" x="0" y="0" flags="0x0"/>
      <component glyphName="uni0302.case" x="504" y="0" flags="0x0"/>
    </TTGlyph>
    <TTGlyph name="Gcircumflex.ss01" xMin="75" yMin="-8" xMax="619" yMax="886">
      <component glyphName=".ttfautohint" x="75" y="0" flags="0x0"/>
      <component glyphName="G.ss01" x="0" y="0" flags="0x0"/>
      <component glyphName="uni0302.case" x="513" y="0" flags="0x0"/>
    </TTGlyph>
    <TTGlyph name="Gcommaaccent" xMin="75" yMin="-265" xMax="588" yMax="696">
      <component glyphName=".ttfautohint" x="75" y="0" flags="0x0"/>
      <component glyphName="G" x="0" y="0" flags="0x0"/>
      <component glyphName="uni0326" x="459" y="0" flags="0x0"/>
    </TTGlyph>
    <TTGlyph name="Gcommaaccent.ss01" xMin="75" yMin="-265" xMax="619" yMax="696">
      <component glyphName=".ttfautohint" x="75" y="0" flags="0x0"/>
      <component glyphName="G.ss01" x="0" y="0" flags="0x0"/>
      <component glyphName="uni0326" x="468" y="0" flags="0x0"/>
    </TTGlyph>
    <TTGlyph name="Gdotaccent" xMin="75" yMin="-8" xMax="588" yMax="873">
      <component glyphName=".ttfautohint" x="75" y="0" flags="0x0"/>
      <component glyphName="G" x="0" y="0" flags="0x0"/>
      <component glyphName="uni0307.case" x="397" y="0" flags="0x0"/>
    </TTGlyph>
    <TTGlyph name="Gdotaccent.ss01" xMin="75" yMin="-8" xMax="619" yMax="873">
      <component glyphName=".ttfautohint" x="75" y="0" flags="0x0"/>
      <component glyphName="G.ss01" x="0" y="0" flags="0x0"/>
      <component glyphName="uni0307.case" x="406" y="0" flags="0x0"/>
    </TTGlyph>
    <TTGlyph name="Gtilde.loclGUA.ss01" xMin="75" yMin="-8" xMax="619" yMax="887">
      <component glyphName=".ttfautohint" x="75" y="0" flags="0x0"/>
      <component glyphName="G.ss01" x="0" y="0" flags="0x0"/>
      <component glyphName="tildecomb.case" x="547" y="0" flags="0x0"/>
    </TTGlyph>
    <TTGlyph name="H" xMin="98" yMin="0" xMax="632" yMax="688">
      <contour>
        <pt x="539" y="306" on="1"/>
        <pt x="190" y="306" on="1"/>
        <pt x="190" y="0" on="1"/>
        <pt x="98" y="0" on="1"/>
        <pt x="98" y="688" on="1"/>
        <pt x="190" y="688" on="1"/>
        <pt x="190" y="387" on="1"/>
        <pt x="539" y="387" on="1"/>
        <pt x="539" y="688" on="1"/>
        <pt x="632" y="688" on="1"/>
        <pt x="632" y="0" on="1"/>
        <pt x="539" y="0" on="1"/>
      </contour>
    </TTGlyph>
    <TTGlyph name="Hbar" xMin="98" yMin="0" xMax="632" yMax="688">
      <contour>
        <pt x="632" y="688" on="1"/>
        <pt x="632" y="0" on="1"/>
        <pt x="539" y="0" on="1"/>
        <pt x="539" y="273" on="1"/>
        <pt x="190" y="273" on="1"/>
        <pt x="190" y="0" on="1"/>
        <pt x="98" y="0" on="1"/>
        <pt x="98" y="688" on="1"/>
        <pt x="190" y="688" on="1"/>
        <pt x="190" y="554" on="1"/>
        <pt x="539" y="554" on="1"/>
        <pt x="539" y="688" on="1"/>
      </contour>
      <contour>
        <pt x="539" y="355" on="1"/>
        <pt x="539" y="480" on="1"/>
        <pt x="190" y="480" on="1"/>
        <pt x="190" y="355" on="1"/>
      </contour>
    </TTGlyph>
    <TTGlyph name="Hcircumflex" xMin="98" yMin="0" xMax="632" yMax="886">
      <component glyphName=".ttfautohint" x="98" y="0" flags="0x0"/>
      <component glyphName="H" x="0" y="0" flags="0x0"/>
      <component glyphName="uni0302.case" x="531" y="0" flags="0x0"/>
    </TTGlyph>
    <TTGlyph name="I" xMin="98" yMin="0" xMax="190" yMax="688">
      <contour>
        <pt x="98" y="688" on="1"/>
        <pt x="190" y="688" on="1"/>
        <pt x="190" y="0" on="1"/>
        <pt x="98" y="0" on="1"/>
      </contour>
    </TTGlyph>
    <TTGlyph name="IJ" xMin="98" yMin="0" xMax="555" yMax="688">
      <component glyphName=".ttfautohint" x="98" y="0" flags="0x0"/>
      <component glyphName="I" x="0" y="0" flags="0x0"/>
      <component glyphName="J" x="287" y="0" flags="0x0"/>
    </TTGlyph>
    <TTGlyph name="Iacute" xMin="97" yMin="0" xMax="290" yMax="891">
      <component glyphName=".ttfautohint" x="97" y="0" flags="0x0"/>
      <component glyphName="I" x="0" y="0" flags="0x0"/>
      <component glyphName="acute" x="77" y="148" flags="0x4"/>
    </TTGlyph>
    <TTGlyph name="Iacute_J.loclNLD" xMin="98" yMin="0" xMax="665" yMax="886">
      <component glyphName=".ttfautohint" x="98" y="0" flags="0x0"/>
      <component glyphName="I" x="0" y="0" flags="0x0"/>
      <component glyphName="acutecomb.case" x="320" y="0" flags="0x0"/>
      <component glyphName="J" x="287" y="0" flags="0x0"/>
      <component glyphName="acutecomb.case" x="685" y="0" flags="0x0"/>
    </TTGlyph>
    <TTGlyph name="Ibreve" xMin="5" yMin="0" xMax="282" yMax="886">
      <component glyphName=".ttfautohint" x="5" y="0" flags="0x0"/>
      <component glyphName="I" x="0" y="0" flags="0x0"/>
      <component glyphName="uni0306.case" x="302" y="0" flags="0x0"/>
    </TTGlyph>
    <TTGlyph name="Icircumflex" xMin="-2" yMin="0" xMax="291" yMax="892">
      <component glyphName=".ttfautohint" x="0" y="0" flags="0x0"/>
      <component glyphName="I" x="0" y="0" flags="0x0"/>
      <component glyphName="circumflex" x="-22" y="149" flags="0x4"/>
    </TTGlyph>
    <TTGlyph name="Idieresis" xMin="9" yMin="0" xMax="279" yMax="857">
      <component glyphName=".ttfautohint" x="9" y="0" flags="0x0"/>
      <component glyphName="I" x="0" y="0" flags="0x0"/>
      <component glyphName="dieresis" x="-11" y="127" flags="0x4"/>
    </TTGlyph>
    <TTGlyph name="Idotaccent" xMin="98" yMin="0" xMax="190" yMax="873">
      <component glyphName=".ttfautohint" x="98" y="0" flags="0x0"/>
      <component glyphName="I" x="0" y="0" flags="0x0"/>
      <component glyphName="uni0307.case" x="204" y="0" flags="0x0"/>
    </TTGlyph>
    <TTGlyph name="Igrave" xMin="3" yMin="0" xMax="196" yMax="891">
      <component glyphName=".ttfautohint" x="3" y="0" flags="0x0"/>
      <component glyphName="I" x="0" y="0" flags="0x0"/>
      <component glyphName="grave" x="-17" y="148" flags="0x4"/>
    </TTGlyph>
    <TTGlyph name="Imacron" xMin="20" yMin="0" xMax="265" yMax="885">
      <component glyphName=".ttfautohint" x="20" y="0" flags="0x0"/>
      <component glyphName="I" x="0" y="0" flags="0x0"/>
      <component glyphName="uni0304.case" x="324" y="0" flags="0x0"/>
    </TTGlyph>
    <TTGlyph name="Iogonek" xMin="51" yMin="-196" xMax="191" yMax="688">
      <contour>
        <pt x="51" y="-196" on="0"/>
        <pt x="51" y="-118" on="1"/>
        <pt x="51" y="-90" on="0"/>
        <pt x="85" y="-26" on="0"/>
        <pt x="113" y="0" on="1"/>
        <pt x="98" y="0" on="1"/>
        <pt x="98" y="688" on="1"/>
        <pt x="190" y="688" on="1"/>
        <pt x="190" y="0" on="1"/>
        <pt x="168" y="-16" on="0"/>
        <pt x="127" y="-76" on="0"/>
        <pt x="127" y="-100" on="1"/>
        <pt x="127" y="-139" on="0"/>
        <pt x="174" y="-139" on="1"/>
        <pt x="187" y="-139" on="0"/>
        <pt x="191" y="-138" on="1"/>
        <pt x="191" y="-194" on="1"/>
        <pt x="188" y="-194" on="0"/>
        <pt x="163" y="-196" on="0"/>
        <pt x="149" y="-196" on="1"/>
      </contour>
    </TTGlyph>
    <TTGlyph name="Itilde" xMin="-39" yMin="0" xMax="324" yMax="887">
      <component glyphName=".ttfautohint" x="0" y="0" flags="0x0"/>
      <component glyphName="I" x="0" y="0" flags="0x0"/>
      <component glyphName="tildecomb.case" x="345" y="0" flags="0x0"/>
    </TTGlyph>
    <TTGlyph name="J" xMin="33" yMin="0" xMax="268" yMax="688">
      <contour>
        <pt x="109" y="77" on="0"/>
        <pt x="162" y="96" on="0"/>
        <pt x="175" y="159" on="0"/>
        <pt x="175" y="253" on="1"/>
        <pt x="175" y="688" on="1"/>
        <pt x="268" y="688" on="1"/>
        <pt x="268" y="282" on="1"/>
        <pt x="268" y="135" on="0"/>
        <pt x="243" y="30" on="0"/>
        <pt x="156" y="1" on="0"/>
        <pt x="33" y="0" on="1"/>
        <pt x="33" y="76" on="1"/>
      </contour>
    </TTGlyph>
    <TTGlyph name="Jcircumflex" xMin="33" yMin="0" xMax="367" yMax="886">
      <component glyphName=".ttfautohint" x="33" y="0" flags="0x0"/>
      <component glyphName="J" x="0" y="0" flags="0x0"/>
      <component glyphName="uni0302.case" x="388" y="0" flags="0x0"/>
    </TTGlyph>
    <TTGlyph name="K" xMin="98" yMin="0" xMax="645" yMax="688">
      <contour>
        <pt x="307" y="310" on="1"/>
        <pt x="190" y="310" on="1"/>
        <pt x="190" y="0" on="1"/>
        <pt x="98" y="0" on="1"/>
        <pt x="98" y="688" on="1"/>
        <pt x="190" y="688" on="1"/>
        <pt x="190" y="389" on="1"/>
        <pt x="307" y="389" on="1"/>
        <pt x="539" y="688" on="1"/>
        <pt x="642" y="688" on="1"/>
        <pt x="382" y="354" on="1"/>
        <pt x="645" y="0" on="1"/>
        <pt x="537" y="0" on="1"/>
      </contour>
    </TTGlyph>
    <TTGlyph name="Kcommaaccent" xMin="98" yMin="-265" xMax="645" yMax="688">
      <component glyphName=".ttfautohint" x="98" y="0" flags="0x0"/>
      <component glyphName="K" x="0" y="0" flags="0x0"/>
      <component glyphName="uni0326" x="457" y="0" flags="0x0"/>
    </TTGlyph>
    <TTGlyph name="L" xMin="98" yMin="0" xMax="507" yMax="688">
      <contour>
        <pt x="98" y="688" on="1"/>
        <pt x="190" y="688" on="1"/>
        <pt x="190" y="82" on="1"/>
        <pt x="507" y="82" on="1"/>
        <pt x="507" y="0" on="1"/>
        <pt x="98" y="0" on="1"/>
      </contour>
    </TTGlyph>
    <TTGlyph name="Lacute" xMin="98" yMin="0" xMax="507" yMax="886">
      <component glyphName=".ttfautohint" x="98" y="0" flags="0x0"/>
      <component glyphName="L" x="0" y="0" flags="0x0"/>
      <component glyphName="acutecomb.case" x="323" y="0" flags="0x0"/>
    </TTGlyph>
    <TTGlyph name="Lcaron" xMin="98" yMin="0" xMax="507" yMax="693">
      <component glyphName=".ttfautohint" x="98" y="0" flags="0x0"/>
      <component glyphName="L" x="0" y="0" flags="0x0"/>
      <component glyphName="caron.loclCSY" x="283" y="5" flags="0x4"/>
    </TTGlyph>
    <TTGlyph name="Lcommaaccent" xMin="98" yMin="-265" xMax="507" yMax="688">
      <component glyphName=".ttfautohint" x="98" y="0" flags="0x0"/>
      <component glyphName="L" x="0" y="0" flags="0x0"/>
      <component glyphName="uni0326" x="410" y="0" flags="0x0"/>
    </TTGlyph>
    <TTGlyph name="Ldot" xMin="98" yMin="0" xMax="507" yMax="688">
      <component glyphName=".ttfautohint" x="98" y="0" flags="0x0"/>
      <component glyphName="L" x="0" y="0" flags="0x0"/>
      <component glyphName="periodcentered" x="300" y="68" flags="0x4"/>
    </TTGlyph>
    <TTGlyph name="Lslash" xMin="34" yMin="0" xMax="507" yMax="687">
      <contour>
        <pt x="507" y="82" on="1"/>
        <pt x="507" y="0" on="1"/>
        <pt x="98" y="0" on="1"/>
        <pt x="98" y="287" on="1"/>
        <pt x="34" y="263" on="1"/>
        <pt x="34" y="335" on="1"/>
        <pt x="98" y="358" on="1"/>
        <pt x="98" y="687" on="1"/>
        <pt x="190" y="687" on="1"/>
        <pt x="190" y="392" on="1"/>
        <pt x="376" y="462" on="1"/>
        <pt x="376" y="390" on="1"/>
        <pt x="190" y="321" on="1"/>
        <pt x="190" y="82" on="1"/>
      </contour>
    </TTGlyph>
    <TTGlyph name="M" xMin="98" yMin="0" xMax="805" yMax="688">
      <contour>
        <pt x="716" y="541" on="1"/>
        <pt x="712" y="541" on="1"/>
        <pt x="483" y="0" on="1"/>
        <pt x="416" y="0" on="1"/>
        <pt x="189" y="541" on="1"/>
        <pt x="185" y="541" on="1"/>
        <pt x="185" y="0" on="1"/>
        <pt x="98" y="0" on="1"/>
        <pt x="98" y="688" on="1"/>
        <pt x="223" y="688" on="1"/>
        <pt x="449" y="151" on="1"/>
        <pt x="454" y="151" on="1"/>
        <pt x="681" y="688" on="1"/>
        <pt x="805" y="688" on="1"/>
        <pt x="805" y="0" on="1"/>
        <pt x="716" y="0" on="1"/>
      </contour>
    </TTGlyph>
    <TTGlyph name="N" xMin="98" yMin="0" xMax="632" yMax="688">
      <contour>
        <pt x="190" y="526" on="1"/>
        <pt x="186" y="526" on="1"/>
        <pt x="186" y="0" on="1"/>
        <pt x="98" y="0" on="1"/>
        <pt x="98" y="688" on="1"/>
        <pt x="193" y="688" on="1"/>
        <pt x="539" y="173" on="1"/>
        <pt x="543" y="173" on="1"/>
        <pt x="543" y="688" on="1"/>
        <pt x="632" y="688" on="1"/>
        <pt x="632" y="0" on="1"/>
        <pt x="543" y="0" on="1"/>
      </contour>
    </TTGlyph>
    <TTGlyph name="Nacute" xMin="98" yMin="0" xMax="632" yMax="886">
      <component glyphName=".ttfautohint" x="98" y="0" flags="0x0"/>
      <component glyphName="N" x="0" y="0" flags="0x0"/>
      <component glyphName="acutecomb.case" x="540" y="0" flags="0x0"/>
    </TTGlyph>
    <TTGlyph name="Nacute.loclPLK" xMin="98" yMin="0" xMax="632" yMax="886">
      <component glyphName=".ttfautohint" x="98" y="0" flags="0x0"/>
      <component glyphName="N" x="0" y="0" flags="0x0"/>
      <component glyphName="acute.case.loclPLK" x="307" y="0" flags="0x0"/>
    </TTGlyph>
    <TTGlyph name="Ncaron" xMin="98" yMin="0" xMax="632" yMax="886">
      <component glyphName=".ttfautohint" x="98" y="0" flags="0x0"/>
      <component glyphName="N" x="0" y="0" flags="0x0"/>
      <component glyphName="uni030C.case" x="531" y="0" flags="0x0"/>
    </TTGlyph>
    <TTGlyph name="Ncommaaccent" xMin="98" yMin="-265" xMax="632" yMax="688">
      <component glyphName=".ttfautohint" x="98" y="0" flags="0x0"/>
      <component glyphName="N" x="0" y="0" flags="0x0"/>
      <component glyphName="uni0326" x="487" y="0" flags="0x0"/>
    </TTGlyph>
    <TTGlyph name="Ntilde" xMin="98" yMin="0" xMax="632" yMax="878">
      <component glyphName=".ttfautohint" x="98" y="0" flags="0x0"/>
      <component glyphName="N" x="0" y="0" flags="0x0"/>
      <component glyphName="tilde" x="165" y="135" flags="0x4"/>
    </TTGlyph>
    <TTGlyph name="O" xMin="75" yMin="-8" xMax="640" yMax="696">
      <contour>
        <pt x="220" y="-8" on="0"/>
        <pt x="106" y="46" on="0"/>
        <pt x="75" y="181" on="0"/>
        <pt x="75" y="344" on="1"/>
        <pt x="75" y="507" on="0"/>
        <pt x="106" y="642" on="0"/>
        <pt x="220" y="696" on="0"/>
        <pt x="357" y="696" on="1"/>
        <pt x="494" y="696" on="0"/>
        <pt x="609" y="642" on="0"/>
        <pt x="640" y="507" on="0"/>
        <pt x="640" y="344" on="1"/>
        <pt x="640" y="181" on="0"/>
        <pt x="609" y="46" on="0"/>
        <pt x="494" y="-8" on="0"/>
        <pt x="357" y="-8" on="1"/>
      </contour>
      <contour>
        <pt x="455" y="71" on="0"/>
        <pt x="526" y="98" on="0"/>
        <pt x="547" y="201" on="0"/>
        <pt x="547" y="344" on="1"/>
        <pt x="547" y="486" on="0"/>
        <pt x="526" y="590" on="0"/>
        <pt x="456" y="616" on="0"/>
        <pt x="357" y="616" on="1"/>
        <pt x="258" y="616" on="0"/>
        <pt x="188" y="590" on="0"/>
        <pt x="167" y="487" on="0"/>
        <pt x="167" y="344" on="1"/>
        <pt x="167" y="201" on="0"/>
        <pt x="188" y="98" on="0"/>
        <pt x="258" y="71" on="0"/>
        <pt x="357" y="71" on="1"/>
      </contour>
    </TTGlyph>
    <TTGlyph name="OE" xMin="75" yMin="0" xMax="983" yMax="688">
      <contour>
        <pt x="220" y="0" on="0"/>
        <pt x="106" y="52" on="0"/>
        <pt x="75" y="184" on="0"/>
        <pt x="75" y="344" on="1"/>
        <pt x="75" y="503" on="0"/>
        <pt x="106" y="636" on="0"/>
        <pt x="220" y="688" on="0"/>
        <pt x="357" y="688" on="1"/>
        <pt x="983" y="688" on="1"/>
        <pt x="983" y="608" on="1"/>
        <pt x="665" y="608" on="1"/>
        <pt x="627" y="608" on="0"/>
        <pt x="592" y="615" on="1"/>
        <pt x="620" y="585" on="0"/>
        <pt x="639" y="480" on="0"/>
        <pt x="640" y="387" on="1"/>
        <pt x="936" y="387" on="1"/>
        <pt x="936" y="308" on="1"/>
        <pt x="640" y="308" on="1"/>
        <pt x="639" y="209" on="0"/>
        <pt x="620" y="103" on="0"/>
        <pt x="592" y="73" on="1"/>
        <pt x="622" y="79" on="0"/>
        <pt x="665" y="79" on="1"/>
        <pt x="983" y="79" on="1"/>
        <pt x="983" y="0" on="1"/>
        <pt x="357" y="0" on="1"/>
      </contour>
      <contour>
        <pt x="455" y="79" on="0"/>
        <pt x="526" y="105" on="0"/>
        <pt x="547" y="206" on="0"/>
        <pt x="547" y="344" on="1"/>
        <pt x="547" y="482" on="0"/>
        <pt x="526" y="582" on="0"/>
        <pt x="456" y="608" on="0"/>
        <pt x="357" y="608" on="1"/>
        <pt x="258" y="608" on="0"/>
        <pt x="188" y="582" on="0"/>
        <pt x="167" y="483" on="0"/>
        <pt x="167" y="344" on="1"/>
        <pt x="167" y="205" on="0"/>
        <pt x="188" y="105" on="0"/>
        <pt x="258" y="79" on="0"/>
        <pt x="357" y="79" on="1"/>
      </contour>
    </TTGlyph>
    <TTGlyph name="Oacute" xMin="75" yMin="-8" xMax="640" yMax="891">
      <component glyphName=".ttfautohint" x="75" y="0" flags="0x0"/>
      <component glyphName="O" x="0" y="0" flags="0x0"/>
      <component glyphName="acute" x="293" y="148" flags="0x4"/>
    </TTGlyph>
    <TTGlyph name="Oacute.loclPLK" xMin="75" yMin="-8" xMax="640" yMax="886">
      <component glyphName=".ttfautohint" x="75" y="0" flags="0x0"/>
      <component glyphName="O" x="0" y="0" flags="0x0"/>
      <component glyphName="acute.case.loclPLK" x="300" y="0" flags="0x0"/>
    </TTGlyph>
    <TTGlyph name="Obreve" xMin="75" yMin="-8" xMax="640" yMax="886">
      <component glyphName=".ttfautohint" x="75" y="0" flags="0x0"/>
      <component glyphName="O" x="0" y="0" flags="0x0"/>
      <component glyphName="uni0306.case" x="515" y="0" flags="0x0"/>
    </TTGlyph>
    <TTGlyph name="Ocircumflex" xMin="75" yMin="-8" xMax="640" yMax="892">
      <component glyphName=".ttfautohint" x="75" y="0" flags="0x0"/>
      <component glyphName="O" x="0" y="0" flags="0x0"/>
      <component glyphName="circumflex" x="191" y="149" flags="0x4"/>
    </TTGlyph>
    <TTGlyph name="Odieresis" xMin="75" yMin="-8" xMax="640" yMax="858">
      <component glyphName=".ttfautohint" x="75" y="0" flags="0x0"/>
      <component glyphName="O" x="0" y="0" flags="0x0"/>
      <component glyphName="dieresis" x="202" y="128" flags="0x4"/>
    </TTGlyph>
    <TTGlyph name="Ograve" xMin="75" yMin="-8" xMax="640" yMax="891">
      <component glyphName=".ttfautohint" x="75" y="0" flags="0x0"/>
      <component glyphName="O" x="0" y="0" flags="0x0"/>
      <component glyphName="grave" x="182" y="148" flags="0x4"/>
    </TTGlyph>
    <TTGlyph name="Ohorn" xMin="75" yMin="-8" xMax="666" yMax="782">
      <contour>
        <pt x="666" y="782" on="1"/>
        <pt x="666" y="758" on="1"/>
        <pt x="666" y="717" on="0"/>
        <pt x="653" y="673" on="0"/>
        <pt x="617" y="651" on="0"/>
        <pt x="581" y="648" on="1"/>
        <pt x="618" y="615" on="0"/>
        <pt x="639" y="483" on="0"/>
        <pt x="639" y="344" on="1"/>
        <pt x="639" y="181" on="0"/>
        <pt x="608" y="46" on="0"/>
        <pt x="493" y="-8" on="0"/>
        <pt x="357" y="-8" on="1"/>
        <pt x="220" y="-8" on="0"/>
        <pt x="106" y="46" on="0"/>
        <pt x="75" y="181" on="0"/>
        <pt x="75" y="344" on="1"/>
        <pt x="75" y="506" on="0"/>
        <pt x="106" y="642" on="0"/>
        <pt x="220" y="695" on="0"/>
        <pt x="357" y="695" on="1"/>
        <pt x="441" y="695" on="0"/>
        <pt x="486" y="687" on="1"/>
        <pt x="547" y="687" on="1"/>
        <pt x="573" y="687" on="0"/>
        <pt x="596" y="698" on="0"/>
        <pt x="604" y="723" on="0"/>
        <pt x="604" y="750" on="1"/>
        <pt x="604" y="782" on="1"/>
      </contour>
      <contour>
        <pt x="455" y="71" on="0"/>
        <pt x="526" y="98" on="0"/>
        <pt x="547" y="201" on="0"/>
        <pt x="547" y="344" on="1"/>
        <pt x="547" y="486" on="0"/>
        <pt x="526" y="590" on="0"/>
        <pt x="456" y="616" on="0"/>
        <pt x="357" y="616" on="1"/>
        <pt x="258" y="616" on="0"/>
        <pt x="188" y="590" on="0"/>
        <pt x="167" y="487" on="0"/>
        <pt x="167" y="344" on="1"/>
        <pt x="167" y="201" on="0"/>
        <pt x="188" y="98" on="0"/>
        <pt x="258" y="71" on="0"/>
        <pt x="357" y="71" on="1"/>
      </contour>
    </TTGlyph>
    <TTGlyph name="Ohungarumlaut" xMin="75" yMin="-8" xMax="640" yMax="881">
      <component glyphName=".ttfautohint" x="75" y="0" flags="0x0"/>
      <component glyphName="O" x="0" y="0" flags="0x0"/>
      <component glyphName="uni030B.case" x="617" y="0" flags="0x0"/>
    </TTGlyph>
    <TTGlyph name="Omacron" xMin="75" yMin="-8" xMax="640" yMax="885">
      <component glyphName=".ttfautohint" x="75" y="0" flags="0x0"/>
      <component glyphName="O" x="0" y="0" flags="0x0"/>
      <component glyphName="uni0304.case" x="538" y="0" flags="0x0"/>
    </TTGlyph>
    <TTGlyph name="Oslash" xMin="75" yMin="-55" xMax="640" yMax="743">
      <contour>
        <pt x="619" y="615" on="0"/>
        <pt x="640" y="483" on="0"/>
        <pt x="640" y="344" on="1"/>
        <pt x="640" y="181" on="0"/>
        <pt x="609" y="46" on="0"/>
        <pt x="494" y="-8" on="0"/>
        <pt x="357" y="-8" on="1"/>
        <pt x="245" y="-8" on="0"/>
        <pt x="192" y="8" on="1"/>
        <pt x="154" y="-55" on="1"/>
        <pt x="75" y="-55" on="1"/>
        <pt x="132" y="39" on="1"/>
        <pt x="95" y="72" on="0"/>
        <pt x="75" y="203" on="0"/>
        <pt x="75" y="344" on="1"/>
        <pt x="75" y="507" on="0"/>
        <pt x="106" y="642" on="0"/>
        <pt x="220" y="696" on="0"/>
        <pt x="357" y="696" on="1"/>
        <pt x="463" y="696" on="0"/>
        <pt x="521" y="680" on="1"/>
        <pt x="559" y="743" on="1"/>
        <pt x="639" y="743" on="1"/>
        <pt x="582" y="648" on="1"/>
      </contour>
      <contour>
        <pt x="167" y="250" on="0"/>
        <pt x="174" y="153" on="0"/>
        <pt x="185" y="126" on="1"/>
        <pt x="477" y="608" on="1"/>
        <pt x="459" y="613" on="0"/>
        <pt x="407" y="616" on="0"/>
        <pt x="357" y="616" on="1"/>
        <pt x="258" y="616" on="0"/>
        <pt x="188" y="590" on="0"/>
        <pt x="167" y="487" on="0"/>
        <pt x="167" y="344" on="1"/>
      </contour>
      <contour>
        <pt x="455" y="71" on="0"/>
        <pt x="526" y="98" on="0"/>
        <pt x="547" y="201" on="0"/>
        <pt x="547" y="344" on="1"/>
        <pt x="547" y="438" on="0"/>
        <pt x="540" y="535" on="0"/>
        <pt x="529" y="562" on="1"/>
        <pt x="236" y="80" on="1"/>
        <pt x="255" y="74" on="0"/>
        <pt x="310" y="71" on="0"/>
        <pt x="357" y="71" on="1"/>
      </contour>
    </TTGlyph>
    <TTGlyph name="Oslashacute" xMin="75" yMin="-55" xMax="640" yMax="886">
      <component glyphName=".ttfautohint" x="75" y="0" flags="0x0"/>
      <component glyphName="Oslash" x="0" y="0" flags="0x0"/>
      <component glyphName="acutecomb.case" x="533" y="0" flags="0x0"/>
    </TTGlyph>
    <TTGlyph name="Otilde" xMin="75" yMin="-8" xMax="640" yMax="877">
      <component glyphName=".ttfautohint" x="75" y="0" flags="0x0"/>
      <component glyphName="O" x="0" y="0" flags="0x0"/>
      <component glyphName="tilde" x="156" y="134" flags="0x4"/>
    </TTGlyph>
    <TTGlyph name="P" xMin="98" yMin="0" xMax="599" yMax="688">
      <contour>
        <pt x="98" y="688" on="1"/>
        <pt x="400" y="688" on="1"/>
        <pt x="483" y="688" on="0"/>
        <pt x="570" y="634" on="0"/>
        <pt x="599" y="541" on="0"/>
        <pt x="599" y="469" on="1"/>
        <pt x="599" y="400" on="0"/>
        <pt x="570" y="307" on="0"/>
        <pt x="482" y="251" on="0"/>
        <pt x="398" y="251" on="1"/>
        <pt x="190" y="251" on="1"/>
        <pt x="190" y="0" on="1"/>
        <pt x="98" y="0" on="1"/>
      </contour>
      <contour>
        <pt x="366" y="330" on="1"/>
        <pt x="430" y="330" on="0"/>
        <pt x="489" y="357" on="0"/>
        <pt x="506" y="413" on="0"/>
        <pt x="506" y="469" on="1"/>
        <pt x="506" y="525" on="0"/>
        <pt x="490" y="581" on="0"/>
        <pt x="432" y="608" on="0"/>
        <pt x="368" y="608" on="1"/>
        <pt x="190" y="608" on="1"/>
        <pt x="190" y="330" on="1"/>
      </contour>
    </TTGlyph>
    <TTGlyph name="Q" xMin="75" yMin="-115" xMax="659" yMax="696">
      <contour>
        <pt x="659" y="-113" on="1"/>
        <pt x="659" y="-115" on="1"/>
        <pt x="554" y="-115" on="1"/>
        <pt x="473" y="-2" on="1"/>
        <pt x="425" y="-8" on="0"/>
        <pt x="357" y="-8" on="1"/>
        <pt x="220" y="-8" on="0"/>
        <pt x="106" y="46" on="0"/>
        <pt x="75" y="181" on="0"/>
        <pt x="75" y="344" on="1"/>
        <pt x="75" y="507" on="0"/>
        <pt x="106" y="642" on="0"/>
        <pt x="220" y="696" on="0"/>
        <pt x="357" y="696" on="1"/>
        <pt x="494" y="696" on="0"/>
        <pt x="609" y="642" on="0"/>
        <pt x="640" y="507" on="0"/>
        <pt x="640" y="344" on="1"/>
        <pt x="640" y="237" on="0"/>
        <pt x="630" y="120" on="0"/>
        <pt x="595" y="43" on="0"/>
        <pt x="559" y="23" on="1"/>
      </contour>
      <contour>
        <pt x="402" y="71" on="0"/>
        <pt x="420" y="72" on="1"/>
        <pt x="316" y="218" on="1"/>
        <pt x="415" y="218" on="1"/>
        <pt x="508" y="91" on="1"/>
        <pt x="526" y="105" on="0"/>
        <pt x="542" y="162" on="0"/>
        <pt x="547" y="255" on="0"/>
        <pt x="547" y="344" on="1"/>
        <pt x="547" y="486" on="0"/>
        <pt x="526" y="590" on="0"/>
        <pt x="456" y="616" on="0"/>
        <pt x="357" y="616" on="1"/>
        <pt x="258" y="616" on="0"/>
        <pt x="188" y="590" on="0"/>
        <pt x="167" y="487" on="0"/>
        <pt x="167" y="344" on="1"/>
        <pt x="167" y="201" on="0"/>
        <pt x="188" y="98" on="0"/>
        <pt x="258" y="71" on="0"/>
        <pt x="357" y="71" on="1"/>
      </contour>
    </TTGlyph>
    <TTGlyph name="R" xMin="98" yMin="0" xMax="617" yMax="688">
      <contour>
        <pt x="519" y="0" on="1"/>
        <pt x="412" y="271" on="1"/>
        <pt x="400" y="271" on="1"/>
        <pt x="190" y="271" on="1"/>
        <pt x="190" y="0" on="1"/>
        <pt x="98" y="0" on="1"/>
        <pt x="98" y="688" on="1"/>
        <pt x="414" y="688" on="1"/>
        <pt x="497" y="688" on="0"/>
        <pt x="581" y="635" on="0"/>
        <pt x="607" y="548" on="0"/>
        <pt x="607" y="479" on="1"/>
        <pt x="607" y="407" on="0"/>
        <pt x="566" y="303" on="0"/>
        <pt x="502" y="284" on="1"/>
        <pt x="617" y="0" on="1"/>
      </contour>
      <contour>
        <pt x="438" y="350" on="0"/>
        <pt x="498" y="377" on="0"/>
        <pt x="515" y="429" on="0"/>
        <pt x="515" y="479" on="1"/>
        <pt x="515" y="530" on="0"/>
        <pt x="499" y="582" on="0"/>
        <pt x="443" y="608" on="0"/>
        <pt x="382" y="608" on="1"/>
        <pt x="190" y="608" on="1"/>
        <pt x="190" y="350" on="1"/>
        <pt x="375" y="350" on="1"/>
      </contour>
    </TTGlyph>
    <TTGlyph name="R.ss01" xMin="98" yMin="0" xMax="612" yMax="688">
      <contour>
        <pt x="612" y="0" on="1"/>
        <pt x="521" y="0" on="1"/>
        <pt x="510" y="152" on="1"/>
        <pt x="507" y="196" on="0"/>
        <pt x="492" y="242" on="0"/>
        <pt x="440" y="273" on="0"/>
        <pt x="384" y="273" on="1"/>
        <pt x="190" y="273" on="1"/>
        <pt x="190" y="0" on="1"/>
        <pt x="98" y="0" on="1"/>
        <pt x="98" y="688" on="1"/>
        <pt x="421" y="688" on="1"/>
        <pt x="525" y="688" on="0"/>
        <pt x="608" y="597" on="0"/>
        <pt x="608" y="500" on="1"/>
        <pt x="608" y="413" on="0"/>
        <pt x="551" y="333" on="0"/>
        <pt x="490" y="319" on="1"/>
        <pt x="490" y="315" on="1"/>
        <pt x="528" y="307" on="0"/>
        <pt x="572" y="279" on="0"/>
        <pt x="598" y="222" on="0"/>
        <pt x="601" y="171" on="1"/>
      </contour>
      <contour>
        <pt x="436" y="353" on="0"/>
        <pt x="494" y="381" on="0"/>
        <pt x="514" y="435" on="0"/>
        <pt x="514" y="480" on="1"/>
        <pt x="514" y="530" on="0"/>
        <pt x="499" y="581" on="0"/>
        <pt x="445" y="608" on="0"/>
        <pt x="386" y="608" on="1"/>
        <pt x="190" y="608" on="1"/>
        <pt x="190" y="353" on="1"/>
        <pt x="381" y="353" on="1"/>
      </contour>
    </TTGlyph>
    <TTGlyph name="Racute" xMin="98" yMin="0" xMax="617" yMax="886">
      <component glyphName=".ttfautohint" x="98" y="0" flags="0x0"/>
      <component glyphName="R" x="0" y="0" flags="0x0"/>
      <component glyphName="acutecomb.case" x="516" y="0" flags="0x0"/>
    </TTGlyph>
    <TTGlyph name="Racute.ss01" xMin="98" yMin="0" xMax="612" yMax="886">
      <component glyphName=".ttfautohint" x="98" y="0" flags="0x0"/>
      <component glyphName="R.ss01" x="0" y="0" flags="0x0"/>
      <component glyphName="acutecomb.case" x="518" y="0" flags="0x0"/>
    </TTGlyph>
    <TTGlyph name="Rcaron" xMin="98" yMin="0" xMax="617" yMax="886">
      <component glyphName=".ttfautohint" x="98" y="0" flags="0x0"/>
      <component glyphName="R" x="0" y="0" flags="0x0"/>
      <component glyphName="uni030C.case" x="507" y="0" flags="0x0"/>
    </TTGlyph>
    <TTGlyph name="Rcaron.ss01" xMin="98" yMin="0" xMax="612" yMax="886">
      <component glyphName=".ttfautohint" x="98" y="0" flags="0x0"/>
      <component glyphName="R.ss01" x="0" y="0" flags="0x0"/>
      <component glyphName="uni030C.case" x="509" y="0" flags="0x0"/>
    </TTGlyph>
    <TTGlyph name="Rcommaaccent" xMin="98" yMin="-265" xMax="617" yMax="688">
      <component glyphName=".ttfautohint" x="98" y="0" flags="0x0"/>
      <component glyphName="R" x="0" y="0" flags="0x0"/>
      <component glyphName="uni0326" x="462" y="0" flags="0x0"/>
    </TTGlyph>
    <TTGlyph name="Rcommaaccent.ss01" xMin="98" yMin="-265" xMax="612" yMax="688">
      <component glyphName=".ttfautohint" x="98" y="0" flags="0x0"/>
      <component glyphName="R.ss01" x="0" y="0" flags="0x0"/>
      <component glyphName="uni0326" x="464" y="0" flags="0x0"/>
    </TTGlyph>
    <TTGlyph name="S" xMin="65" yMin="-8" xMax="561" yMax="696">
      <contour>
        <pt x="272" y="-8" on="0"/>
        <pt x="137" y="0" on="0"/>
        <pt x="85" y="6" on="1"/>
        <pt x="85" y="84" on="1"/>
        <pt x="217" y="71" on="0"/>
        <pt x="300" y="71" on="1"/>
        <pt x="354" y="71" on="0"/>
        <pt x="417" y="81" on="0"/>
        <pt x="437" y="93" on="1"/>
        <pt x="456" y="105" on="0"/>
        <pt x="468" y="151" on="0"/>
        <pt x="468" y="191" on="1"/>
        <pt x="468" y="239" on="0"/>
        <pt x="458" y="278" on="0"/>
        <pt x="423" y="295" on="0"/>
        <pt x="380" y="300" on="1"/>
        <pt x="212" y="319" on="1"/>
        <pt x="150" y="326" on="0"/>
        <pt x="87" y="371" on="0"/>
        <pt x="65" y="444" on="0"/>
        <pt x="65" y="502" on="1"/>
        <pt x="65" y="583" on="0"/>
        <pt x="123" y="668" on="0"/>
        <pt x="227" y="696" on="0"/>
        <pt x="313" y="696" on="1"/>
        <pt x="370" y="696" on="0"/>
        <pt x="490" y="686" on="0"/>
        <pt x="526" y="679" on="1"/>
        <pt x="526" y="604" on="1"/>
        <pt x="487" y="609" on="0"/>
        <pt x="377" y="616" on="0"/>
        <pt x="330" y="616" on="1"/>
        <pt x="275" y="616" on="0"/>
        <pt x="208" y="606" on="0"/>
        <pt x="189" y="594" on="1"/>
        <pt x="170" y="582" on="0"/>
        <pt x="158" y="541" on="0"/>
        <pt x="158" y="505" on="1"/>
        <pt x="158" y="464" on="0"/>
        <pt x="169" y="426" on="0"/>
        <pt x="203" y="409" on="0"/>
        <pt x="240" y="405" on="1"/>
        <pt x="406" y="387" on="1"/>
        <pt x="466" y="380" on="0"/>
        <pt x="530" y="351" on="0"/>
        <pt x="545" y="312" on="1"/>
        <pt x="561" y="273" on="0"/>
        <pt x="561" y="197" on="1"/>
        <pt x="561" y="107" on="0"/>
        <pt x="505" y="18" on="0"/>
        <pt x="409" y="-8" on="0"/>
        <pt x="328" y="-8" on="1"/>
      </contour>
    </TTGlyph>
    <TTGlyph name="Sacute" xMin="65" yMin="-8" xMax="561" yMax="886">
      <component glyphName=".ttfautohint" x="65" y="0" flags="0x0"/>
      <component glyphName="S" x="0" y="0" flags="0x0"/>
      <component glyphName="acutecomb.case" x="489" y="0" flags="0x0"/>
    </TTGlyph>
    <TTGlyph name="Sacute.loclPLK" xMin="65" yMin="-8" xMax="561" yMax="886">
      <component glyphName=".ttfautohint" x="65" y="0" flags="0x0"/>
      <component glyphName="S" x="0" y="0" flags="0x0"/>
      <component glyphName="acute.case.loclPLK" x="256" y="0" flags="0x0"/>
    </TTGlyph>
    <TTGlyph name="Scaron" xMin="65" yMin="-8" xMax="561" yMax="892">
      <component glyphName=".ttfautohint" x="65" y="0" flags="0x0"/>
      <component glyphName="S" x="0" y="0" flags="0x0"/>
      <component glyphName="caron" x="155" y="149" flags="0x4"/>
    </TTGlyph>
    <TTGlyph name="Scedilla" xMin="65" yMin="-190" xMax="560" yMax="695">
      <contour>
        <pt x="560" y="110" on="0"/>
        <pt x="508" y="21" on="0"/>
        <pt x="417" y="-7" on="0"/>
        <pt x="342" y="-8" on="1"/>
        <pt x="304" y="-190" on="1"/>
        <pt x="218" y="-190" on="1"/>
        <pt x="218" y="-185" on="1"/>
        <pt x="279" y="-7" on="1"/>
        <pt x="173" y="-4" on="0"/>
        <pt x="85" y="6" on="1"/>
        <pt x="85" y="84" on="1"/>
        <pt x="215" y="71" on="0"/>
        <pt x="300" y="71" on="1"/>
        <pt x="354" y="71" on="0"/>
        <pt x="416" y="81" on="0"/>
        <pt x="436" y="93" on="1"/>
        <pt x="456" y="105" on="0"/>
        <pt x="467" y="150" on="0"/>
        <pt x="467" y="191" on="1"/>
        <pt x="467" y="239" on="0"/>
        <pt x="457" y="278" on="0"/>
        <pt x="423" y="295" on="0"/>
        <pt x="380" y="300" on="1"/>
        <pt x="212" y="319" on="1"/>
        <pt x="150" y="326" on="0"/>
        <pt x="87" y="371" on="0"/>
        <pt x="65" y="444" on="0"/>
        <pt x="65" y="502" on="1"/>
        <pt x="65" y="583" on="0"/>
        <pt x="122" y="667" on="0"/>
        <pt x="226" y="695" on="0"/>
        <pt x="312" y="695" on="1"/>
        <pt x="369" y="695" on="0"/>
        <pt x="489" y="686" on="0"/>
        <pt x="526" y="679" on="1"/>
        <pt x="526" y="603" on="1"/>
        <pt x="488" y="609" on="0"/>
        <pt x="377" y="616" on="0"/>
        <pt x="329" y="616" on="1"/>
        <pt x="274" y="616" on="0"/>
        <pt x="208" y="606" on="0"/>
        <pt x="189" y="594" on="1"/>
        <pt x="170" y="582" on="0"/>
        <pt x="158" y="541" on="0"/>
        <pt x="158" y="504" on="1"/>
        <pt x="158" y="463" on="0"/>
        <pt x="169" y="426" on="0"/>
        <pt x="202" y="409" on="0"/>
        <pt x="240" y="405" on="1"/>
        <pt x="406" y="386" on="1"/>
        <pt x="465" y="380" on="0"/>
        <pt x="530" y="351" on="0"/>
        <pt x="545" y="312" on="1"/>
        <pt x="560" y="275" on="0"/>
        <pt x="560" y="197" on="1"/>
      </contour>
    </TTGlyph>
    <TTGlyph name="Scircumflex" xMin="65" yMin="-8" xMax="561" yMax="886">
      <component glyphName=".ttfautohint" x="65" y="0" flags="0x0"/>
      <component glyphName="S" x="0" y="0" flags="0x0"/>
      <component glyphName="uni0302.case" x="480" y="0" flags="0x0"/>
    </TTGlyph>
    <TTGlyph name="Scommaaccent" xMin="65" yMin="-265" xMax="561" yMax="696">
      <component glyphName=".ttfautohint" x="65" y="0" flags="0x0"/>
      <component glyphName="S" x="0" y="0" flags="0x0"/>
      <component glyphName="uni0326" x="435" y="0" flags="0x0"/>
    </TTGlyph>
    <TTGlyph name="T" xMin="29" yMin="0" xMax="551" yMax="688">
      <contour>
        <pt x="244" y="606" on="1"/>
        <pt x="29" y="606" on="1"/>
        <pt x="29" y="688" on="1"/>
        <pt x="551" y="688" on="1"/>
        <pt x="551" y="606" on="1"/>
        <pt x="336" y="606" on="1"/>
        <pt x="336" y="0" on="1"/>
        <pt x="244" y="0" on="1"/>
      </contour>
    </TTGlyph>
    <TTGlyph name="Tbar" xMin="29" yMin="0" xMax="550" yMax="687">
      <contour>
        <pt x="336" y="606" on="1"/>
        <pt x="336" y="375" on="1"/>
        <pt x="527" y="375" on="1"/>
        <pt x="527" y="302" on="1"/>
        <pt x="336" y="302" on="1"/>
        <pt x="336" y="0" on="1"/>
        <pt x="244" y="0" on="1"/>
        <pt x="244" y="302" on="1"/>
        <pt x="53" y="302" on="1"/>
        <pt x="53" y="375" on="1"/>
        <pt x="244" y="375" on="1"/>
        <pt x="244" y="606" on="1"/>
        <pt x="29" y="606" on="1"/>
        <pt x="29" y="687" on="1"/>
        <pt x="550" y="687" on="1"/>
        <pt x="550" y="606" on="1"/>
      </contour>
    </TTGlyph>
    <TTGlyph name="Tcaron" xMin="29" yMin="0" xMax="551" yMax="886">
      <component glyphName=".ttfautohint" x="29" y="0" flags="0x0"/>
      <component glyphName="T" x="0" y="0" flags="0x0"/>
      <component glyphName="uni030C.case" x="457" y="0" flags="0x0"/>
    </TTGlyph>
    <TTGlyph name="Thorn" xMin="98" yMin="0" xMax="599" yMax="688">
      <contour>
        <pt x="98" y="688" on="1"/>
        <pt x="190" y="688" on="1"/>
        <pt x="190" y="569" on="1"/>
        <pt x="400" y="569" on="1"/>
        <pt x="483" y="569" on="0"/>
        <pt x="570" y="515" on="0"/>
        <pt x="599" y="422" on="0"/>
        <pt x="599" y="350" on="1"/>
        <pt x="599" y="281" on="0"/>
        <pt x="570" y="188" on="0"/>
        <pt x="482" y="132" on="0"/>
        <pt x="398" y="132" on="1"/>
        <pt x="190" y="132" on="1"/>
        <pt x="190" y="0" on="1"/>
        <pt x="98" y="0" on="1"/>
      </contour>
      <contour>
        <pt x="366" y="211" on="1"/>
        <pt x="430" y="211" on="0"/>
        <pt x="489" y="238" on="0"/>
        <pt x="506" y="294" on="0"/>
        <pt x="506" y="350" on="1"/>
        <pt x="506" y="406" on="0"/>
        <pt x="490" y="462" on="0"/>
        <pt x="432" y="490" on="0"/>
        <pt x="368" y="490" on="1"/>
        <pt x="190" y="490" on="1"/>
        <pt x="190" y="211" on="1"/>
      </contour>
    </TTGlyph>
    <TTGlyph name="U" xMin="90" yMin="-8" xMax="616" yMax="688">
      <contour>
        <pt x="616" y="688" on="1"/>
        <pt x="616" y="301" on="1"/>
        <pt x="616" y="166" on="0"/>
        <pt x="582" y="42" on="0"/>
        <pt x="473" y="-8" on="0"/>
        <pt x="353" y="-8" on="1"/>
        <pt x="233" y="-8" on="0"/>
        <pt x="125" y="43" on="0"/>
        <pt x="90" y="167" on="0"/>
        <pt x="90" y="301" on="1"/>
        <pt x="90" y="688" on="1"/>
        <pt x="182" y="688" on="1"/>
        <pt x="182" y="267" on="1"/>
        <pt x="182" y="177" on="0"/>
        <pt x="201" y="101" on="0"/>
        <pt x="271" y="71" on="0"/>
        <pt x="353" y="71" on="1"/>
        <pt x="436" y="71" on="0"/>
        <pt x="505" y="101" on="0"/>
        <pt x="524" y="176" on="0"/>
        <pt x="524" y="267" on="1"/>
        <pt x="524" y="688" on="1"/>
      </contour>
    </TTGlyph>
    <TTGlyph name="Uacute" xMin="90" yMin="-8" xMax="616" yMax="891">
      <component glyphName=".ttfautohint" x="90" y="0" flags="0x0"/>
      <component glyphName="U" x="0" y="0" flags="0x0"/>
      <component glyphName="acute" x="295" y="148" flags="0x4"/>
    </TTGlyph>
    <TTGlyph name="Ubreve" xMin="90" yMin="-8" xMax="616" yMax="886">
      <component glyphName=".ttfautohint" x="90" y="0" flags="0x0"/>
      <component glyphName="U" x="0" y="0" flags="0x0"/>
      <component glyphName="uni0306.case" x="511" y="0" flags="0x0"/>
    </TTGlyph>
    <TTGlyph name="Ucircumflex" xMin="90" yMin="-8" xMax="616" yMax="892">
      <component glyphName=".ttfautohint" x="90" y="0" flags="0x0"/>
      <component glyphName="U" x="0" y="0" flags="0x0"/>
      <component glyphName="circumflex" x="189" y="149" flags="0x4"/>
    </TTGlyph>
    <TTGlyph name="Udieresis" xMin="90" yMin="-8" xMax="616" yMax="858">
      <component glyphName=".ttfautohint" x="90" y="0" flags="0x0"/>
      <component glyphName="U" x="0" y="0" flags="0x0"/>
      <component glyphName="dieresis" x="198" y="128" flags="0x4"/>
    </TTGlyph>
    <TTGlyph name="Ugrave" xMin="90" yMin="-8" xMax="616" yMax="891">
      <component glyphName=".ttfautohint" x="90" y="0" flags="0x0"/>
      <component glyphName="U" x="0" y="0" flags="0x0"/>
      <component glyphName="grave" x="195" y="148" flags="0x4"/>
    </TTGlyph>
    <TTGlyph name="Uhorn" xMin="89" yMin="-8" xMax="720" yMax="782">
      <contour>
        <pt x="720" y="782" on="1"/>
        <pt x="720" y="758" on="1"/>
        <pt x="720" y="714" on="0"/>
        <pt x="704" y="668" on="0"/>
        <pt x="660" y="648" on="0"/>
        <pt x="615" y="647" on="1"/>
        <pt x="615" y="301" on="1"/>
        <pt x="615" y="167" on="0"/>
        <pt x="581" y="42" on="0"/>
        <pt x="473" y="-8" on="0"/>
        <pt x="353" y="-8" on="1"/>
        <pt x="233" y="-8" on="0"/>
        <pt x="124" y="43" on="0"/>
        <pt x="89" y="167" on="0"/>
        <pt x="89" y="301" on="1"/>
        <pt x="89" y="687" on="1"/>
        <pt x="182" y="687" on="1"/>
        <pt x="182" y="267" on="1"/>
        <pt x="182" y="176" on="0"/>
        <pt x="201" y="101" on="0"/>
        <pt x="270" y="71" on="0"/>
        <pt x="353" y="71" on="1"/>
        <pt x="436" y="71" on="0"/>
        <pt x="505" y="100" on="0"/>
        <pt x="523" y="176" on="0"/>
        <pt x="523" y="267" on="1"/>
        <pt x="523" y="687" on="1"/>
        <pt x="601" y="687" on="1"/>
        <pt x="627" y="687" on="0"/>
        <pt x="650" y="698" on="0"/>
        <pt x="658" y="723" on="0"/>
        <pt x="658" y="750" on="1"/>
        <pt x="658" y="782" on="1"/>
      </contour>
    </TTGlyph>
    <TTGlyph name="Uhungarumlaut" xMin="90" yMin="-8" xMax="616" yMax="881">
      <component glyphName=".ttfautohint" x="90" y="0" flags="0x0"/>
      <component glyphName="U" x="0" y="0" flags="0x0"/>
      <component glyphName="uni030B.case" x="613" y="0" flags="0x0"/>
    </TTGlyph>
    <TTGlyph name="Umacron" xMin="90" yMin="-8" xMax="616" yMax="885">
      <component glyphName=".ttfautohint" x="90" y="0" flags="0x0"/>
      <component glyphName="U" x="0" y="0" flags="0x0"/>
      <component glyphName="uni0304.case" x="534" y="0" flags="0x0"/>
    </TTGlyph>
    <TTGlyph name="Uogonek" xMin="90" yMin="-196" xMax="616" yMax="688">
      <contour>
        <pt x="616" y="688" on="1"/>
        <pt x="616" y="301" on="1"/>
        <pt x="616" y="214" on="0"/>
        <pt x="604" y="109" on="0"/>
        <pt x="569" y="40" on="0"/>
        <pt x="535" y="21" on="1"/>
        <pt x="500" y="2" on="0"/>
        <pt x="450" y="-61" on="0"/>
        <pt x="450" y="-100" on="1"/>
        <pt x="450" y="-139" on="0"/>
        <pt x="497" y="-139" on="1"/>
        <pt x="507" y="-139" on="0"/>
        <pt x="514" y="-138" on="1"/>
        <pt x="514" y="-194" on="1"/>
        <pt x="476" y="-196" on="0"/>
        <pt x="472" y="-196" on="1"/>
        <pt x="374" y="-196" on="0"/>
        <pt x="374" y="-118" on="1"/>
        <pt x="374" y="-91" on="0"/>
        <pt x="404" y="-32" on="0"/>
        <pt x="431" y="-4" on="1"/>
        <pt x="402" y="-8" on="0"/>
        <pt x="353" y="-8" on="1"/>
        <pt x="233" y="-8" on="0"/>
        <pt x="125" y="43" on="0"/>
        <pt x="90" y="167" on="0"/>
        <pt x="90" y="301" on="1"/>
        <pt x="90" y="688" on="1"/>
        <pt x="182" y="688" on="1"/>
        <pt x="182" y="267" on="1"/>
        <pt x="182" y="177" on="0"/>
        <pt x="201" y="101" on="0"/>
        <pt x="271" y="71" on="0"/>
        <pt x="353" y="71" on="1"/>
        <pt x="436" y="71" on="0"/>
        <pt x="505" y="101" on="0"/>
        <pt x="524" y="176" on="0"/>
        <pt x="524" y="267" on="1"/>
        <pt x="524" y="688" on="1"/>
      </contour>
    </TTGlyph>
    <TTGlyph name="Uring" xMin="90" yMin="-8" xMax="616" yMax="928">
      <component glyphName=".ttfautohint" x="90" y="0" flags="0x0"/>
      <component glyphName="U" x="0" y="0" flags="0x0"/>
      <component glyphName="uni030A.case" x="505" y="0" flags="0x0"/>
    </TTGlyph>
    <TTGlyph name="Utilde" xMin="90" yMin="-8" xMax="616" yMax="887">
      <component glyphName=".ttfautohint" x="90" y="0" flags="0x0"/>
      <component glyphName="U" x="0" y="0" flags="0x0"/>
      <component glyphName="tildecomb.case" x="555" y="0" flags="0x0"/>
    </TTGlyph>
    <TTGlyph name="V" xMin="28" yMin="0" xMax="634" yMax="688">
      <contour>
        <pt x="28" y="688" on="1"/>
        <pt x="124" y="688" on="1"/>
        <pt x="330" y="105" on="1"/>
        <pt x="335" y="105" on="1"/>
        <pt x="540" y="688" on="1"/>
        <pt x="634" y="688" on="1"/>
        <pt x="389" y="0" on="1"/>
        <pt x="272" y="0" on="1"/>
      </contour>
    </TTGlyph>
    <TTGlyph name="W" xMin="34" yMin="0" xMax="952" yMax="688">
      <contour>
        <pt x="495" y="547" on="1"/>
        <pt x="491" y="547" on="1"/>
        <pt x="330" y="0" on="1"/>
        <pt x="219" y="0" on="1"/>
        <pt x="34" y="688" on="1"/>
        <pt x="129" y="688" on="1"/>
        <pt x="278" y="118" on="1"/>
        <pt x="283" y="118" on="1"/>
        <pt x="447" y="688" on="1"/>
        <pt x="544" y="688" on="1"/>
        <pt x="709" y="118" on="1"/>
        <pt x="714" y="118" on="1"/>
        <pt x="859" y="688" on="1"/>
        <pt x="952" y="688" on="1"/>
        <pt x="767" y="0" on="1"/>
        <pt x="656" y="0" on="1"/>
      </contour>
    </TTGlyph>
    <TTGlyph name="Wacute" xMin="34" yMin="0" xMax="951" yMax="886">
      <component glyphName=".ttfautohint" x="34" y="0" flags="0x0"/>
      <component glyphName="W" x="0" y="0" flags="0x0"/>
      <component glyphName="acutecomb.case" x="668" y="0" flags="0x0"/>
    </TTGlyph>
    <TTGlyph name="Wcircumflex" xMin="34" yMin="0" xMax="951" yMax="886">
      <component glyphName=".ttfautohint" x="34" y="0" flags="0x0"/>
      <component glyphName="W" x="0" y="0" flags="0x0"/>
      <component glyphName="uni0302.case" x="659" y="0" flags="0x0"/>
    </TTGlyph>
    <TTGlyph name="Wdieresis" xMin="34" yMin="0" xMax="951" yMax="873">
      <component glyphName=".ttfautohint" x="34" y="0" flags="0x0"/>
      <component glyphName="W" x="0" y="0" flags="0x0"/>
      <component glyphName="uni0308.case" x="647" y="0" flags="0x0"/>
    </TTGlyph>
    <TTGlyph name="Wgrave" xMin="34" yMin="0" xMax="951" yMax="886">
      <component glyphName=".ttfautohint" x="34" y="0" flags="0x0"/>
      <component glyphName="W" x="0" y="0" flags="0x0"/>
      <component glyphName="gravecomb.case" x="552" y="0" flags="0x0"/>
    </TTGlyph>
    <TTGlyph name="X" xMin="28" yMin="0" xMax="646" yMax="688">
      <contour>
        <pt x="339" y="271" on="1"/>
        <pt x="331" y="271" on="1"/>
        <pt x="133" y="0" on="1"/>
        <pt x="28" y="0" on="1"/>
        <pt x="281" y="345" on="1"/>
        <pt x="32" y="688" on="1"/>
        <pt x="140" y="688" on="1"/>
        <pt x="335" y="422" on="1"/>
        <pt x="342" y="422" on="1"/>
        <pt x="537" y="688" on="1"/>
        <pt x="643" y="688" on="1"/>
        <pt x="393" y="347" on="1"/>
        <pt x="646" y="0" on="1"/>
        <pt x="537" y="0" on="1"/>
      </contour>
    </TTGlyph>
    <TTGlyph name="Y" xMin="11" yMin="0" xMax="598" yMax="688">
      <contour>
        <pt x="258" y="260" on="1"/>
        <pt x="11" y="688" on="1"/>
        <pt x="110" y="688" on="1"/>
        <pt x="303" y="353" on="1"/>
        <pt x="310" y="353" on="1"/>
        <pt x="502" y="688" on="1"/>
        <pt x="598" y="688" on="1"/>
        <pt x="350" y="260" on="1"/>
        <pt x="350" y="0" on="1"/>
        <pt x="258" y="0" on="1"/>
      </contour>
    </TTGlyph>
    <TTGlyph name="Y.loclGUA" xMin="42" yMin="0" xMax="568" yMax="688">
      <contour>
        <pt x="568" y="688" on="1"/>
        <pt x="568" y="505" on="1"/>
        <pt x="568" y="379" on="0"/>
        <pt x="539" y="257" on="0"/>
        <pt x="448" y="201" on="0"/>
        <pt x="350" y="197" on="1"/>
        <pt x="350" y="0" on="1"/>
        <pt x="258" y="0" on="1"/>
        <pt x="258" y="197" on="1"/>
        <pt x="161" y="201" on="0"/>
        <pt x="71" y="257" on="0"/>
        <pt x="42" y="380" on="0"/>
        <pt x="42" y="505" on="1"/>
        <pt x="42" y="688" on="1"/>
        <pt x="134" y="688" on="1"/>
        <pt x="134" y="471" on="1"/>
        <pt x="134" y="380" on="0"/>
        <pt x="153" y="305" on="0"/>
        <pt x="222" y="275" on="0"/>
        <pt x="305" y="275" on="1"/>
        <pt x="388" y="275" on="0"/>
        <pt x="457" y="305" on="0"/>
        <pt x="476" y="380" on="0"/>
        <pt x="476" y="471" on="1"/>
        <pt x="476" y="688" on="1"/>
      </contour>
    </TTGlyph>
    <TTGlyph name="Yacute" xMin="11" yMin="0" xMax="598" yMax="891">
      <component glyphName=".ttfautohint" x="11" y="0" flags="0x0"/>
      <component glyphName="Y" x="0" y="0" flags="0x0"/>
      <component glyphName="acute" x="254" y="148" flags="0x4"/>
    </TTGlyph>
    <TTGlyph name="Yacute.loclGUA" xMin="42" yMin="0" xMax="568" yMax="886">
      <component glyphName=".ttfautohint" x="42" y="0" flags="0x0"/>
      <component glyphName="Y.loclGUA" x="0" y="0" flags="0x0"/>
      <component glyphName="acutecomb.case" x="480" y="0" flags="0x0"/>
    </TTGlyph>
    <TTGlyph name="Ycircumflex" xMin="11" yMin="0" xMax="598" yMax="886">
      <component glyphName=".ttfautohint" x="11" y="0" flags="0x0"/>
      <component glyphName="Y" x="0" y="0" flags="0x0"/>
      <component glyphName="uni0302.case" x="472" y="0" flags="0x0"/>
    </TTGlyph>
    <TTGlyph name="Ycircumflex.loclGUA" xMin="42" yMin="0" xMax="568" yMax="886">
      <component glyphName=".ttfautohint" x="42" y="0" flags="0x0"/>
      <component glyphName="Y.loclGUA" x="0" y="0" flags="0x0"/>
      <component glyphName="uni0302.case" x="471" y="0" flags="0x0"/>
    </TTGlyph>
    <TTGlyph name="Ydieresis" xMin="11" yMin="0" xMax="598" yMax="858">
      <component glyphName=".ttfautohint" x="11" y="0" flags="0x0"/>
      <component glyphName="Y" x="0" y="0" flags="0x0"/>
      <component glyphName="dieresis" x="154" y="128" flags="0x4"/>
    </TTGlyph>
    <TTGlyph name="Ydieresis.loclGUA" xMin="42" yMin="0" xMax="568" yMax="873">
      <component glyphName=".ttfautohint" x="42" y="0" flags="0x0"/>
      <component glyphName="Y.loclGUA" x="0" y="0" flags="0x0"/>
      <component glyphName="uni0308.case" x="458" y="0" flags="0x0"/>
    </TTGlyph>
    <TTGlyph name="Ygrave" xMin="11" yMin="0" xMax="598" yMax="886">
      <component glyphName=".ttfautohint" x="11" y="0" flags="0x0"/>
      <component glyphName="Y" x="0" y="0" flags="0x0"/>
      <component glyphName="gravecomb.case" x="364" y="0" flags="0x0"/>
    </TTGlyph>
    <TTGlyph name="Ygrave.loclGUA" xMin="42" yMin="0" xMax="568" yMax="886">
      <component glyphName=".ttfautohint" x="42" y="0" flags="0x0"/>
      <component glyphName="Y.loclGUA" x="0" y="0" flags="0x0"/>
      <component glyphName="gravecomb.case" x="364" y="0" flags="0x0"/>
    </TTGlyph>
    <TTGlyph name="Z" xMin="53" yMin="0" xMax="556" yMax="688">
      <contour>
        <pt x="53" y="75" on="1"/>
        <pt x="433" y="608" on="1"/>
        <pt x="64" y="608" on="1"/>
        <pt x="64" y="688" on="1"/>
        <pt x="551" y="688" on="1"/>
        <pt x="551" y="614" on="1"/>
        <pt x="168" y="79" on="1"/>
        <pt x="556" y="79" on="1"/>
        <pt x="556" y="0" on="1"/>
        <pt x="53" y="0" on="1"/>
      </contour>
    </TTGlyph>
    <TTGlyph name="Zacute" xMin="53" yMin="0" xMax="556" yMax="886">
      <component glyphName=".ttfautohint" x="53" y="0" flags="0x0"/>
      <component glyphName="Z" x="0" y="0" flags="0x0"/>
      <component glyphName="acutecomb.case" x="479" y="0" flags="0x0"/>
    </TTGlyph>
    <TTGlyph name="Zacute.loclPLK" xMin="53" yMin="0" xMax="556" yMax="886">
      <component glyphName=".ttfautohint" x="53" y="0" flags="0x0"/>
      <component glyphName="Z" x="0" y="0" flags="0x0"/>
      <component glyphName="acute.case.loclPLK" x="246" y="0" flags="0x0"/>
    </TTGlyph>
    <TTGlyph name="Zcaron" xMin="53" yMin="0" xMax="556" yMax="891">
      <component glyphName=".ttfautohint" x="53" y="0" flags="0x0"/>
      <component glyphName="Z" x="0" y="0" flags="0x0"/>
      <component glyphName="caron" x="144" y="148" flags="0x4"/>
    </TTGlyph>
    <TTGlyph name="Zdotaccent" xMin="53" yMin="0" xMax="556" yMax="873">
      <component glyphName=".ttfautohint" x="53" y="0" flags="0x0"/>
      <component glyphName="Z" x="0" y="0" flags="0x0"/>
      <component glyphName="uni0307.case" x="363" y="0" flags="0x0"/>
    </TTGlyph>
    <TTGlyph name="a" xMin="54" yMin="-8" xMax="483" yMax="518">
      <contour>
        <pt x="136" y="-8" on="0"/>
        <pt x="54" y="61" on="0"/>
        <pt x="54" y="139" on="1"/>
        <pt x="54" y="198" on="0"/>
        <pt x="84" y="268" on="0"/>
        <pt x="154" y="301" on="0"/>
        <pt x="215" y="301" on="1"/>
        <pt x="259" y="300" on="0"/>
        <pt x="373" y="297" on="0"/>
        <pt x="396" y="296" on="1"/>
        <pt x="396" y="320" on="1"/>
        <pt x="396" y="380" on="0"/>
        <pt x="374" y="429" on="0"/>
        <pt x="316" y="441" on="0"/>
        <pt x="242" y="441" on="1"/>
        <pt x="207" y="441" on="0"/>
        <pt x="108" y="435" on="0"/>
        <pt x="87" y="431" on="1"/>
        <pt x="87" y="504" on="1"/>
        <pt x="173" y="518" on="0"/>
        <pt x="273" y="518" on="1"/>
        <pt x="362" y="518" on="0"/>
        <pt x="451" y="478" on="0"/>
        <pt x="483" y="395" on="0"/>
        <pt x="483" y="319" on="1"/>
        <pt x="483" y="0" on="1"/>
        <pt x="406" y="0" on="1"/>
        <pt x="402" y="67" on="1"/>
        <pt x="396" y="67" on="1"/>
        <pt x="375" y="22" on="0"/>
        <pt x="278" y="-8" on="0"/>
        <pt x="217" y="-8" on="1"/>
      </contour>
      <contour>
        <pt x="295" y="69" on="0"/>
        <pt x="352" y="88" on="0"/>
        <pt x="370" y="113" on="1"/>
        <pt x="396" y="147" on="0"/>
        <pt x="396" y="214" on="1"/>
        <pt x="396" y="227" on="1"/>
        <pt x="232" y="227" on="1"/>
        <pt x="193" y="227" on="0"/>
        <pt x="156" y="215" on="0"/>
        <pt x="141" y="181" on="0"/>
        <pt x="141" y="146" on="1"/>
        <pt x="141" y="111" on="0"/>
        <pt x="158" y="80" on="0"/>
        <pt x="204" y="69" on="0"/>
        <pt x="254" y="69" on="1"/>
      </contour>
    </TTGlyph>
    <TTGlyph name="aacute" xMin="54" yMin="-8" xMax="483" yMax="743">
      <component glyphName=".ttfautohint" x="54" y="0" flags="0x0"/>
      <component glyphName="a" x="0" y="0" flags="0x0"/>
      <component glyphName="acute" x="218" y="0" flags="0x0"/>
    </TTGlyph>
    <TTGlyph name="abreve" xMin="54" yMin="-8" xMax="483" yMax="742">
      <component glyphName=".ttfautohint" x="54" y="0" flags="0x0"/>
      <component glyphName="a" x="0" y="0" flags="0x0"/>
      <component glyphName="uni0306" x="442" y="0" flags="0x0"/>
    </TTGlyph>
    <TTGlyph name="acircumflex" xMin="54" yMin="-8" xMax="483" yMax="743">
      <component glyphName=".ttfautohint" x="54" y="0" flags="0x0"/>
      <component glyphName="a" x="0" y="0" flags="0x0"/>
      <component glyphName="circumflex" x="120" y="0" flags="0x0"/>
    </TTGlyph>
    <TTGlyph name="acute" xMin="20" yMin="602" xMax="213" yMax="743">
      <contour>
        <pt x="20" y="607" on="1"/>
        <pt x="120" y="743" on="1"/>
        <pt x="213" y="743" on="1"/>
        <pt x="213" y="738" on="1"/>
        <pt x="84" y="602" on="1"/>
        <pt x="20" y="602" on="1"/>
      </contour>
    </TTGlyph>
    <TTGlyph name="acute.case.loclPLK" xMin="20" yMin="746" xMax="163" yMax="887">
      <contour>
        <pt x="20" y="751" on="1"/>
        <pt x="70" y="887" on="1"/>
        <pt x="163" y="887" on="1"/>
        <pt x="163" y="882" on="1"/>
        <pt x="84" y="746" on="1"/>
        <pt x="20" y="746" on="1"/>
      </contour>
    </TTGlyph>
    <TTGlyph name="acute.loclPLK" xMin="20" yMin="602" xMax="163" yMax="743">
      <contour>
        <pt x="20" y="607" on="1"/>
        <pt x="70" y="743" on="1"/>
        <pt x="163" y="743" on="1"/>
        <pt x="163" y="738" on="1"/>
        <pt x="84" y="602" on="1"/>
        <pt x="20" y="602" on="1"/>
      </contour>
    </TTGlyph>
    <TTGlyph name="acutecomb" xMin="-213" yMin="601" xMax="-20" yMax="742">
      <contour>
        <pt x="-213" y="606" on="1"/>
        <pt x="-113" y="742" on="1"/>
        <pt x="-20" y="742" on="1"/>
        <pt x="-20" y="737" on="1"/>
        <pt x="-149" y="601" on="1"/>
        <pt x="-213" y="601" on="1"/>
      </contour>
    </TTGlyph>
    <TTGlyph name="acutecomb.case" xMin="-213" yMin="746" xMax="-20" yMax="887">
      <contour>
        <pt x="-213" y="751" on="1"/>
        <pt x="-113" y="887" on="1"/>
        <pt x="-20" y="887" on="1"/>
        <pt x="-20" y="882" on="1"/>
        <pt x="-149" y="746" on="1"/>
        <pt x="-213" y="746" on="1"/>
      </contour>
    </TTGlyph>
    <TTGlyph name="adieresis" xMin="54" yMin="-8" xMax="483" yMax="730">
      <component glyphName=".ttfautohint" x="54" y="0" flags="0x0"/>
      <component glyphName="a" x="0" y="0" flags="0x0"/>
      <component glyphName="dieresis" x="130" y="0" flags="0x0"/>
    </TTGlyph>
    <TTGlyph name="ae" xMin="54" yMin="-8" xMax="828" yMax="518">
      <contour>
        <pt x="828" y="223" on="1"/>
        <pt x="483" y="223" on="1"/>
        <pt x="483" y="155" on="0"/>
        <pt x="500" y="96" on="0"/>
        <pt x="568" y="69" on="0"/>
        <pt x="646" y="69" on="1"/>
        <pt x="721" y="69" on="0"/>
        <pt x="808" y="79" on="1"/>
        <pt x="808" y="6" on="1"/>
        <pt x="776" y="0" on="0"/>
        <pt x="674" y="-8" on="0"/>
        <pt x="627" y="-8" on="1"/>
        <pt x="545" y="-8" on="0"/>
        <pt x="449" y="29" on="0"/>
        <pt x="427" y="71" on="1"/>
        <pt x="401" y="25" on="0"/>
        <pt x="297" y="-8" on="0"/>
        <pt x="231" y="-8" on="1"/>
        <pt x="141" y="-8" on="0"/>
        <pt x="54" y="58" on="0"/>
        <pt x="54" y="139" on="1"/>
        <pt x="54" y="196" on="0"/>
        <pt x="84" y="265" on="0"/>
        <pt x="154" y="297" on="0"/>
        <pt x="215" y="297" on="1"/>
        <pt x="396" y="297" on="1"/>
        <pt x="396" y="320" on="1"/>
        <pt x="396" y="380" on="0"/>
        <pt x="374" y="429" on="0"/>
        <pt x="316" y="441" on="0"/>
        <pt x="242" y="441" on="1"/>
        <pt x="207" y="441" on="0"/>
        <pt x="108" y="435" on="0"/>
        <pt x="87" y="431" on="1"/>
        <pt x="87" y="504" on="1"/>
        <pt x="173" y="518" on="0"/>
        <pt x="273" y="518" on="1"/>
        <pt x="339" y="518" on="0"/>
        <pt x="422" y="493" on="0"/>
        <pt x="444" y="465" on="1"/>
        <pt x="469" y="493" on="0"/>
        <pt x="554" y="518" on="0"/>
        <pt x="622" y="518" on="1"/>
        <pt x="716" y="518" on="0"/>
        <pt x="804" y="466" on="0"/>
        <pt x="828" y="361" on="0"/>
        <pt x="828" y="255" on="1"/>
      </contour>
      <contour>
        <pt x="557" y="441" on="0"/>
        <pt x="500" y="415" on="0"/>
        <pt x="483" y="358" on="0"/>
        <pt x="483" y="297" on="1"/>
        <pt x="741" y="297" on="1"/>
        <pt x="741" y="362" on="0"/>
        <pt x="722" y="421" on="0"/>
        <pt x="674" y="441" on="0"/>
        <pt x="620" y="441" on="1"/>
      </contour>
      <contour>
        <pt x="396" y="223" on="1"/>
        <pt x="232" y="223" on="1"/>
        <pt x="193" y="223" on="0"/>
        <pt x="156" y="212" on="0"/>
        <pt x="141" y="180" on="0"/>
        <pt x="141" y="146" on="1"/>
        <pt x="141" y="111" on="0"/>
        <pt x="158" y="80" on="0"/>
        <pt x="204" y="69" on="0"/>
        <pt x="254" y="69" on="1"/>
        <pt x="336" y="69" on="0"/>
        <pt x="368" y="110" on="1"/>
        <pt x="396" y="144" on="0"/>
        <pt x="396" y="214" on="1"/>
      </contour>
    </TTGlyph>
    <TTGlyph name="aeacute" xMin="54" yMin="-8" xMax="827" yMax="742">
      <component glyphName=".ttfautohint" x="54" y="0" flags="0x0"/>
      <component glyphName="ae" x="0" y="0" flags="0x0"/>
      <component glyphName="acutecomb" x="620" y="0" flags="0x0"/>
    </TTGlyph>
    <TTGlyph name="agrave" xMin="54" yMin="-8" xMax="483" yMax="743">
      <component glyphName=".ttfautohint" x="54" y="0" flags="0x0"/>
      <component glyphName="a" x="0" y="0" flags="0x0"/>
      <component glyphName="grave" x="119" y="0" flags="0x0"/>
    </TTGlyph>
    <TTGlyph name="amacron" xMin="54" yMin="-8" xMax="483" yMax="741">
      <component glyphName=".ttfautohint" x="54" y="0" flags="0x0"/>
      <component glyphName="a" x="0" y="0" flags="0x0"/>
      <component glyphName="uni0304" x="465" y="0" flags="0x0"/>
    </TTGlyph>
    <TTGlyph name="ampersand" xMin="66" yMin="-8" xMax="698" yMax="696">
      <contour>
        <pt x="698" y="385" on="1"/>
        <pt x="698" y="310" on="1"/>
        <pt x="583" y="310" on="1"/>
        <pt x="583" y="11" on="1"/>
        <pt x="543" y="4" on="0"/>
        <pt x="418" y="-8" on="0"/>
        <pt x="362" y="-8" on="1"/>
        <pt x="239" y="-8" on="0"/>
        <pt x="110" y="38" on="0"/>
        <pt x="66" y="120" on="0"/>
        <pt x="66" y="184" on="1"/>
        <pt x="66" y="239" on="0"/>
        <pt x="94" y="304" on="0"/>
        <pt x="147" y="339" on="0"/>
        <pt x="191" y="349" on="1"/>
        <pt x="191" y="353" on="1"/>
        <pt x="129" y="368" on="0"/>
        <pt x="72" y="442" on="0"/>
        <pt x="72" y="515" on="1"/>
        <pt x="72" y="572" on="0"/>
        <pt x="119" y="650" on="0"/>
        <pt x="246" y="696" on="0"/>
        <pt x="361" y="696" on="1"/>
        <pt x="408" y="696" on="0"/>
        <pt x="530" y="685" on="0"/>
        <pt x="579" y="677" on="1"/>
        <pt x="579" y="606" on="1"/>
        <pt x="465" y="621" on="0"/>
        <pt x="386" y="621" on="1"/>
        <pt x="287" y="621" on="0"/>
        <pt x="192" y="598" on="0"/>
        <pt x="161" y="549" on="0"/>
        <pt x="161" y="501" on="1"/>
        <pt x="161" y="465" on="0"/>
        <pt x="178" y="417" on="0"/>
        <pt x="238" y="385" on="0"/>
        <pt x="298" y="385" on="1"/>
        <pt x="391" y="385" on="1"/>
        <pt x="391" y="310" on="1"/>
        <pt x="298" y="310" on="1"/>
        <pt x="236" y="310" on="0"/>
        <pt x="174" y="284" on="0"/>
        <pt x="155" y="233" on="0"/>
        <pt x="155" y="188" on="1"/>
        <pt x="155" y="136" on="0"/>
        <pt x="197" y="84" on="0"/>
        <pt x="284" y="66" on="0"/>
        <pt x="362" y="66" on="1"/>
        <pt x="437" y="66" on="0"/>
        <pt x="497" y="73" on="1"/>
        <pt x="497" y="385" on="1"/>
      </contour>
    </TTGlyph>
    <TTGlyph name="aogonek" xMin="54" yMin="-196" xMax="485" yMax="518">
      <contour>
        <pt x="479" y="-139" on="0"/>
        <pt x="485" y="-138" on="1"/>
        <pt x="485" y="-194" on="1"/>
        <pt x="447" y="-196" on="0"/>
        <pt x="444" y="-196" on="1"/>
        <pt x="346" y="-196" on="0"/>
        <pt x="346" y="-121" on="1"/>
        <pt x="346" y="-90" on="0"/>
        <pt x="379" y="-28" on="0"/>
        <pt x="407" y="0" on="1"/>
        <pt x="404" y="0" on="1"/>
        <pt x="400" y="71" on="1"/>
        <pt x="394" y="71" on="1"/>
        <pt x="373" y="23" on="0"/>
        <pt x="281" y="-8" on="0"/>
        <pt x="219" y="-8" on="1"/>
        <pt x="133" y="-8" on="0"/>
        <pt x="54" y="57" on="0"/>
        <pt x="54" y="140" on="1"/>
        <pt x="54" y="199" on="0"/>
        <pt x="82" y="265" on="0"/>
        <pt x="148" y="294" on="0"/>
        <pt x="210" y="294" on="1"/>
        <pt x="271" y="294" on="0"/>
        <pt x="395" y="290" on="1"/>
        <pt x="395" y="320" on="1"/>
        <pt x="395" y="380" on="0"/>
        <pt x="373" y="430" on="0"/>
        <pt x="314" y="444" on="0"/>
        <pt x="242" y="444" on="1"/>
        <pt x="208" y="444" on="0"/>
        <pt x="113" y="438" on="0"/>
        <pt x="87" y="434" on="1"/>
        <pt x="87" y="504" on="1"/>
        <pt x="168" y="518" on="0"/>
        <pt x="272" y="518" on="1"/>
        <pt x="363" y="518" on="0"/>
        <pt x="452" y="481" on="0"/>
        <pt x="482" y="399" on="0"/>
        <pt x="482" y="319" on="1"/>
        <pt x="482" y="0" on="1"/>
        <pt x="460" y="-16" on="0"/>
        <pt x="421" y="-75" on="0"/>
        <pt x="421" y="-101" on="1"/>
        <pt x="421" y="-139" on="0"/>
        <pt x="467" y="-139" on="1"/>
      </contour>
      <contour>
        <pt x="395" y="232" on="1"/>
        <pt x="232" y="232" on="1"/>
        <pt x="192" y="232" on="0"/>
        <pt x="154" y="220" on="0"/>
        <pt x="139" y="185" on="0"/>
        <pt x="139" y="148" on="1"/>
        <pt x="139" y="111" on="0"/>
        <pt x="157" y="77" on="0"/>
        <pt x="204" y="64" on="0"/>
        <pt x="254" y="64" on="1"/>
        <pt x="302" y="64" on="0"/>
        <pt x="362" y="82" on="0"/>
        <pt x="376" y="108" on="1"/>
        <pt x="395" y="147" on="0"/>
        <pt x="395" y="209" on="1"/>
      </contour>
    </TTGlyph>
    <TTGlyph name="approxequal" xMin="66" yMin="96" xMax="429" yMax="412">
      <contour>
        <pt x="66" y="329" on="0"/>
        <pt x="76" y="377" on="0"/>
        <pt x="108" y="401" on="0"/>
        <pt x="141" y="401" on="1"/>
        <pt x="167" y="401" on="0"/>
        <pt x="218" y="390" on="0"/>
        <pt x="260" y="378" on="1"/>
        <pt x="319" y="359" on="0"/>
        <pt x="349" y="359" on="1"/>
        <pt x="370" y="359" on="0"/>
        <pt x="380" y="380" on="0"/>
        <pt x="380" y="412" on="1"/>
        <pt x="429" y="412" on="1"/>
        <pt x="429" y="368" on="0"/>
        <pt x="419" y="320" on="0"/>
        <pt x="388" y="296" on="0"/>
        <pt x="355" y="296" on="1"/>
        <pt x="328" y="296" on="0"/>
        <pt x="272" y="309" on="0"/>
        <pt x="236" y="320" on="1"/>
        <pt x="174" y="338" on="0"/>
        <pt x="147" y="338" on="1"/>
        <pt x="126" y="338" on="0"/>
        <pt x="116" y="317" on="0"/>
        <pt x="116" y="285" on="1"/>
        <pt x="66" y="285" on="1"/>
      </contour>
      <contour>
        <pt x="66" y="140" on="0"/>
        <pt x="76" y="188" on="0"/>
        <pt x="108" y="213" on="0"/>
        <pt x="141" y="213" on="1"/>
        <pt x="168" y="213" on="0"/>
        <pt x="222" y="201" on="0"/>
        <pt x="260" y="189" on="1"/>
        <pt x="283" y="182" on="0"/>
        <pt x="332" y="170" on="0"/>
        <pt x="349" y="170" on="1"/>
        <pt x="370" y="170" on="0"/>
        <pt x="380" y="192" on="0"/>
        <pt x="380" y="224" on="1"/>
        <pt x="429" y="224" on="1"/>
        <pt x="429" y="180" on="0"/>
        <pt x="419" y="132" on="0"/>
        <pt x="388" y="107" on="0"/>
        <pt x="355" y="107" on="1"/>
        <pt x="328" y="107" on="0"/>
        <pt x="272" y="120" on="0"/>
        <pt x="236" y="131" on="1"/>
        <pt x="213" y="138" on="0"/>
        <pt x="164" y="150" on="0"/>
        <pt x="147" y="150" on="1"/>
        <pt x="126" y="150" on="0"/>
        <pt x="116" y="128" on="0"/>
        <pt x="116" y="96" on="1"/>
        <pt x="66" y="96" on="1"/>
      </contour>
    </TTGlyph>
    <TTGlyph name="aring" xMin="54" yMin="-8" xMax="483" yMax="804">
      <component glyphName=".ttfautohint" x="54" y="0" flags="0x0"/>
      <component glyphName="a" x="0" y="0" flags="0x0"/>
      <component glyphName="ring" x="131" y="-10" flags="0x4"/>
    </TTGlyph>
    <TTGlyph name="aringacute" xMin="54" yMin="-8" xMax="483" yMax="987">
      <component glyphName=".ttfautohint" x="54" y="0" flags="0x0"/>
      <component glyphName="a" x="0" y="0" flags="0x0"/>
      <component glyphName="uni030A" x="436" y="0" flags="0x0"/>
      <component glyphName="acutecomb" x="460" y="245" flags="0x4"/>
    </TTGlyph>
    <TTGlyph name="arrowboth" xMin="55" yMin="174" xMax="827" yMax="435">
      <contour>
        <pt x="55" y="304" on="1"/>
        <pt x="328" y="435" on="1"/>
        <pt x="291" y="338" on="1"/>
        <pt x="591" y="338" on="1"/>
        <pt x="554" y="435" on="1"/>
        <pt x="827" y="304" on="1"/>
        <pt x="554" y="174" on="1"/>
        <pt x="591" y="270" on="1"/>
        <pt x="291" y="270" on="1"/>
        <pt x="328" y="174" on="1"/>
      </contour>
    </TTGlyph>
    <TTGlyph name="arrowdown" xMin="67" yMin="-85" xMax="328" yMax="688">
      <contour>
        <pt x="67" y="188" on="1"/>
        <pt x="164" y="151" on="1"/>
        <pt x="164" y="688" on="1"/>
        <pt x="232" y="688" on="1"/>
        <pt x="232" y="151" on="1"/>
        <pt x="328" y="188" on="1"/>
        <pt x="198" y="-85" on="1"/>
      </contour>
    </TTGlyph>
    <TTGlyph name="arrowdown.ss01" xMin="30" yMin="171" xMax="315" yMax="456">
      <contour>
        <pt x="30" y="456" on="1"/>
        <pt x="315" y="456" on="1"/>
        <pt x="173" y="171" on="1"/>
      </contour>
    </TTGlyph>
    <TTGlyph name="arrowleft" xMin="55" yMin="174" xMax="827" yMax="435">
      <contour>
        <pt x="324" y="174" on="1"/>
        <pt x="55" y="304" on="1"/>
        <pt x="324" y="435" on="1"/>
        <pt x="287" y="338" on="1"/>
        <pt x="827" y="338" on="1"/>
        <pt x="827" y="270" on="1"/>
        <pt x="287" y="270" on="1"/>
      </contour>
    </TTGlyph>
    <TTGlyph name="arrowleft.ss01" xMin="30" yMin="201" xMax="315" yMax="486">
      <contour>
        <pt x="30" y="343" on="1"/>
        <pt x="315" y="486" on="1"/>
        <pt x="315" y="201" on="1"/>
      </contour>
    </TTGlyph>
    <TTGlyph name="arrowright" xMin="55" yMin="174" xMax="827" yMax="435">
      <contour>
        <pt x="591" y="270" on="1"/>
        <pt x="55" y="270" on="1"/>
        <pt x="55" y="338" on="1"/>
        <pt x="591" y="338" on="1"/>
        <pt x="554" y="435" on="1"/>
        <pt x="827" y="304" on="1"/>
        <pt x="554" y="174" on="1"/>
      </contour>
    </TTGlyph>
    <TTGlyph name="arrowright.ss01" xMin="48" yMin="201" xMax="333" yMax="486">
      <contour>
        <pt x="48" y="486" on="1"/>
        <pt x="333" y="343" on="1"/>
        <pt x="48" y="201" on="1"/>
      </contour>
    </TTGlyph>
    <TTGlyph name="arrowup" xMin="67" yMin="-82" xMax="328" yMax="691">
      <contour>
        <pt x="164" y="454" on="1"/>
        <pt x="67" y="417" on="1"/>
        <pt x="198" y="691" on="1"/>
        <pt x="328" y="417" on="1"/>
        <pt x="232" y="454" on="1"/>
        <pt x="232" y="-82" on="1"/>
        <pt x="164" y="-82" on="1"/>
      </contour>
    </TTGlyph>
    <TTGlyph name="arrowup.ss01" xMin="30" yMin="231" xMax="315" yMax="516">
      <contour>
        <pt x="173" y="516" on="1"/>
        <pt x="315" y="231" on="1"/>
        <pt x="30" y="231" on="1"/>
      </contour>
    </TTGlyph>
    <TTGlyph name="arrowupdn" xMin="67" yMin="-85" xMax="328" yMax="696">
      <contour>
        <pt x="67" y="188" on="1"/>
        <pt x="164" y="151" on="1"/>
        <pt x="164" y="459" on="1"/>
        <pt x="67" y="422" on="1"/>
        <pt x="198" y="696" on="1"/>
        <pt x="328" y="422" on="1"/>
        <pt x="232" y="459" on="1"/>
        <pt x="232" y="151" on="1"/>
        <pt x="328" y="188" on="1"/>
        <pt x="198" y="-85" on="1"/>
      </contour>
    </TTGlyph>
    <TTGlyph name="arrowupdnbse" xMin="55" yMin="-186" xMax="340" yMax="696">
      <contour>
        <pt x="67" y="188" on="1"/>
        <pt x="164" y="151" on="1"/>
        <pt x="164" y="459" on="1"/>
        <pt x="67" y="422" on="1"/>
        <pt x="198" y="696" on="1"/>
        <pt x="328" y="422" on="1"/>
        <pt x="232" y="459" on="1"/>
        <pt x="232" y="151" on="1"/>
        <pt x="328" y="188" on="1"/>
        <pt x="198" y="-85" on="1"/>
      </contour>
      <contour>
        <pt x="55" y="-123" on="1"/>
        <pt x="340" y="-123" on="1"/>
        <pt x="340" y="-186" on="1"/>
        <pt x="55" y="-186" on="1"/>
      </contour>
    </TTGlyph>
    <TTGlyph name="asciicircum" xMin="47" yMin="444" xMax="406" yMax="749">
      <contour>
        <pt x="227" y="688" on="1"/>
        <pt x="118" y="444" on="1"/>
        <pt x="47" y="444" on="1"/>
        <pt x="187" y="749" on="1"/>
        <pt x="267" y="749" on="1"/>
        <pt x="406" y="444" on="1"/>
        <pt x="336" y="444" on="1"/>
      </contour>
    </TTGlyph>
    <TTGlyph name="asciitilde" xMin="66" yMin="238" xMax="429" yMax="366">
      <contour>
        <pt x="429" y="322" on="0"/>
        <pt x="419" y="274" on="0"/>
        <pt x="388" y="249" on="0"/>
        <pt x="355" y="249" on="1"/>
        <pt x="329" y="249" on="0"/>
        <pt x="280" y="260" on="0"/>
        <pt x="236" y="273" on="1"/>
        <pt x="213" y="280" on="0"/>
        <pt x="164" y="292" on="0"/>
        <pt x="147" y="292" on="1"/>
        <pt x="126" y="292" on="0"/>
        <pt x="116" y="271" on="0"/>
        <pt x="116" y="238" on="1"/>
        <pt x="66" y="238" on="1"/>
        <pt x="66" y="283" on="0"/>
        <pt x="76" y="331" on="0"/>
        <pt x="108" y="355" on="0"/>
        <pt x="141" y="355" on="1"/>
        <pt x="168" y="355" on="0"/>
        <pt x="222" y="343" on="0"/>
        <pt x="260" y="331" on="1"/>
        <pt x="283" y="324" on="0"/>
        <pt x="332" y="312" on="0"/>
        <pt x="349" y="312" on="1"/>
        <pt x="370" y="312" on="0"/>
        <pt x="380" y="334" on="0"/>
        <pt x="380" y="366" on="1"/>
        <pt x="429" y="366" on="1"/>
      </contour>
    </TTGlyph>
    <TTGlyph name="asterisk" xMin="47" yMin="320" xMax="395" yMax="688">
      <contour>
        <pt x="250" y="320" on="1"/>
        <pt x="192" y="320" on="1"/>
        <pt x="200" y="466" on="1"/>
        <pt x="76" y="385" on="1"/>
        <pt x="47" y="437" on="1"/>
        <pt x="179" y="503" on="1"/>
        <pt x="47" y="571" on="1"/>
        <pt x="76" y="622" on="1"/>
        <pt x="200" y="541" on="1"/>
        <pt x="192" y="688" on="1"/>
        <pt x="250" y="688" on="1"/>
        <pt x="242" y="542" on="1"/>
        <pt x="366" y="622" on="1"/>
        <pt x="395" y="571" on="1"/>
        <pt x="264" y="503" on="1"/>
        <pt x="395" y="437" on="1"/>
        <pt x="366" y="385" on="1"/>
        <pt x="243" y="466" on="1"/>
      </contour>
    </TTGlyph>
    <TTGlyph name="asterisk.ss02" xMin="35" yMin="-14" xMax="782" yMax="705">
      <contour>
        <pt x="269" y="262" on="1"/>
        <pt x="35" y="436" on="1"/>
        <pt x="322" y="436" on="1"/>
        <pt x="409" y="705" on="1"/>
        <pt x="494" y="436" on="1"/>
        <pt x="782" y="436" on="1"/>
        <pt x="550" y="262" on="1"/>
        <pt x="640" y="-14" on="1"/>
        <pt x="409" y="156" on="1"/>
        <pt x="178" y="-14" on="1"/>
      </contour>
    </TTGlyph>
    <TTGlyph name="at" xMin="83" yMin="-108" xMax="846" yMax="696">
      <contour>
        <pt x="272" y="-108" on="0"/>
        <pt x="121" y="-52" on="0"/>
        <pt x="83" y="98" on="0"/>
        <pt x="83" y="294" on="1"/>
        <pt x="83" y="490" on="0"/>
        <pt x="121" y="640" on="0"/>
        <pt x="272" y="696" on="0"/>
        <pt x="464" y="696" on="1"/>
        <pt x="657" y="696" on="0"/>
        <pt x="808" y="642" on="0"/>
        <pt x="846" y="492" on="0"/>
        <pt x="846" y="294" on="1"/>
        <pt x="846" y="189" on="0"/>
        <pt x="822" y="97" on="0"/>
        <pt x="772" y="75" on="0"/>
        <pt x="717" y="75" on="1"/>
        <pt x="578" y="75" on="1"/>
        <pt x="574" y="135" on="1"/>
        <pt x="568" y="135" on="1"/>
        <pt x="549" y="95" on="0"/>
        <pt x="475" y="68" on="0"/>
        <pt x="423" y="68" on="1"/>
        <pt x="346" y="68" on="0"/>
        <pt x="279" y="125" on="0"/>
        <pt x="279" y="197" on="1"/>
        <pt x="279" y="248" on="0"/>
        <pt x="302" y="303" on="0"/>
        <pt x="358" y="327" on="0"/>
        <pt x="411" y="327" on="1"/>
        <pt x="467" y="327" on="0"/>
        <pt x="571" y="323" on="1"/>
        <pt x="571" y="349" on="1"/>
        <pt x="571" y="399" on="0"/>
        <pt x="554" y="439" on="0"/>
        <pt x="504" y="451" on="0"/>
        <pt x="441" y="451" on="1"/>
        <pt x="409" y="451" on="0"/>
        <pt x="334" y="447" on="0"/>
        <pt x="307" y="444" on="1"/>
        <pt x="307" y="506" on="1"/>
        <pt x="391" y="518" on="0"/>
        <pt x="468" y="518" on="1"/>
        <pt x="548" y="518" on="0"/>
        <pt x="625" y="486" on="0"/>
        <pt x="650" y="417" on="0"/>
        <pt x="650" y="349" on="1"/>
        <pt x="650" y="119" on="1"/>
        <pt x="728" y="119" on="1"/>
        <pt x="758" y="119" on="0"/>
        <pt x="784" y="136" on="0"/>
        <pt x="797" y="209" on="0"/>
        <pt x="797" y="294" on="1"/>
        <pt x="797" y="437" on="0"/>
        <pt x="782" y="565" on="0"/>
        <pt x="725" y="630" on="0"/>
        <pt x="658" y="640" on="1"/>
        <pt x="600" y="650" on="0"/>
        <pt x="463" y="650" on="1"/>
        <pt x="347" y="650" on="0"/>
        <pt x="285" y="643" on="1"/>
        <pt x="210" y="633" on="0"/>
        <pt x="147" y="571" on="0"/>
        <pt x="130" y="442" on="0"/>
        <pt x="130" y="294" on="1"/>
        <pt x="130" y="137" on="0"/>
        <pt x="150" y="6" on="0"/>
        <pt x="229" y="-52" on="0"/>
        <pt x="323" y="-59" on="1"/>
        <pt x="371" y="-62" on="0"/>
        <pt x="464" y="-62" on="1"/>
        <pt x="515" y="-62" on="0"/>
        <pt x="621" y="-60" on="0"/>
        <pt x="650" y="-59" on="1"/>
        <pt x="650" y="-105" on="1"/>
        <pt x="584" y="-108" on="0"/>
        <pt x="464" y="-108" on="1"/>
      </contour>
      <contour>
        <pt x="499" y="130" on="0"/>
        <pt x="550" y="150" on="0"/>
        <pt x="571" y="198" on="0"/>
        <pt x="571" y="245" on="1"/>
        <pt x="571" y="273" on="1"/>
        <pt x="431" y="273" on="1"/>
        <pt x="398" y="273" on="0"/>
        <pt x="367" y="263" on="0"/>
        <pt x="356" y="234" on="0"/>
        <pt x="356" y="202" on="1"/>
        <pt x="356" y="171" on="0"/>
        <pt x="370" y="141" on="0"/>
        <pt x="409" y="130" on="0"/>
        <pt x="451" y="130" on="1"/>
      </contour>
    </TTGlyph>
    <TTGlyph name="atilde" xMin="54" yMin="-8" xMax="483" yMax="742">
      <component glyphName=".ttfautohint" x="54" y="0" flags="0x0"/>
      <component glyphName="a" x="0" y="0" flags="0x0"/>
      <component glyphName="tilde" x="82" y="-1" flags="0x4"/>
    </TTGlyph>
    <TTGlyph name="b" xMin="85" yMin="-8" xMax="525" yMax="743">
      <contour>
        <pt x="278" y="-8" on="0"/>
        <pt x="194" y="25" on="0"/>
        <pt x="173" y="71" on="1"/>
        <pt x="167" y="71" on="1"/>
        <pt x="163" y="0" on="1"/>
        <pt x="85" y="0" on="1"/>
        <pt x="85" y="743" on="1"/>
        <pt x="172" y="743" on="1"/>
        <pt x="172" y="446" on="1"/>
        <pt x="177" y="446" on="1"/>
        <pt x="198" y="486" on="0"/>
        <pt x="278" y="518" on="0"/>
        <pt x="341" y="518" on="1"/>
        <pt x="414" y="518" on="0"/>
        <pt x="492" y="472" on="0"/>
        <pt x="525" y="360" on="0"/>
        <pt x="525" y="255" on="1"/>
        <pt x="525" y="149" on="0"/>
        <pt x="492" y="38" on="0"/>
        <pt x="412" y="-8" on="0"/>
        <pt x="338" y="-8" on="1"/>
      </contour>
      <contour>
        <pt x="366" y="69" on="0"/>
        <pt x="419" y="94" on="0"/>
        <pt x="437" y="168" on="0"/>
        <pt x="437" y="255" on="1"/>
        <pt x="437" y="342" on="0"/>
        <pt x="419" y="415" on="0"/>
        <pt x="366" y="440" on="0"/>
        <pt x="304" y="440" on="1"/>
        <pt x="258" y="440" on="0"/>
        <pt x="202" y="416" on="0"/>
        <pt x="190" y="390" on="1"/>
        <pt x="179" y="368" on="0"/>
        <pt x="172" y="306" on="0"/>
        <pt x="172" y="255" on="1"/>
        <pt x="172" y="202" on="0"/>
        <pt x="178" y="142" on="0"/>
        <pt x="190" y="119" on="1"/>
        <pt x="202" y="93" on="0"/>
        <pt x="257" y="69" on="0"/>
        <pt x="304" y="69" on="1"/>
      </contour>
    </TTGlyph>
    <TTGlyph name="backslash" xMin="-4" yMin="-55" xMax="365" yMax="743">
      <contour>
        <pt x="-4" y="743" on="1"/>
        <pt x="76" y="743" on="1"/>
        <pt x="365" y="-55" on="1"/>
        <pt x="286" y="-55" on="1"/>
      </contour>
    </TTGlyph>
    <TTGlyph name="bar" xMin="100" yMin="-161" xMax="179" yMax="743">
      <contour>
        <pt x="100" y="743" on="1"/>
        <pt x="179" y="743" on="1"/>
        <pt x="179" y="-161" on="1"/>
        <pt x="100" y="-161" on="1"/>
      </contour>
    </TTGlyph>
    <TTGlyph name="bar.ss02" xMin="-1" yMin="0" xMax="499" yMax="696">
      <contour>
        <pt x="-1" y="696" on="1"/>
        <pt x="499" y="696" on="1"/>
        <pt x="499" y="0" on="1"/>
        <pt x="-1" y="0" on="1"/>
      </contour>
    </TTGlyph>
    <TTGlyph name="braceleft" xMin="26" yMin="-150" xMax="307" yMax="743">
      <contour>
        <pt x="223" y="-141" on="0"/>
        <pt x="169" y="-92" on="0"/>
        <pt x="126" y="-15" on="0"/>
        <pt x="126" y="32" on="1"/>
        <pt x="126" y="148" on="1"/>
        <pt x="126" y="201" on="0"/>
        <pt x="83" y="273" on="0"/>
        <pt x="26" y="273" on="1"/>
        <pt x="26" y="319" on="1"/>
        <pt x="83" y="319" on="0"/>
        <pt x="126" y="391" on="0"/>
        <pt x="126" y="444" on="1"/>
        <pt x="126" y="560" on="1"/>
        <pt x="126" y="607" on="0"/>
        <pt x="169" y="684" on="0"/>
        <pt x="223" y="733" on="0"/>
        <pt x="241" y="743" on="1"/>
        <pt x="307" y="743" on="1"/>
        <pt x="291" y="732" on="0"/>
        <pt x="244" y="680" on="0"/>
        <pt x="208" y="607" on="0"/>
        <pt x="208" y="568" on="1"/>
        <pt x="208" y="446" on="1"/>
        <pt x="208" y="323" on="0"/>
        <pt x="108" y="299" on="1"/>
        <pt x="108" y="293" on="1"/>
        <pt x="208" y="271" on="0"/>
        <pt x="208" y="146" on="1"/>
        <pt x="208" y="25" on="1"/>
        <pt x="208" y="-14" on="0"/>
        <pt x="244" y="-88" on="0"/>
        <pt x="291" y="-140" on="0"/>
        <pt x="307" y="-150" on="1"/>
        <pt x="241" y="-150" on="1"/>
      </contour>
    </TTGlyph>
    <TTGlyph name="braceright" xMin="19" yMin="-150" xMax="300" yMax="743">
      <contour>
        <pt x="35" y="-140" on="0"/>
        <pt x="82" y="-88" on="0"/>
        <pt x="119" y="-14" on="0"/>
        <pt x="119" y="25" on="1"/>
        <pt x="119" y="146" on="1"/>
        <pt x="119" y="271" on="0"/>
        <pt x="218" y="293" on="1"/>
        <pt x="218" y="299" on="1"/>
        <pt x="119" y="323" on="0"/>
        <pt x="119" y="446" on="1"/>
        <pt x="119" y="568" on="1"/>
        <pt x="119" y="607" on="0"/>
        <pt x="82" y="680" on="0"/>
        <pt x="35" y="732" on="0"/>
        <pt x="19" y="743" on="1"/>
        <pt x="86" y="743" on="1"/>
        <pt x="104" y="733" on="0"/>
        <pt x="157" y="684" on="0"/>
        <pt x="200" y="607" on="0"/>
        <pt x="200" y="560" on="1"/>
        <pt x="200" y="444" on="1"/>
        <pt x="200" y="391" on="0"/>
        <pt x="243" y="319" on="0"/>
        <pt x="300" y="319" on="1"/>
        <pt x="300" y="273" on="1"/>
        <pt x="243" y="273" on="0"/>
        <pt x="200" y="201" on="0"/>
        <pt x="200" y="148" on="1"/>
        <pt x="200" y="32" on="1"/>
        <pt x="200" y="-15" on="0"/>
        <pt x="157" y="-92" on="0"/>
        <pt x="103" y="-141" on="0"/>
        <pt x="86" y="-150" on="1"/>
        <pt x="19" y="-150" on="1"/>
      </contour>
    </TTGlyph>
    <TTGlyph name="bracketleft" xMin="98" yMin="-150" xMax="297" yMax="743">
      <contour>
        <pt x="98" y="743" on="1"/>
        <pt x="297" y="743" on="1"/>
        <pt x="297" y="680" on="1"/>
        <pt x="179" y="676" on="1"/>
        <pt x="179" y="-83" on="1"/>
        <pt x="297" y="-87" on="1"/>
        <pt x="297" y="-150" on="1"/>
        <pt x="98" y="-150" on="1"/>
      </contour>
    </TTGlyph>
    <TTGlyph name="bracketleft.ss02" xMin="45" yMin="0" xMax="397" yMax="696">
      <contour>
        <pt x="45" y="0" on="1"/>
        <pt x="45" y="348" on="1"/>
        <pt x="45" y="449" on="0"/>
        <pt x="135" y="608" on="0"/>
        <pt x="295" y="696" on="0"/>
        <pt x="397" y="696" on="1"/>
        <pt x="397" y="0" on="1"/>
      </contour>
    </TTGlyph>
    <TTGlyph name="bracketright" xMin="42" yMin="-150" xMax="241" yMax="743">
      <contour>
        <pt x="42" y="-87" on="1"/>
        <pt x="161" y="-83" on="1"/>
        <pt x="161" y="676" on="1"/>
        <pt x="42" y="680" on="1"/>
        <pt x="42" y="743" on="1"/>
        <pt x="241" y="743" on="1"/>
        <pt x="241" y="-150" on="1"/>
        <pt x="42" y="-150" on="1"/>
      </contour>
    </TTGlyph>
    <TTGlyph name="bracketright.ss02" xMin="0" yMin="0" xMax="352" yMax="696">
      <contour>
        <pt x="0" y="696" on="1"/>
        <pt x="102" y="696" on="0"/>
        <pt x="262" y="608" on="0"/>
        <pt x="352" y="449" on="0"/>
        <pt x="352" y="348" on="1"/>
        <pt x="352" y="0" on="1"/>
        <pt x="0" y="0" on="1"/>
      </contour>
    </TTGlyph>
    <TTGlyph name="breve" xMin="20" yMin="598" xMax="297" yMax="743">
      <contour>
        <pt x="297" y="693" on="0"/>
        <pt x="280" y="633" on="0"/>
        <pt x="220" y="598" on="0"/>
        <pt x="158" y="598" on="1"/>
        <pt x="96" y="598" on="0"/>
        <pt x="36" y="633" on="0"/>
        <pt x="20" y="692" on="0"/>
        <pt x="20" y="743" on="1"/>
        <pt x="75" y="743" on="1"/>
        <pt x="75" y="707" on="0"/>
        <pt x="83" y="672" on="0"/>
        <pt x="119" y="652" on="0"/>
        <pt x="158" y="652" on="1"/>
        <pt x="197" y="652" on="0"/>
        <pt x="232" y="672" on="0"/>
        <pt x="241" y="708" on="0"/>
        <pt x="241" y="743" on="1"/>
        <pt x="297" y="743" on="1"/>
      </contour>
    </TTGlyph>
    <TTGlyph name="brokenbar" xMin="100" yMin="-161" xMax="179" yMax="743">
      <contour>
        <pt x="100" y="743" on="1"/>
        <pt x="179" y="743" on="1"/>
        <pt x="179" y="390" on="1"/>
        <pt x="100" y="390" on="1"/>
      </contour>
      <contour>
        <pt x="100" y="192" on="1"/>
        <pt x="179" y="192" on="1"/>
        <pt x="179" y="-161" on="1"/>
        <pt x="100" y="-161" on="1"/>
      </contour>
    </TTGlyph>
    <TTGlyph name="bullet" xMin="75" yMin="232" xMax="295" yMax="455">
      <contour>
        <pt x="295" y="289" on="0"/>
        <pt x="283" y="247" on="0"/>
        <pt x="239" y="232" on="0"/>
        <pt x="184" y="232" on="1"/>
        <pt x="130" y="232" on="0"/>
        <pt x="86" y="247" on="0"/>
        <pt x="75" y="289" on="0"/>
        <pt x="75" y="342" on="1"/>
        <pt x="75" y="396" on="0"/>
        <pt x="86" y="439" on="0"/>
        <pt x="130" y="455" on="0"/>
        <pt x="184" y="455" on="1"/>
        <pt x="239" y="455" on="0"/>
        <pt x="283" y="439" on="0"/>
        <pt x="295" y="396" on="0"/>
        <pt x="295" y="342" on="1"/>
      </contour>
    </TTGlyph>
    <TTGlyph name="bullet.ss02" xMin="40" yMin="-8" xMax="743" yMax="696">
      <contour>
        <pt x="343" y="421" on="0"/>
        <pt x="279" y="480" on="0"/>
        <pt x="279" y="533" on="1"/>
        <pt x="279" y="575" on="0"/>
        <pt x="318" y="650" on="0"/>
        <pt x="373" y="696" on="0"/>
        <pt x="392" y="696" on="1"/>
        <pt x="411" y="696" on="0"/>
        <pt x="465" y="650" on="0"/>
        <pt x="504" y="575" on="0"/>
        <pt x="504" y="533" on="1"/>
        <pt x="504" y="480" on="0"/>
        <pt x="441" y="421" on="0"/>
        <pt x="392" y="421" on="1"/>
      </contour>
      <contour>
        <pt x="415" y="481" on="0"/>
        <pt x="444" y="508" on="0"/>
        <pt x="444" y="533" on="1"/>
        <pt x="444" y="560" on="0"/>
        <pt x="426" y="607" on="0"/>
        <pt x="401" y="636" on="0"/>
        <pt x="392" y="636" on="1"/>
        <pt x="383" y="636" on="0"/>
        <pt x="358" y="607" on="0"/>
        <pt x="339" y="560" on="0"/>
        <pt x="339" y="533" on="1"/>
        <pt x="339" y="508" on="0"/>
        <pt x="369" y="481" on="0"/>
        <pt x="392" y="481" on="1"/>
      </contour>
      <contour>
        <pt x="161" y="231" on="0"/>
        <pt x="86" y="270" on="0"/>
        <pt x="40" y="325" on="0"/>
        <pt x="40" y="344" on="1"/>
        <pt x="40" y="363" on="0"/>
        <pt x="86" y="417" on="0"/>
        <pt x="161" y="456" on="0"/>
        <pt x="203" y="456" on="1"/>
        <pt x="256" y="456" on="0"/>
        <pt x="315" y="393" on="0"/>
        <pt x="315" y="344" on="1"/>
        <pt x="315" y="295" on="0"/>
        <pt x="256" y="231" on="0"/>
        <pt x="203" y="231" on="1"/>
      </contour>
      <contour>
        <pt x="527" y="231" on="0"/>
        <pt x="468" y="295" on="0"/>
        <pt x="468" y="344" on="1"/>
        <pt x="468" y="393" on="0"/>
        <pt x="527" y="456" on="0"/>
        <pt x="581" y="456" on="1"/>
        <pt x="622" y="456" on="0"/>
        <pt x="697" y="417" on="0"/>
        <pt x="743" y="363" on="0"/>
        <pt x="743" y="344" on="1"/>
        <pt x="743" y="325" on="0"/>
        <pt x="697" y="270" on="0"/>
        <pt x="623" y="231" on="0"/>
        <pt x="581" y="231" on="1"/>
      </contour>
      <contour>
        <pt x="228" y="291" on="0"/>
        <pt x="255" y="321" on="0"/>
        <pt x="255" y="344" on="1"/>
        <pt x="255" y="367" on="0"/>
        <pt x="228" y="396" on="0"/>
        <pt x="203" y="396" on="1"/>
        <pt x="176" y="396" on="0"/>
        <pt x="129" y="378" on="0"/>
        <pt x="100" y="353" on="0"/>
        <pt x="100" y="344" on="1"/>
        <pt x="100" y="335" on="0"/>
        <pt x="129" y="310" on="0"/>
        <pt x="176" y="291" on="0"/>
        <pt x="203" y="291" on="1"/>
      </contour>
      <contour>
        <pt x="607" y="291" on="0"/>
        <pt x="654" y="310" on="0"/>
        <pt x="683" y="335" on="0"/>
        <pt x="683" y="344" on="1"/>
        <pt x="683" y="353" on="0"/>
        <pt x="654" y="378" on="0"/>
        <pt x="607" y="396" on="0"/>
        <pt x="581" y="396" on="1"/>
        <pt x="556" y="396" on="0"/>
        <pt x="528" y="367" on="0"/>
        <pt x="528" y="344" on="1"/>
        <pt x="528" y="321" on="0"/>
        <pt x="556" y="291" on="0"/>
        <pt x="581" y="291" on="1"/>
      </contour>
      <contour>
        <pt x="373" y="-8" on="0"/>
        <pt x="318" y="38" on="0"/>
        <pt x="279" y="113" on="0"/>
        <pt x="279" y="155" on="1"/>
        <pt x="279" y="208" on="0"/>
        <pt x="343" y="267" on="0"/>
        <pt x="392" y="267" on="1"/>
        <pt x="441" y="267" on="0"/>
        <pt x="504" y="208" on="0"/>
        <pt x="504" y="155" on="1"/>
        <pt x="504" y="113" on="0"/>
        <pt x="465" y="38" on="0"/>
        <pt x="411" y="-8" on="0"/>
        <pt x="392" y="-8" on="1"/>
      </contour>
      <contour>
        <pt x="401" y="52" on="0"/>
        <pt x="426" y="81" on="0"/>
        <pt x="444" y="128" on="0"/>
        <pt x="444" y="155" on="1"/>
        <pt x="444" y="180" on="0"/>
        <pt x="415" y="207" on="0"/>
        <pt x="392" y="207" on="1"/>
        <pt x="369" y="207" on="0"/>
        <pt x="339" y="180" on="0"/>
        <pt x="339" y="155" on="1"/>
        <pt x="339" y="128" on="0"/>
        <pt x="358" y="81" on="0"/>
        <pt x="383" y="52" on="0"/>
        <pt x="392" y="52" on="1"/>
      </contour>
    </TTGlyph>
    <TTGlyph name="c" xMin="63" yMin="-8" xMax="411" yMax="518">
      <contour>
        <pt x="385" y="0" on="0"/>
        <pt x="305" y="-8" on="0"/>
        <pt x="272" y="-8" on="1"/>
        <pt x="181" y="-8" on="0"/>
        <pt x="90" y="52" on="0"/>
        <pt x="63" y="160" on="0"/>
        <pt x="63" y="254" on="1"/>
        <pt x="63" y="350" on="0"/>
        <pt x="95" y="462" on="0"/>
        <pt x="183" y="518" on="0"/>
        <pt x="268" y="518" on="1"/>
        <pt x="302" y="518" on="0"/>
        <pt x="382" y="510" on="0"/>
        <pt x="407" y="504" on="1"/>
        <pt x="407" y="431" on="1"/>
        <pt x="347" y="441" on="0"/>
        <pt x="290" y="441" on="1"/>
        <pt x="227" y="441" on="0"/>
        <pt x="169" y="412" on="0"/>
        <pt x="150" y="336" on="0"/>
        <pt x="150" y="255" on="1"/>
        <pt x="150" y="172" on="0"/>
        <pt x="170" y="97" on="0"/>
        <pt x="228" y="69" on="0"/>
        <pt x="292" y="69" on="1"/>
        <pt x="351" y="69" on="0"/>
        <pt x="411" y="79" on="1"/>
        <pt x="411" y="5" on="1"/>
      </contour>
    </TTGlyph>
    <TTGlyph name="cacute" xMin="63" yMin="-8" xMax="411" yMax="742">
      <component glyphName=".ttfautohint" x="63" y="0" flags="0x0"/>
      <component glyphName="c" x="0" y="0" flags="0x0"/>
      <component glyphName="acutecomb" x="404" y="0" flags="0x0"/>
    </TTGlyph>
    <TTGlyph name="cacute.loclPLK" xMin="63" yMin="-8" xMax="411" yMax="743">
      <component glyphName=".ttfautohint" x="63" y="0" flags="0x0"/>
      <component glyphName="c" x="0" y="0" flags="0x0"/>
      <component glyphName="acute.loclPLK" x="171" y="0" flags="0x0"/>
    </TTGlyph>
    <TTGlyph name="caron" xMin="20" yMin="601" xMax="313" yMax="743">
      <contour>
        <pt x="20" y="736" on="1"/>
        <pt x="20" y="743" on="1"/>
        <pt x="79" y="743" on="1"/>
        <pt x="166" y="647" on="1"/>
        <pt x="253" y="743" on="1"/>
        <pt x="313" y="743" on="1"/>
        <pt x="313" y="736" on="1"/>
        <pt x="211" y="601" on="1"/>
        <pt x="121" y="601" on="1"/>
      </contour>
    </TTGlyph>
    <TTGlyph name="caron.loclCSY" xMin="50" yMin="442" xMax="149" yMax="688">
      <contour>
        <pt x="65" y="613" on="1"/>
        <pt x="65" y="688" on="1"/>
        <pt x="149" y="688" on="1"/>
        <pt x="149" y="613" on="1"/>
        <pt x="111" y="442" on="1"/>
        <pt x="50" y="442" on="1"/>
      </contour>
    </TTGlyph>
    <TTGlyph name="ccaron" xMin="63" yMin="-8" xMax="411" yMax="742">
      <component glyphName=".ttfautohint" x="63" y="0" flags="0x0"/>
      <component glyphName="c" x="0" y="0" flags="0x0"/>
      <component glyphName="uni030C" x="397" y="0" flags="0x0"/>
    </TTGlyph>
    <TTGlyph name="ccedilla" xMin="63" yMin="-190" xMax="411" yMax="518">
      <contour>
        <pt x="351" y="69" on="0"/>
        <pt x="411" y="79" on="1"/>
        <pt x="411" y="5" on="1"/>
        <pt x="385" y="0" on="0"/>
        <pt x="305" y="-8" on="0"/>
        <pt x="272" y="-8" on="1"/>
        <pt x="259" y="-8" on="1"/>
        <pt x="221" y="-190" on="1"/>
        <pt x="135" y="-190" on="1"/>
        <pt x="135" y="-185" on="1"/>
        <pt x="198" y="-2" on="1"/>
        <pt x="140" y="10" on="0"/>
        <pt x="81" y="75" on="0"/>
        <pt x="63" y="174" on="0"/>
        <pt x="63" y="254" on="1"/>
        <pt x="63" y="350" on="0"/>
        <pt x="95" y="462" on="0"/>
        <pt x="183" y="518" on="0"/>
        <pt x="268" y="518" on="1"/>
        <pt x="302" y="518" on="0"/>
        <pt x="382" y="510" on="0"/>
        <pt x="407" y="504" on="1"/>
        <pt x="407" y="431" on="1"/>
        <pt x="347" y="441" on="0"/>
        <pt x="290" y="441" on="1"/>
        <pt x="227" y="441" on="0"/>
        <pt x="169" y="412" on="0"/>
        <pt x="150" y="336" on="0"/>
        <pt x="150" y="255" on="1"/>
        <pt x="150" y="172" on="0"/>
        <pt x="170" y="97" on="0"/>
        <pt x="228" y="69" on="0"/>
        <pt x="292" y="69" on="1"/>
      </contour>
    </TTGlyph>
    <TTGlyph name="ccircumflex" xMin="63" yMin="-8" xMax="411" yMax="742">
      <component glyphName=".ttfautohint" x="63" y="0" flags="0x0"/>
      <component glyphName="c" x="0" y="0" flags="0x0"/>
      <component glyphName="uni0302" x="397" y="0" flags="0x0"/>
    </TTGlyph>
    <TTGlyph name="cdotaccent" xMin="63" yMin="-8" xMax="411" yMax="729">
      <component glyphName=".ttfautohint" x="63" y="0" flags="0x0"/>
      <component glyphName="c" x="0" y="0" flags="0x0"/>
      <component glyphName="uni0307" x="290" y="0" flags="0x0"/>
    </TTGlyph>
    <TTGlyph name="cedilla" xMin="20" yMin="-190" xMax="146" yMax="8">
      <contour>
        <pt x="20" y="-185" on="1"/>
        <pt x="86" y="8" on="1"/>
        <pt x="146" y="8" on="1"/>
        <pt x="146" y="3" on="1"/>
        <pt x="106" y="-190" on="1"/>
        <pt x="20" y="-190" on="1"/>
      </contour>
    </TTGlyph>
    <TTGlyph name="cent" xMin="64" yMin="-8" xMax="415" yMax="696">
      <contour>
        <pt x="415" y="81" on="1"/>
        <pt x="371" y="69" on="0"/>
        <pt x="305" y="68" on="1"/>
        <pt x="305" y="-8" on="1"/>
        <pt x="238" y="-8" on="1"/>
        <pt x="238" y="68" on="1"/>
        <pt x="165" y="73" on="0"/>
        <pt x="90" y="135" on="0"/>
        <pt x="64" y="247" on="0"/>
        <pt x="64" y="342" on="1"/>
        <pt x="64" y="438" on="0"/>
        <pt x="95" y="553" on="0"/>
        <pt x="170" y="612" on="0"/>
        <pt x="238" y="617" on="1"/>
        <pt x="238" y="696" on="1"/>
        <pt x="305" y="696" on="1"/>
        <pt x="305" y="617" on="1"/>
        <pt x="364" y="615" on="0"/>
        <pt x="411" y="604" on="1"/>
        <pt x="411" y="531" on="1"/>
        <pt x="364" y="541" on="0"/>
        <pt x="305" y="541" on="1"/>
        <pt x="305" y="144" on="1"/>
        <pt x="372" y="146" on="0"/>
        <pt x="415" y="155" on="1"/>
      </contour>
      <contour>
        <pt x="156" y="270" on="0"/>
        <pt x="169" y="192" on="0"/>
        <pt x="204" y="154" on="0"/>
        <pt x="238" y="148" on="1"/>
        <pt x="238" y="537" on="1"/>
        <pt x="203" y="531" on="0"/>
        <pt x="169" y="493" on="0"/>
        <pt x="156" y="416" on="0"/>
        <pt x="156" y="343" on="1"/>
      </contour>
    </TTGlyph>
    <TTGlyph name="circumflex" xMin="20" yMin="601" xMax="313" yMax="743">
      <contour>
        <pt x="20" y="607" on="1"/>
        <pt x="121" y="743" on="1"/>
        <pt x="211" y="743" on="1"/>
        <pt x="313" y="607" on="1"/>
        <pt x="313" y="601" on="1"/>
        <pt x="253" y="601" on="1"/>
        <pt x="166" y="697" on="1"/>
        <pt x="79" y="601" on="1"/>
        <pt x="20" y="601" on="1"/>
      </contour>
    </TTGlyph>
    <TTGlyph name="colon" xMin="64" yMin="0" xMax="164" yMax="510">
      <contour>
        <pt x="64" y="510" on="1"/>
        <pt x="164" y="510" on="1"/>
        <pt x="164" y="408" on="1"/>
        <pt x="64" y="408" on="1"/>
      </contour>
      <contour>
        <pt x="64" y="102" on="1"/>
        <pt x="164" y="102" on="1"/>
        <pt x="164" y="0" on="1"/>
        <pt x="64" y="0" on="1"/>
      </contour>
    </TTGlyph>
    <TTGlyph name="comma" xMin="44" yMin="-122" xMax="164" yMax="102">
      <contour>
        <pt x="69" y="-81" on="0"/>
        <pt x="94" y="-71" on="0"/>
        <pt x="103" y="-44" on="0"/>
        <pt x="103" y="-17" on="1"/>
        <pt x="103" y="0" on="1"/>
        <pt x="64" y="0" on="1"/>
        <pt x="64" y="102" on="1"/>
        <pt x="164" y="102" on="1"/>
        <pt x="164" y="19" on="1"/>
        <pt x="164" y="-42" on="0"/>
        <pt x="147" y="-99" on="0"/>
        <pt x="97" y="-122" on="0"/>
        <pt x="44" y="-122" on="1"/>
        <pt x="44" y="-81" on="1"/>
      </contour>
    </TTGlyph>
    <TTGlyph name="copyright" xMin="84" yMin="-8" xMax="648" yMax="696">
      <contour>
        <pt x="225" y="-8" on="0"/>
        <pt x="112" y="41" on="0"/>
        <pt x="84" y="173" on="0"/>
        <pt x="84" y="344" on="1"/>
        <pt x="84" y="514" on="0"/>
        <pt x="112" y="646" on="0"/>
        <pt x="225" y="696" on="0"/>
        <pt x="366" y="696" on="1"/>
        <pt x="507" y="696" on="0"/>
        <pt x="620" y="646" on="0"/>
        <pt x="648" y="514" on="0"/>
        <pt x="648" y="344" on="1"/>
        <pt x="648" y="173" on="0"/>
        <pt x="620" y="41" on="0"/>
        <pt x="507" y="-8" on="0"/>
        <pt x="366" y="-8" on="1"/>
      </contour>
      <contour>
        <pt x="491" y="34" on="0"/>
        <pt x="580" y="68" on="0"/>
        <pt x="604" y="182" on="0"/>
        <pt x="604" y="344" on="1"/>
        <pt x="604" y="505" on="0"/>
        <pt x="580" y="619" on="0"/>
        <pt x="491" y="653" on="0"/>
        <pt x="366" y="653" on="1"/>
        <pt x="241" y="653" on="0"/>
        <pt x="152" y="619" on="0"/>
        <pt x="128" y="505" on="0"/>
        <pt x="128" y="344" on="1"/>
        <pt x="128" y="182" on="0"/>
        <pt x="152" y="68" on="0"/>
        <pt x="241" y="34" on="0"/>
        <pt x="366" y="34" on="1"/>
      </contour>
      <contour>
        <pt x="322" y="153" on="0"/>
        <pt x="260" y="183" on="0"/>
        <pt x="239" y="261" on="0"/>
        <pt x="239" y="343" on="1"/>
        <pt x="239" y="424" on="0"/>
        <pt x="260" y="501" on="0"/>
        <pt x="322" y="532" on="0"/>
        <pt x="389" y="532" on="1"/>
        <pt x="448" y="532" on="0"/>
        <pt x="477" y="524" on="1"/>
        <pt x="477" y="477" on="1"/>
        <pt x="439" y="482" on="0"/>
        <pt x="401" y="482" on="1"/>
        <pt x="349" y="482" on="0"/>
        <pt x="309" y="465" on="0"/>
        <pt x="297" y="412" on="0"/>
        <pt x="297" y="343" on="1"/>
        <pt x="297" y="273" on="0"/>
        <pt x="309" y="219" on="0"/>
        <pt x="349" y="203" on="0"/>
        <pt x="401" y="203" on="1"/>
        <pt x="446" y="203" on="0"/>
        <pt x="479" y="208" on="1"/>
        <pt x="479" y="160" on="1"/>
        <pt x="442" y="153" on="0"/>
        <pt x="389" y="153" on="1"/>
      </contour>
    </TTGlyph>
    <TTGlyph name="currency" xMin="63" yMin="-9" xMax="647" yMax="695">
      <contour>
        <pt x="63" y="42" on="1"/>
        <pt x="157" y="135" on="1"/>
        <pt x="140" y="164" on="0"/>
        <pt x="130" y="258" on="0"/>
        <pt x="130" y="344" on="1"/>
        <pt x="130" y="428" on="0"/>
        <pt x="140" y="523" on="0"/>
        <pt x="156" y="552" on="1"/>
        <pt x="63" y="645" on="1"/>
        <pt x="113" y="695" on="1"/>
        <pt x="210" y="597" on="1"/>
        <pt x="254" y="619" on="0"/>
        <pt x="355" y="619" on="1"/>
        <pt x="455" y="619" on="0"/>
        <pt x="499" y="597" on="1"/>
        <pt x="597" y="695" on="1"/>
        <pt x="647" y="646" on="1"/>
        <pt x="554" y="552" on="1"/>
        <pt x="569" y="523" on="0"/>
        <pt x="579" y="428" on="0"/>
        <pt x="579" y="344" on="1"/>
        <pt x="579" y="259" on="0"/>
        <pt x="569" y="164" on="0"/>
        <pt x="553" y="135" on="1"/>
        <pt x="647" y="41" on="1"/>
        <pt x="597" y="-9" on="1"/>
        <pt x="499" y="90" on="1"/>
        <pt x="454" y="69" on="0"/>
        <pt x="355" y="69" on="1"/>
        <pt x="254" y="69" on="0"/>
        <pt x="211" y="90" on="1"/>
        <pt x="113" y="-8" on="1"/>
      </contour>
      <contour>
        <pt x="425" y="143" on="0"/>
        <pt x="479" y="171" on="0"/>
        <pt x="492" y="244" on="0"/>
        <pt x="492" y="344" on="1"/>
        <pt x="492" y="444" on="0"/>
        <pt x="479" y="517" on="0"/>
        <pt x="425" y="545" on="0"/>
        <pt x="355" y="545" on="1"/>
        <pt x="285" y="545" on="0"/>
        <pt x="231" y="517" on="0"/>
        <pt x="218" y="444" on="0"/>
        <pt x="218" y="344" on="1"/>
        <pt x="218" y="244" on="0"/>
        <pt x="231" y="171" on="0"/>
        <pt x="285" y="143" on="0"/>
        <pt x="355" y="143" on="1"/>
      </contour>
    </TTGlyph>
    <TTGlyph name="d" xMin="63" yMin="-8" xMax="504" yMax="743">
      <contour>
        <pt x="176" y="-8" on="0"/>
        <pt x="96" y="38" on="0"/>
        <pt x="63" y="149" on="0"/>
        <pt x="63" y="254" on="1"/>
        <pt x="63" y="360" on="0"/>
        <pt x="96" y="472" on="0"/>
        <pt x="174" y="518" on="0"/>
        <pt x="247" y="518" on="1"/>
        <pt x="310" y="518" on="0"/>
        <pt x="391" y="485" on="0"/>
        <pt x="411" y="446" on="1"/>
        <pt x="417" y="446" on="1"/>
        <pt x="417" y="743" on="1"/>
        <pt x="504" y="743" on="1"/>
        <pt x="504" y="0" on="1"/>
        <pt x="425" y="0" on="1"/>
        <pt x="421" y="71" on="1"/>
        <pt x="416" y="71" on="1"/>
        <pt x="395" y="25" on="0"/>
        <pt x="310" y="-8" on="0"/>
        <pt x="250" y="-8" on="1"/>
      </contour>
      <contour>
        <pt x="333" y="69" on="0"/>
        <pt x="391" y="96" on="0"/>
        <pt x="402" y="125" on="1"/>
        <pt x="412" y="148" on="0"/>
        <pt x="417" y="208" on="0"/>
        <pt x="417" y="260" on="1"/>
        <pt x="417" y="302" on="0"/>
        <pt x="411" y="359" on="0"/>
        <pt x="403" y="380" on="1"/>
        <pt x="391" y="412" on="0"/>
        <pt x="334" y="440" on="0"/>
        <pt x="282" y="440" on="1"/>
        <pt x="221" y="440" on="0"/>
        <pt x="169" y="415" on="0"/>
        <pt x="151" y="341" on="0"/>
        <pt x="151" y="255" on="1"/>
        <pt x="151" y="168" on="0"/>
        <pt x="169" y="94" on="0"/>
        <pt x="222" y="69" on="0"/>
        <pt x="284" y="69" on="1"/>
      </contour>
    </TTGlyph>
    <TTGlyph name="dagger" xMin="57" yMin="0" xMax="398" yMax="688">
      <contour>
        <pt x="192" y="447" on="1"/>
        <pt x="57" y="454" on="1"/>
        <pt x="57" y="509" on="1"/>
        <pt x="192" y="516" on="1"/>
        <pt x="199" y="688" on="1"/>
        <pt x="255" y="688" on="1"/>
        <pt x="262" y="516" on="1"/>
        <pt x="398" y="509" on="1"/>
        <pt x="398" y="454" on="1"/>
        <pt x="262" y="447" on="1"/>
        <pt x="255" y="0" on="1"/>
        <pt x="199" y="0" on="1"/>
      </contour>
    </TTGlyph>
    <TTGlyph name="daggerdbl" xMin="57" yMin="0" xMax="398" yMax="688">
      <contour>
        <pt x="192" y="171" on="1"/>
        <pt x="57" y="178" on="1"/>
        <pt x="57" y="232" on="1"/>
        <pt x="192" y="240" on="1"/>
        <pt x="192" y="447" on="1"/>
        <pt x="57" y="454" on="1"/>
        <pt x="57" y="509" on="1"/>
        <pt x="192" y="516" on="1"/>
        <pt x="199" y="688" on="1"/>
        <pt x="255" y="688" on="1"/>
        <pt x="262" y="516" on="1"/>
        <pt x="398" y="509" on="1"/>
        <pt x="398" y="454" on="1"/>
        <pt x="262" y="447" on="1"/>
        <pt x="262" y="240" on="1"/>
        <pt x="398" y="232" on="1"/>
        <pt x="398" y="178" on="1"/>
        <pt x="262" y="171" on="1"/>
        <pt x="255" y="0" on="1"/>
        <pt x="199" y="0" on="1"/>
      </contour>
    </TTGlyph>
    <TTGlyph name="dcaron" xMin="63" yMin="-8" xMax="642" yMax="743">
      <component glyphName=".ttfautohint" x="63" y="0" flags="0x0"/>
      <component glyphName="d" x="0" y="0" flags="0x0"/>
      <component glyphName="caron.loclCSY" x="493" y="0" flags="0x0"/>
    </TTGlyph>
    <TTGlyph name="dcroat" xMin="63" yMin="-8" xMax="570" yMax="742">
      <contour>
        <pt x="570" y="615" on="1"/>
        <pt x="503" y="615" on="1"/>
        <pt x="503" y="0" on="1"/>
        <pt x="425" y="0" on="1"/>
        <pt x="421" y="71" on="1"/>
        <pt x="415" y="71" on="1"/>
        <pt x="395" y="25" on="0"/>
        <pt x="310" y="-8" on="0"/>
        <pt x="250" y="-8" on="1"/>
        <pt x="176" y="-8" on="0"/>
        <pt x="96" y="38" on="0"/>
        <pt x="63" y="149" on="0"/>
        <pt x="63" y="254" on="1"/>
        <pt x="63" y="359" on="0"/>
        <pt x="96" y="471" on="0"/>
        <pt x="174" y="517" on="0"/>
        <pt x="247" y="517" on="1"/>
        <pt x="311" y="517" on="0"/>
        <pt x="391" y="485" on="0"/>
        <pt x="411" y="446" on="1"/>
        <pt x="417" y="446" on="1"/>
        <pt x="417" y="615" on="1"/>
        <pt x="283" y="615" on="1"/>
        <pt x="283" y="688" on="1"/>
        <pt x="417" y="688" on="1"/>
        <pt x="417" y="742" on="1"/>
        <pt x="503" y="742" on="1"/>
        <pt x="503" y="688" on="1"/>
        <pt x="570" y="688" on="1"/>
      </contour>
      <contour>
        <pt x="411" y="149" on="0"/>
        <pt x="417" y="210" on="0"/>
        <pt x="417" y="260" on="1"/>
        <pt x="417" y="302" on="0"/>
        <pt x="411" y="359" on="0"/>
        <pt x="403" y="379" on="1"/>
        <pt x="391" y="411" on="0"/>
        <pt x="333" y="440" on="0"/>
        <pt x="282" y="440" on="1"/>
        <pt x="221" y="440" on="0"/>
        <pt x="169" y="415" on="0"/>
        <pt x="151" y="341" on="0"/>
        <pt x="151" y="255" on="1"/>
        <pt x="151" y="168" on="0"/>
        <pt x="169" y="94" on="0"/>
        <pt x="222" y="69" on="0"/>
        <pt x="284" y="69" on="1"/>
        <pt x="333" y="69" on="0"/>
        <pt x="391" y="96" on="0"/>
        <pt x="402" y="125" on="1"/>
      </contour>
    </TTGlyph>
    <TTGlyph name="degree" xMin="62" yMin="397" xMax="327" yMax="696">
      <contour>
        <pt x="132" y="397" on="0"/>
        <pt x="77" y="423" on="0"/>
        <pt x="62" y="481" on="0"/>
        <pt x="62" y="546" on="1"/>
        <pt x="62" y="610" on="0"/>
        <pt x="77" y="669" on="0"/>
        <pt x="132" y="696" on="0"/>
        <pt x="195" y="696" on="1"/>
        <pt x="257" y="696" on="0"/>
        <pt x="312" y="669" on="0"/>
        <pt x="327" y="610" on="0"/>
        <pt x="327" y="546" on="1"/>
        <pt x="327" y="481" on="0"/>
        <pt x="312" y="423" on="0"/>
        <pt x="258" y="397" on="0"/>
        <pt x="195" y="397" on="1"/>
      </contour>
      <contour>
        <pt x="232" y="445" on="0"/>
        <pt x="260" y="460" on="0"/>
        <pt x="267" y="497" on="0"/>
        <pt x="267" y="546" on="1"/>
        <pt x="267" y="595" on="0"/>
        <pt x="260" y="632" on="0"/>
        <pt x="232" y="647" on="0"/>
        <pt x="195" y="647" on="1"/>
        <pt x="158" y="647" on="0"/>
        <pt x="129" y="632" on="0"/>
        <pt x="122" y="595" on="0"/>
        <pt x="122" y="546" on="1"/>
        <pt x="122" y="497" on="0"/>
        <pt x="129" y="460" on="0"/>
        <pt x="158" y="445" on="0"/>
        <pt x="195" y="445" on="1"/>
      </contour>
    </TTGlyph>
    <TTGlyph name="dialog" xMin="59" yMin="-212" xMax="746" yMax="688">
      <contour>
        <pt x="306" y="-127" on="1"/>
        <pt x="494" y="60" on="1"/>
        <pt x="686" y="60" on="1"/>
        <pt x="686" y="628" on="1"/>
        <pt x="119" y="628" on="1"/>
        <pt x="119" y="60" on="1"/>
        <pt x="306" y="60" on="1"/>
        <pt x="306" y="0" on="1"/>
        <pt x="59" y="0" on="1"/>
        <pt x="59" y="688" on="1"/>
        <pt x="746" y="688" on="1"/>
        <pt x="746" y="0" on="1"/>
        <pt x="519" y="0" on="1"/>
        <pt x="306" y="-212" on="1"/>
      </contour>
    </TTGlyph>
    <TTGlyph name="dieresis" xMin="20" yMin="647" xMax="290" yMax="730">
      <contour>
        <pt x="20" y="730" on="1"/>
        <pt x="101" y="730" on="1"/>
        <pt x="101" y="647" on="1"/>
        <pt x="20" y="647" on="1"/>
      </contour>
      <contour>
        <pt x="210" y="730" on="1"/>
        <pt x="290" y="730" on="1"/>
        <pt x="290" y="647" on="1"/>
        <pt x="210" y="647" on="1"/>
      </contour>
    </TTGlyph>
    <TTGlyph name="divide" xMin="70" yMin="25" xMax="469" yMax="479">
      <contour>
        <pt x="232" y="479" on="1"/>
        <pt x="307" y="479" on="1"/>
        <pt x="307" y="400" on="1"/>
        <pt x="232" y="400" on="1"/>
      </contour>
      <contour>
        <pt x="70" y="288" on="1"/>
        <pt x="469" y="288" on="1"/>
        <pt x="469" y="217" on="1"/>
        <pt x="70" y="217" on="1"/>
      </contour>
      <contour>
        <pt x="232" y="105" on="1"/>
        <pt x="307" y="105" on="1"/>
        <pt x="307" y="25" on="1"/>
        <pt x="232" y="25" on="1"/>
      </contour>
    </TTGlyph>
    <TTGlyph name="dollar" xMin="68" yMin="-8" xMax="469" yMax="696">
      <contour>
        <pt x="469" y="167" on="0"/>
        <pt x="437" y="102" on="0"/>
        <pt x="367" y="72" on="0"/>
        <pt x="304" y="69" on="1"/>
        <pt x="304" y="-8" on="1"/>
        <pt x="237" y="-8" on="1"/>
        <pt x="237" y="68" on="1"/>
        <pt x="151" y="71" on="0"/>
        <pt x="84" y="81" on="1"/>
        <pt x="84" y="154" on="1"/>
        <pt x="168" y="145" on="0"/>
        <pt x="237" y="144" on="1"/>
        <pt x="237" y="309" on="1"/>
        <pt x="182" y="316" on="1"/>
        <pt x="136" y="321" on="0"/>
        <pt x="87" y="356" on="0"/>
        <pt x="68" y="414" on="0"/>
        <pt x="68" y="462" on="1"/>
        <pt x="68" y="545" on="0"/>
        <pt x="149" y="611" on="0"/>
        <pt x="237" y="617" on="1"/>
        <pt x="237" y="696" on="1"/>
        <pt x="304" y="696" on="1"/>
        <pt x="304" y="617" on="1"/>
        <pt x="378" y="616" on="0"/>
        <pt x="440" y="604" on="1"/>
        <pt x="440" y="531" on="1"/>
        <pt x="374" y="540" on="0"/>
        <pt x="304" y="542" on="1"/>
        <pt x="304" y="383" on="1"/>
        <pt x="363" y="376" on="1"/>
        <pt x="403" y="371" on="0"/>
        <pt x="448" y="344" on="0"/>
        <pt x="469" y="283" on="0"/>
        <pt x="469" y="226" on="1"/>
      </contour>
      <contour>
        <pt x="237" y="390" on="1"/>
        <pt x="237" y="542" on="1"/>
        <pt x="193" y="540" on="0"/>
        <pt x="154" y="508" on="0"/>
        <pt x="154" y="466" on="1"/>
        <pt x="154" y="434" on="0"/>
        <pt x="163" y="406" on="0"/>
        <pt x="187" y="395" on="0"/>
        <pt x="215" y="392" on="1"/>
      </contour>
      <contour>
        <pt x="338" y="147" on="0"/>
        <pt x="371" y="164" on="0"/>
        <pt x="382" y="195" on="0"/>
        <pt x="382" y="223" on="1"/>
        <pt x="382" y="257" on="0"/>
        <pt x="372" y="287" on="0"/>
        <pt x="348" y="297" on="0"/>
        <pt x="320" y="300" on="1"/>
        <pt x="304" y="301" on="1"/>
        <pt x="304" y="145" on="1"/>
      </contour>
    </TTGlyph>
    <TTGlyph name="dotaccent" xMin="20" yMin="647" xMax="101" yMax="730">
      <contour>
        <pt x="20" y="730" on="1"/>
        <pt x="101" y="730" on="1"/>
        <pt x="101" y="647" on="1"/>
        <pt x="20" y="647" on="1"/>
      </contour>
    </TTGlyph>
    <TTGlyph name="dotbelowcomb" xMin="-164" yMin="-164" xMax="-64" yMax="-62">
      <contour>
        <pt x="-164" y="-62" on="1"/>
        <pt x="-64" y="-62" on="1"/>
        <pt x="-64" y="-164" on="1"/>
        <pt x="-164" y="-164" on="1"/>
      </contour>
    </TTGlyph>
    <TTGlyph name="dotlessi" xMin="85" yMin="0" xMax="172" yMax="510">
      <contour>
        <pt x="85" y="510" on="1"/>
        <pt x="172" y="510" on="1"/>
        <pt x="172" y="0" on="1"/>
        <pt x="85" y="0" on="1"/>
      </contour>
    </TTGlyph>
    <TTGlyph name="e" xMin="64" yMin="-8" xMax="496" yMax="518">
      <contour>
        <pt x="496" y="219" on="1"/>
        <pt x="151" y="219" on="1"/>
        <pt x="151" y="153" on="0"/>
        <pt x="168" y="95" on="0"/>
        <pt x="236" y="69" on="0"/>
        <pt x="314" y="69" on="1"/>
        <pt x="389" y="69" on="0"/>
        <pt x="476" y="79" on="1"/>
        <pt x="476" y="6" on="1"/>
        <pt x="444" y="0" on="0"/>
        <pt x="342" y="-8" on="0"/>
        <pt x="295" y="-8" on="1"/>
        <pt x="193" y="-8" on="0"/>
        <pt x="96" y="41" on="0"/>
        <pt x="64" y="148" on="0"/>
        <pt x="64" y="254" on="1"/>
        <pt x="64" y="359" on="0"/>
        <pt x="92" y="466" on="0"/>
        <pt x="188" y="518" on="0"/>
        <pt x="290" y="518" on="1"/>
        <pt x="384" y="518" on="0"/>
        <pt x="472" y="466" on="0"/>
        <pt x="496" y="361" on="0"/>
        <pt x="496" y="255" on="1"/>
      </contour>
      <contour>
        <pt x="225" y="441" on="0"/>
        <pt x="168" y="415" on="0"/>
        <pt x="151" y="356" on="0"/>
        <pt x="151" y="293" on="1"/>
        <pt x="409" y="293" on="1"/>
        <pt x="409" y="360" on="0"/>
        <pt x="390" y="421" on="0"/>
        <pt x="342" y="441" on="0"/>
        <pt x="288" y="441" on="1"/>
      </contour>
    </TTGlyph>
    <TTGlyph name="eacute" xMin="64" yMin="-8" xMax="496" yMax="743">
      <component glyphName=".ttfautohint" x="64" y="0" flags="0x0"/>
      <component glyphName="e" x="0" y="0" flags="0x0"/>
      <component glyphName="acute" x="222" y="0" flags="0x0"/>
    </TTGlyph>
    <TTGlyph name="ebreve" xMin="64" yMin="-8" xMax="496" yMax="742">
      <component glyphName=".ttfautohint" x="64" y="0" flags="0x0"/>
      <component glyphName="e" x="0" y="0" flags="0x0"/>
      <component glyphName="uni0306" x="438" y="0" flags="0x0"/>
    </TTGlyph>
    <TTGlyph name="ecaron" xMin="64" yMin="-8" xMax="496" yMax="742">
      <component glyphName=".ttfautohint" x="64" y="0" flags="0x0"/>
      <component glyphName="e" x="0" y="0" flags="0x0"/>
      <component glyphName="uni030C" x="447" y="0" flags="0x0"/>
    </TTGlyph>
    <TTGlyph name="ecircumflex" xMin="64" yMin="-8" xMax="496" yMax="743">
      <component glyphName=".ttfautohint" x="64" y="0" flags="0x0"/>
      <component glyphName="e" x="0" y="0" flags="0x0"/>
      <component glyphName="circumflex" x="116" y="0" flags="0x0"/>
    </TTGlyph>
    <TTGlyph name="edieresis" xMin="64" yMin="-8" xMax="496" yMax="730">
      <component glyphName=".ttfautohint" x="64" y="0" flags="0x0"/>
      <component glyphName="e" x="0" y="0" flags="0x0"/>
      <component glyphName="dieresis" x="128" y="0" flags="0x0"/>
    </TTGlyph>
    <TTGlyph name="edotaccent" xMin="64" yMin="-8" xMax="496" yMax="729">
      <component glyphName=".ttfautohint" x="64" y="0" flags="0x0"/>
      <component glyphName="e" x="0" y="0" flags="0x0"/>
      <component glyphName="uni0307" x="340" y="0" flags="0x0"/>
    </TTGlyph>
    <TTGlyph name="egrave" xMin="64" yMin="-8" xMax="496" yMax="743">
      <component glyphName=".ttfautohint" x="64" y="0" flags="0x0"/>
      <component glyphName="e" x="0" y="0" flags="0x0"/>
      <component glyphName="grave" x="117" y="0" flags="0x0"/>
    </TTGlyph>
    <TTGlyph name="eight" xMin="73" yMin="-8" xMax="608" yMax="696">
      <contour>
        <pt x="231" y="-8" on="0"/>
        <pt x="115" y="35" on="0"/>
        <pt x="73" y="117" on="0"/>
        <pt x="73" y="184" on="1"/>
        <pt x="73" y="241" on="0"/>
        <pt x="100" y="307" on="0"/>
        <pt x="153" y="339" on="0"/>
        <pt x="197" y="349" on="1"/>
        <pt x="197" y="353" on="1"/>
        <pt x="135" y="365" on="0"/>
        <pt x="79" y="441" on="0"/>
        <pt x="79" y="515" on="1"/>
        <pt x="79" y="579" on="0"/>
        <pt x="125" y="657" on="0"/>
        <pt x="239" y="696" on="0"/>
        <pt x="340" y="696" on="1"/>
        <pt x="442" y="696" on="0"/>
        <pt x="556" y="657" on="0"/>
        <pt x="602" y="579" on="0"/>
        <pt x="602" y="515" on="1"/>
        <pt x="602" y="441" on="0"/>
        <pt x="545" y="365" on="0"/>
        <pt x="483" y="353" on="1"/>
        <pt x="483" y="349" on="1"/>
        <pt x="528" y="339" on="0"/>
        <pt x="581" y="307" on="0"/>
        <pt x="608" y="241" on="0"/>
        <pt x="608" y="184" on="1"/>
        <pt x="608" y="117" on="0"/>
        <pt x="566" y="35" on="0"/>
        <pt x="449" y="-8" on="0"/>
        <pt x="340" y="-8" on="1"/>
      </contour>
      <contour>
        <pt x="411" y="387" on="0"/>
        <pt x="481" y="405" on="0"/>
        <pt x="509" y="453" on="0"/>
        <pt x="509" y="501" on="1"/>
        <pt x="509" y="550" on="0"/>
        <pt x="482" y="598" on="0"/>
        <pt x="412" y="617" on="0"/>
        <pt x="340" y="617" on="1"/>
        <pt x="268" y="617" on="0"/>
        <pt x="199" y="598" on="0"/>
        <pt x="173" y="550" on="0"/>
        <pt x="173" y="501" on="1"/>
        <pt x="173" y="453" on="0"/>
        <pt x="200" y="405" on="0"/>
        <pt x="269" y="387" on="0"/>
        <pt x="340" y="387" on="1"/>
      </contour>
      <contour>
        <pt x="412" y="71" on="0"/>
        <pt x="484" y="88" on="0"/>
        <pt x="515" y="137" on="0"/>
        <pt x="515" y="188" on="1"/>
        <pt x="515" y="242" on="0"/>
        <pt x="486" y="292" on="0"/>
        <pt x="415" y="309" on="0"/>
        <pt x="340" y="309" on="1"/>
        <pt x="265" y="309" on="0"/>
        <pt x="195" y="292" on="0"/>
        <pt x="167" y="242" on="0"/>
        <pt x="167" y="188" on="1"/>
        <pt x="167" y="137" on="0"/>
        <pt x="197" y="88" on="0"/>
        <pt x="268" y="71" on="0"/>
        <pt x="340" y="71" on="1"/>
      </contour>
    </TTGlyph>
    <TTGlyph name="eight.dnom" xMin="42" yMin="-4" xMax="353" yMax="382">
      <contour>
        <pt x="134" y="-4" on="0"/>
        <pt x="67" y="19" on="0"/>
        <pt x="42" y="63" on="0"/>
        <pt x="42" y="101" on="1"/>
        <pt x="42" y="146" on="0"/>
        <pt x="76" y="184" on="0"/>
        <pt x="114" y="192" on="1"/>
        <pt x="114" y="193" on="1"/>
        <pt x="78" y="200" on="0"/>
        <pt x="45" y="242" on="0"/>
        <pt x="45" y="283" on="1"/>
        <pt x="45" y="337" on="0"/>
        <pt x="111" y="382" on="0"/>
        <pt x="197" y="382" on="1"/>
        <pt x="283" y="382" on="0"/>
        <pt x="349" y="337" on="0"/>
        <pt x="349" y="283" on="1"/>
        <pt x="349" y="242" on="0"/>
        <pt x="317" y="200" on="0"/>
        <pt x="281" y="193" on="1"/>
        <pt x="281" y="192" on="1"/>
        <pt x="319" y="184" on="0"/>
        <pt x="353" y="146" on="0"/>
        <pt x="353" y="101" on="1"/>
        <pt x="353" y="64" on="0"/>
        <pt x="328" y="19" on="0"/>
        <pt x="260" y="-4" on="0"/>
        <pt x="197" y="-4" on="1"/>
      </contour>
      <contour>
        <pt x="234" y="214" on="0"/>
        <pt x="271" y="224" on="0"/>
        <pt x="285" y="248" on="0"/>
        <pt x="285" y="273" on="1"/>
        <pt x="285" y="298" on="0"/>
        <pt x="271" y="322" on="0"/>
        <pt x="235" y="332" on="0"/>
        <pt x="197" y="332" on="1"/>
        <pt x="159" y="332" on="0"/>
        <pt x="123" y="322" on="0"/>
        <pt x="109" y="298" on="0"/>
        <pt x="109" y="273" on="1"/>
        <pt x="109" y="248" on="0"/>
        <pt x="124" y="224" on="0"/>
        <pt x="160" y="214" on="0"/>
        <pt x="197" y="214" on="1"/>
      </contour>
      <contour>
        <pt x="235" y="46" on="0"/>
        <pt x="273" y="55" on="0"/>
        <pt x="289" y="80" on="0"/>
        <pt x="289" y="106" on="1"/>
        <pt x="289" y="133" on="0"/>
        <pt x="274" y="159" on="0"/>
        <pt x="236" y="168" on="0"/>
        <pt x="197" y="168" on="1"/>
        <pt x="158" y="168" on="0"/>
        <pt x="121" y="159" on="0"/>
        <pt x="106" y="134" on="0"/>
        <pt x="106" y="106" on="1"/>
        <pt x="106" y="80" on="0"/>
        <pt x="122" y="55" on="0"/>
        <pt x="160" y="46" on="0"/>
        <pt x="197" y="46" on="1"/>
      </contour>
    </TTGlyph>
    <TTGlyph name="eight.numr" xMin="42" yMin="304" xMax="353" yMax="690">
      <component glyphName=".ttfautohint" x="42" y="304" flags="0x0"/>
      <component glyphName="eight.dnom" x="0" y="308" flags="0x4"/>
    </TTGlyph>
    <TTGlyph name="eight.tnum" xMin="62" yMin="-8" xMax="597" yMax="696">
      <contour>
        <pt x="220" y="-8" on="0"/>
        <pt x="104" y="35" on="0"/>
        <pt x="62" y="117" on="0"/>
        <pt x="62" y="184" on="1"/>
        <pt x="62" y="241" on="0"/>
        <pt x="89" y="307" on="0"/>
        <pt x="142" y="339" on="0"/>
        <pt x="186" y="349" on="1"/>
        <pt x="186" y="353" on="1"/>
        <pt x="124" y="365" on="0"/>
        <pt x="68" y="441" on="0"/>
        <pt x="68" y="515" on="1"/>
        <pt x="68" y="579" on="0"/>
        <pt x="114" y="657" on="0"/>
        <pt x="228" y="696" on="0"/>
        <pt x="329" y="696" on="1"/>
        <pt x="431" y="696" on="0"/>
        <pt x="545" y="657" on="0"/>
        <pt x="591" y="579" on="0"/>
        <pt x="591" y="515" on="1"/>
        <pt x="591" y="441" on="0"/>
        <pt x="534" y="365" on="0"/>
        <pt x="472" y="353" on="1"/>
        <pt x="472" y="349" on="1"/>
        <pt x="517" y="339" on="0"/>
        <pt x="570" y="307" on="0"/>
        <pt x="597" y="241" on="0"/>
        <pt x="597" y="184" on="1"/>
        <pt x="597" y="117" on="0"/>
        <pt x="555" y="35" on="0"/>
        <pt x="439" y="-8" on="0"/>
        <pt x="329" y="-8" on="1"/>
      </contour>
      <contour>
        <pt x="400" y="387" on="0"/>
        <pt x="470" y="405" on="0"/>
        <pt x="498" y="453" on="0"/>
        <pt x="498" y="501" on="1"/>
        <pt x="498" y="550" on="0"/>
        <pt x="471" y="598" on="0"/>
        <pt x="401" y="617" on="0"/>
        <pt x="329" y="617" on="1"/>
        <pt x="257" y="617" on="0"/>
        <pt x="188" y="598" on="0"/>
        <pt x="162" y="550" on="0"/>
        <pt x="162" y="501" on="1"/>
        <pt x="162" y="453" on="0"/>
        <pt x="189" y="405" on="0"/>
        <pt x="258" y="387" on="0"/>
        <pt x="329" y="387" on="1"/>
      </contour>
      <contour>
        <pt x="401" y="71" on="0"/>
        <pt x="473" y="88" on="0"/>
        <pt x="504" y="137" on="0"/>
        <pt x="504" y="188" on="1"/>
        <pt x="504" y="242" on="0"/>
        <pt x="475" y="292" on="0"/>
        <pt x="404" y="309" on="0"/>
        <pt x="329" y="309" on="1"/>
        <pt x="254" y="309" on="0"/>
        <pt x="184" y="292" on="0"/>
        <pt x="156" y="242" on="0"/>
        <pt x="156" y="188" on="1"/>
        <pt x="156" y="137" on="0"/>
        <pt x="186" y="88" on="0"/>
        <pt x="257" y="71" on="0"/>
        <pt x="329" y="71" on="1"/>
      </contour>
    </TTGlyph>
    <TTGlyph name="ellipsis" xMin="64" yMin="0" xMax="622" yMax="102">
      <contour>
        <pt x="64" y="102" on="1"/>
        <pt x="164" y="102" on="1"/>
        <pt x="164" y="0" on="1"/>
        <pt x="64" y="0" on="1"/>
      </contour>
      <contour>
        <pt x="292" y="102" on="1"/>
        <pt x="394" y="102" on="1"/>
        <pt x="394" y="0" on="1"/>
        <pt x="292" y="0" on="1"/>
      </contour>
      <contour>
        <pt x="521" y="102" on="1"/>
        <pt x="622" y="102" on="1"/>
        <pt x="622" y="0" on="1"/>
        <pt x="521" y="0" on="1"/>
      </contour>
    </TTGlyph>
    <TTGlyph name="emacron" xMin="64" yMin="-8" xMax="496" yMax="741">
      <component glyphName=".ttfautohint" x="64" y="0" flags="0x0"/>
      <component glyphName="e" x="0" y="0" flags="0x0"/>
      <component glyphName="uni0304" x="461" y="0" flags="0x0"/>
    </TTGlyph>
    <TTGlyph name="emdash" xMin="56" yMin="268" xMax="817" yMax="339">
      <contour>
        <pt x="56" y="339" on="1"/>
        <pt x="817" y="339" on="1"/>
        <pt x="817" y="268" on="1"/>
        <pt x="56" y="268" on="1"/>
      </contour>
    </TTGlyph>
    <TTGlyph name="endash" xMin="56" yMin="268" xMax="416" yMax="339">
      <contour>
        <pt x="56" y="339" on="1"/>
        <pt x="416" y="339" on="1"/>
        <pt x="416" y="268" on="1"/>
        <pt x="56" y="268" on="1"/>
      </contour>
    </TTGlyph>
    <TTGlyph name="eng" xMin="85" yMin="-200" xMax="512" yMax="518">
      <contour>
        <pt x="413" y="518" on="0"/>
        <pt x="487" y="476" on="0"/>
        <pt x="512" y="393" on="0"/>
        <pt x="512" y="319" on="1"/>
        <pt x="512" y="-58" on="1"/>
        <pt x="512" y="-123" on="0"/>
        <pt x="479" y="-183" on="0"/>
        <pt x="407" y="-200" on="0"/>
        <pt x="331" y="-200" on="1"/>
        <pt x="331" y="-132" on="1"/>
        <pt x="374" y="-132" on="0"/>
        <pt x="414" y="-122" on="0"/>
        <pt x="425" y="-100" on="0"/>
        <pt x="425" y="-77" on="1"/>
        <pt x="425" y="287" on="1"/>
        <pt x="425" y="359" on="0"/>
        <pt x="408" y="420" on="0"/>
        <pt x="360" y="440" on="0"/>
        <pt x="304" y="440" on="1"/>
        <pt x="244" y="440" on="0"/>
        <pt x="187" y="400" on="0"/>
        <pt x="172" y="328" on="0"/>
        <pt x="172" y="263" on="1"/>
        <pt x="172" y="0" on="1"/>
        <pt x="85" y="0" on="1"/>
        <pt x="85" y="510" on="1"/>
        <pt x="163" y="510" on="1"/>
        <pt x="167" y="438" on="1"/>
        <pt x="173" y="438" on="1"/>
        <pt x="191" y="477" on="0"/>
        <pt x="268" y="518" on="0"/>
        <pt x="340" y="518" on="1"/>
      </contour>
    </TTGlyph>
    <TTGlyph name="eogonek" xMin="63" yMin="-196" xMax="495" yMax="518">
      <contour>
        <pt x="495" y="226" on="1"/>
        <pt x="151" y="226" on="1"/>
        <pt x="151" y="152" on="0"/>
        <pt x="170" y="90" on="0"/>
        <pt x="235" y="65" on="0"/>
        <pt x="313" y="65" on="1"/>
        <pt x="389" y="65" on="0"/>
        <pt x="475" y="76" on="1"/>
        <pt x="475" y="6" on="1"/>
        <pt x="447" y="-12" on="0"/>
        <pt x="398" y="-75" on="0"/>
        <pt x="398" y="-102" on="1"/>
        <pt x="398" y="-139" on="0"/>
        <pt x="443" y="-139" on="1"/>
        <pt x="458" y="-139" on="0"/>
        <pt x="462" y="-138" on="1"/>
        <pt x="462" y="-194" on="1"/>
        <pt x="459" y="-194" on="0"/>
        <pt x="439" y="-196" on="0"/>
        <pt x="420" y="-196" on="1"/>
        <pt x="368" y="-196" on="0"/>
        <pt x="322" y="-155" on="0"/>
        <pt x="322" y="-122" on="1"/>
        <pt x="322" y="-63" on="0"/>
        <pt x="386" y="-5" on="1"/>
        <pt x="343" y="-8" on="0"/>
        <pt x="294" y="-8" on="1"/>
        <pt x="190" y="-8" on="0"/>
        <pt x="93" y="40" on="0"/>
        <pt x="63" y="146" on="0"/>
        <pt x="63" y="254" on="1"/>
        <pt x="63" y="360" on="0"/>
        <pt x="91" y="466" on="0"/>
        <pt x="187" y="518" on="0"/>
        <pt x="289" y="518" on="1"/>
        <pt x="385" y="518" on="0"/>
        <pt x="472" y="467" on="0"/>
        <pt x="495" y="364" on="0"/>
        <pt x="495" y="255" on="1"/>
      </contour>
      <contour>
        <pt x="225" y="445" on="0"/>
        <pt x="169" y="421" on="0"/>
        <pt x="151" y="358" on="0"/>
        <pt x="151" y="288" on="1"/>
        <pt x="411" y="288" on="1"/>
        <pt x="411" y="296" on="1"/>
        <pt x="411" y="363" on="0"/>
        <pt x="389" y="425" on="0"/>
        <pt x="339" y="445" on="0"/>
        <pt x="287" y="445" on="1"/>
      </contour>
    </TTGlyph>
    <TTGlyph name="equal" xMin="70" yMin="117" xMax="469" yMax="388">
      <contour>
        <pt x="70" y="388" on="1"/>
        <pt x="469" y="388" on="1"/>
        <pt x="469" y="317" on="1"/>
        <pt x="70" y="317" on="1"/>
      </contour>
      <contour>
        <pt x="70" y="188" on="1"/>
        <pt x="469" y="188" on="1"/>
        <pt x="469" y="117" on="1"/>
        <pt x="70" y="117" on="1"/>
      </contour>
    </TTGlyph>
    <TTGlyph name="estimated" xMin="75" yMin="-8" xMax="640" yMax="696">
      <contour>
        <pt x="167" y="169" on="0"/>
        <pt x="191" y="55" on="0"/>
        <pt x="266" y="26" on="0"/>
        <pt x="369" y="26" on="1"/>
        <pt x="466" y="26" on="0"/>
        <pt x="552" y="47" on="0"/>
        <pt x="591" y="118" on="0"/>
        <pt x="596" y="200" on="1"/>
        <pt x="632" y="200" on="1"/>
        <pt x="626" y="108" on="0"/>
        <pt x="581" y="23" on="0"/>
        <pt x="472" y="-8" on="0"/>
        <pt x="357" y="-8" on="1"/>
        <pt x="220" y="-8" on="0"/>
        <pt x="106" y="46" on="0"/>
        <pt x="75" y="181" on="0"/>
        <pt x="75" y="344" on="1"/>
        <pt x="75" y="507" on="0"/>
        <pt x="106" y="642" on="0"/>
        <pt x="220" y="696" on="0"/>
        <pt x="357" y="696" on="1"/>
        <pt x="494" y="696" on="0"/>
        <pt x="609" y="642" on="0"/>
        <pt x="640" y="506" on="0"/>
        <pt x="640" y="344" on="1"/>
        <pt x="640" y="323" on="1"/>
        <pt x="167" y="323" on="1"/>
      </contour>
      <contour>
        <pt x="259" y="662" on="0"/>
        <pt x="189" y="632" on="0"/>
        <pt x="167" y="515" on="0"/>
        <pt x="167" y="357" on="1"/>
        <pt x="548" y="357" on="1"/>
        <pt x="547" y="515" on="0"/>
        <pt x="525" y="632" on="0"/>
        <pt x="455" y="662" on="0"/>
        <pt x="357" y="662" on="1"/>
      </contour>
    </TTGlyph>
    <TTGlyph name="eth" xMin="63" yMin="-8" xMax="512" yMax="743">
      <contour>
        <pt x="182" y="-8" on="0"/>
        <pt x="89" y="37" on="0"/>
        <pt x="63" y="140" on="0"/>
        <pt x="63" y="254" on="1"/>
        <pt x="63" y="363" on="0"/>
        <pt x="87" y="467" on="0"/>
        <pt x="173" y="517" on="0"/>
        <pt x="267" y="517" on="1"/>
        <pt x="348" y="517" on="0"/>
        <pt x="392" y="492" on="1"/>
        <pt x="397" y="495" on="1"/>
        <pt x="373" y="562" on="0"/>
        <pt x="336" y="617" on="1"/>
        <pt x="218" y="597" on="1"/>
        <pt x="218" y="656" on="1"/>
        <pt x="297" y="669" on="1"/>
        <pt x="266" y="704" on="0"/>
        <pt x="225" y="739" on="1"/>
        <pt x="225" y="743" on="1"/>
        <pt x="322" y="743" on="1"/>
        <pt x="325" y="740" on="0"/>
        <pt x="362" y="707" on="0"/>
        <pt x="382" y="683" on="1"/>
        <pt x="491" y="701" on="1"/>
        <pt x="491" y="642" on="1"/>
        <pt x="421" y="630" on="1"/>
        <pt x="447" y="591" on="0"/>
        <pt x="487" y="491" on="0"/>
        <pt x="497" y="437" on="1"/>
        <pt x="512" y="356" on="0"/>
        <pt x="512" y="271" on="1"/>
        <pt x="512" y="146" on="0"/>
        <pt x="488" y="38" on="0"/>
        <pt x="396" y="-8" on="0"/>
        <pt x="288" y="-8" on="1"/>
      </contour>
      <contour>
        <pt x="359" y="65" on="0"/>
        <pt x="413" y="91" on="0"/>
        <pt x="425" y="160" on="0"/>
        <pt x="425" y="254" on="1"/>
        <pt x="425" y="338" on="0"/>
        <pt x="412" y="409" on="0"/>
        <pt x="355" y="444" on="0"/>
        <pt x="288" y="444" on="1"/>
        <pt x="218" y="444" on="0"/>
        <pt x="164" y="418" on="0"/>
        <pt x="151" y="348" on="0"/>
        <pt x="151" y="254" on="1"/>
        <pt x="151" y="160" on="0"/>
        <pt x="163" y="91" on="0"/>
        <pt x="217" y="65" on="0"/>
        <pt x="288" y="65" on="1"/>
      </contour>
    </TTGlyph>
    <TTGlyph name="exclam" xMin="80" yMin="0" xMax="181" yMax="688">
      <contour>
        <pt x="97" y="214" on="0"/>
        <pt x="91" y="340" on="1"/>
        <pt x="80" y="542" on="0"/>
        <pt x="80" y="591" on="1"/>
        <pt x="80" y="688" on="1"/>
        <pt x="181" y="688" on="1"/>
        <pt x="181" y="591" on="1"/>
        <pt x="181" y="542" on="0"/>
        <pt x="170" y="340" on="1"/>
        <pt x="164" y="214" on="0"/>
        <pt x="164" y="200" on="1"/>
        <pt x="97" y="200" on="1"/>
      </contour>
      <contour>
        <pt x="80" y="102" on="1"/>
        <pt x="181" y="102" on="1"/>
        <pt x="181" y="0" on="1"/>
        <pt x="80" y="0" on="1"/>
      </contour>
    </TTGlyph>
    <TTGlyph name="exclam.case" xMin="80" yMin="0" xMax="181" yMax="688">
      <component glyphName=".ttfautohint" x="80" y="0" flags="0x0"/>
      <component glyphName="exclam" x="0" y="0" flags="0x0"/>
    </TTGlyph>
    <TTGlyph name="exclam.ss02" xMin="45" yMin="-8" xMax="749" yMax="696">
      <contour>
        <pt x="302" y="-8" on="0"/>
        <pt x="140" y="87" on="0"/>
        <pt x="45" y="249" on="0"/>
        <pt x="45" y="344" on="1"/>
        <pt x="45" y="439" on="0"/>
        <pt x="140" y="601" on="0"/>
        <pt x="302" y="696" on="0"/>
        <pt x="397" y="696" on="1"/>
        <pt x="492" y="696" on="0"/>
        <pt x="654" y="601" on="0"/>
        <pt x="749" y="439" on="0"/>
        <pt x="749" y="344" on="1"/>
        <pt x="749" y="249" on="0"/>
        <pt x="654" y="87" on="0"/>
        <pt x="492" y="-8" on="0"/>
        <pt x="397" y="-8" on="1"/>
      </contour>
      <contour>
        <pt x="480" y="37" on="0"/>
        <pt x="621" y="120" on="0"/>
        <pt x="704" y="261" on="0"/>
        <pt x="704" y="344" on="1"/>
        <pt x="704" y="427" on="0"/>
        <pt x="621" y="568" on="0"/>
        <pt x="480" y="651" on="0"/>
        <pt x="397" y="651" on="1"/>
        <pt x="314" y="651" on="0"/>
        <pt x="173" y="568" on="0"/>
        <pt x="90" y="427" on="0"/>
        <pt x="90" y="344" on="1"/>
        <pt x="90" y="261" on="0"/>
        <pt x="173" y="120" on="0"/>
        <pt x="314" y="37" on="0"/>
        <pt x="397" y="37" on="1"/>
      </contour>
      <contour>
        <pt x="373" y="298" on="0"/>
        <pt x="363" y="416" on="0"/>
        <pt x="363" y="480" on="1"/>
        <pt x="363" y="579" on="1"/>
        <pt x="431" y="579" on="1"/>
        <pt x="431" y="480" on="1"/>
        <pt x="431" y="416" on="0"/>
        <pt x="421" y="298" on="0"/>
        <pt x="417" y="268" on="1"/>
        <pt x="377" y="268" on="1"/>
      </contour>
      <contour>
        <pt x="363" y="191" on="1"/>
        <pt x="431" y="191" on="1"/>
        <pt x="431" y="109" on="1"/>
        <pt x="363" y="109" on="1"/>
      </contour>
    </TTGlyph>
    <TTGlyph name="exclamdbl" xMin="80" yMin="0" xMax="394" yMax="688">
      <component glyphName=".ttfautohint" x="80" y="0" flags="0x0"/>
      <component glyphName="exclam" x="213" y="0" flags="0x0"/>
      <component glyphName="exclam" x="0" y="0" flags="0x0"/>
    </TTGlyph>
    <TTGlyph name="exclamdown" xMin="73" yMin="-178" xMax="175" yMax="510">
      <contour>
        <pt x="74" y="510" on="1"/>
        <pt x="174" y="510" on="1"/>
        <pt x="174" y="408" on="1"/>
        <pt x="74" y="408" on="1"/>
      </contour>
      <contour>
        <pt x="73" y="-81" on="1"/>
        <pt x="73" y="-31" on="0"/>
        <pt x="84" y="171" on="1"/>
        <pt x="90" y="295" on="0"/>
        <pt x="90" y="309" on="1"/>
        <pt x="158" y="309" on="1"/>
        <pt x="158" y="295" on="0"/>
        <pt x="164" y="171" on="1"/>
        <pt x="175" y="-31" on="0"/>
        <pt x="175" y="-81" on="1"/>
        <pt x="175" y="-178" on="1"/>
        <pt x="73" y="-178" on="1"/>
      </contour>
    </TTGlyph>
    <TTGlyph name="exclamdown.case" xMin="73" yMin="0" xMax="175" yMax="688">
      <component glyphName=".ttfautohint" x="73" y="0" flags="0x0"/>
      <component glyphName="exclamdown" x="0" y="178" flags="0x4"/>
    </TTGlyph>
    <TTGlyph name="f" xMin="26" yMin="0" xMax="346" yMax="742">
      <contour>
        <pt x="129" y="436" on="1"/>
        <pt x="26" y="436" on="1"/>
        <pt x="26" y="510" on="1"/>
        <pt x="129" y="510" on="1"/>
        <pt x="129" y="586" on="1"/>
        <pt x="129" y="659" on="0"/>
        <pt x="169" y="724" on="0"/>
        <pt x="255" y="742" on="0"/>
        <pt x="346" y="742" on="1"/>
        <pt x="346" y="675" on="1"/>
        <pt x="289" y="675" on="0"/>
        <pt x="236" y="664" on="0"/>
        <pt x="216" y="634" on="0"/>
        <pt x="216" y="601" on="1"/>
        <pt x="216" y="510" on="1"/>
        <pt x="346" y="510" on="1"/>
        <pt x="346" y="436" on="1"/>
        <pt x="216" y="436" on="1"/>
        <pt x="216" y="0" on="1"/>
        <pt x="129" y="0" on="1"/>
      </contour>
    </TTGlyph>
    <TTGlyph name="f_f" xMin="26" yMin="0" xMax="721" yMax="742">
      <component glyphName=".ttfautohint" x="26" y="0" flags="0x0"/>
      <component glyphName="f" x="0" y="0" flags="0x0"/>
      <component glyphName="f" x="375" y="0" flags="0x0"/>
    </TTGlyph>
    <TTGlyph name="fi" xMin="26" yMin="0" xMax="549" yMax="743">
      <component glyphName=".ttfautohint" x="26" y="0" flags="0x0"/>
      <component glyphName="f" x="0" y="0" flags="0x0"/>
      <component glyphName="i" x="375" y="0" flags="0x0"/>
    </TTGlyph>
    <TTGlyph name="five" xMin="81" yMin="-8" xMax="550" yMax="688">
      <contour>
        <pt x="203" y="71" on="0"/>
        <pt x="280" y="71" on="1"/>
        <pt x="354" y="71" on="0"/>
        <pt x="429" y="95" on="0"/>
        <pt x="457" y="150" on="0"/>
        <pt x="457" y="204" on="1"/>
        <pt x="457" y="262" on="0"/>
        <pt x="426" y="314" on="0"/>
        <pt x="349" y="332" on="0"/>
        <pt x="267" y="332" on="1"/>
        <pt x="206" y="332" on="0"/>
        <pt x="89" y="319" on="1"/>
        <pt x="89" y="688" on="1"/>
        <pt x="499" y="688" on="1"/>
        <pt x="499" y="608" on="1"/>
        <pt x="174" y="608" on="1"/>
        <pt x="174" y="401" on="1"/>
        <pt x="202" y="405" on="0"/>
        <pt x="287" y="411" on="0"/>
        <pt x="323" y="411" on="1"/>
        <pt x="417" y="411" on="0"/>
        <pt x="515" y="368" on="0"/>
        <pt x="550" y="284" on="0"/>
        <pt x="550" y="214" on="1"/>
        <pt x="550" y="129" on="0"/>
        <pt x="507" y="35" on="0"/>
        <pt x="394" y="-8" on="0"/>
        <pt x="287" y="-8" on="1"/>
        <pt x="239" y="-8" on="0"/>
        <pt x="122" y="2" on="0"/>
        <pt x="81" y="10" on="1"/>
        <pt x="81" y="83" on="1"/>
      </contour>
    </TTGlyph>
    <TTGlyph name="five.dnom" xMin="48" yMin="-4" xMax="322" yMax="377">
      <contour>
        <pt x="122" y="47" on="0"/>
        <pt x="160" y="47" on="1"/>
        <pt x="202" y="47" on="0"/>
        <pt x="243" y="58" on="0"/>
        <pt x="258" y="86" on="0"/>
        <pt x="258" y="114" on="1"/>
        <pt x="258" y="143" on="0"/>
        <pt x="241" y="170" on="0"/>
        <pt x="199" y="179" on="0"/>
        <pt x="153" y="179" on="1"/>
        <pt x="124" y="179" on="0"/>
        <pt x="52" y="173" on="1"/>
        <pt x="52" y="377" on="1"/>
        <pt x="293" y="377" on="1"/>
        <pt x="293" y="326" on="1"/>
        <pt x="109" y="326" on="1"/>
        <pt x="109" y="224" on="1"/>
        <pt x="147" y="229" on="0"/>
        <pt x="194" y="229" on="1"/>
        <pt x="247" y="229" on="0"/>
        <pt x="302" y="204" on="0"/>
        <pt x="322" y="158" on="0"/>
        <pt x="322" y="119" on="1"/>
        <pt x="322" y="73" on="0"/>
        <pt x="296" y="21" on="0"/>
        <pt x="230" y="-4" on="0"/>
        <pt x="168" y="-4" on="1"/>
        <pt x="111" y="-4" on="0"/>
        <pt x="48" y="5" on="1"/>
        <pt x="48" y="53" on="1"/>
      </contour>
    </TTGlyph>
    <TTGlyph name="five.numr" xMin="48" yMin="304" xMax="321" yMax="685">
      <contour>
        <pt x="122" y="355" on="0"/>
        <pt x="160" y="355" on="1"/>
        <pt x="201" y="355" on="0"/>
        <pt x="242" y="366" on="0"/>
        <pt x="258" y="393" on="0"/>
        <pt x="258" y="421" on="1"/>
        <pt x="258" y="451" on="0"/>
        <pt x="241" y="478" on="0"/>
        <pt x="199" y="487" on="0"/>
        <pt x="153" y="487" on="1"/>
        <pt x="115" y="487" on="0"/>
        <pt x="52" y="480" on="1"/>
        <pt x="52" y="685" on="1"/>
        <pt x="293" y="685" on="1"/>
        <pt x="293" y="633" on="1"/>
        <pt x="109" y="633" on="1"/>
        <pt x="109" y="532" on="1"/>
        <pt x="147" y="537" on="0"/>
        <pt x="193" y="537" on="1"/>
        <pt x="246" y="537" on="0"/>
        <pt x="302" y="512" on="0"/>
        <pt x="321" y="465" on="0"/>
        <pt x="321" y="427" on="1"/>
        <pt x="321" y="381" on="0"/>
        <pt x="296" y="328" on="0"/>
        <pt x="230" y="304" on="0"/>
        <pt x="168" y="304" on="1"/>
        <pt x="100" y="304" on="0"/>
        <pt x="48" y="313" on="1"/>
        <pt x="48" y="361" on="1"/>
      </contour>
    </TTGlyph>
    <TTGlyph name="five.tnum" xMin="102" yMin="-8" xMax="572" yMax="688">
      <contour>
        <pt x="224" y="71" on="0"/>
        <pt x="302" y="71" on="1"/>
        <pt x="376" y="71" on="0"/>
        <pt x="451" y="95" on="0"/>
        <pt x="479" y="150" on="0"/>
        <pt x="479" y="204" on="1"/>
        <pt x="479" y="262" on="0"/>
        <pt x="448" y="314" on="0"/>
        <pt x="371" y="332" on="0"/>
        <pt x="289" y="332" on="1"/>
        <pt x="229" y="332" on="0"/>
        <pt x="110" y="319" on="1"/>
        <pt x="110" y="688" on="1"/>
        <pt x="521" y="688" on="1"/>
        <pt x="521" y="608" on="1"/>
        <pt x="195" y="608" on="1"/>
        <pt x="195" y="401" on="1"/>
        <pt x="224" y="405" on="0"/>
        <pt x="309" y="411" on="0"/>
        <pt x="345" y="411" on="1"/>
        <pt x="439" y="411" on="0"/>
        <pt x="537" y="368" on="0"/>
        <pt x="572" y="284" on="0"/>
        <pt x="572" y="214" on="1"/>
        <pt x="572" y="129" on="0"/>
        <pt x="529" y="35" on="0"/>
        <pt x="416" y="-8" on="0"/>
        <pt x="309" y="-8" on="1"/>
        <pt x="261" y="-8" on="0"/>
        <pt x="144" y="2" on="0"/>
        <pt x="102" y="10" on="1"/>
        <pt x="102" y="83" on="1"/>
      </contour>
    </TTGlyph>
    <TTGlyph name="fiveeighths" xMin="48" yMin="-4" xMax="858" yMax="688">
      <component glyphName=".ttfautohint" x="48" y="0" flags="0x0"/>
      <component glyphName="five.numr" x="0" y="0" flags="0x0"/>
      <component glyphName="fraction" x="361" y="0" flags="0x0"/>
      <component glyphName="eight.dnom" x="505" y="0" flags="0x0"/>
    </TTGlyph>
    <TTGlyph name="fl" xMin="26" yMin="0" xMax="547" yMax="743">
      <component glyphName=".ttfautohint" x="26" y="0" flags="0x0"/>
      <component glyphName="f" x="0" y="0" flags="0x0"/>
      <component glyphName="l" x="375" y="0" flags="0x0"/>
    </TTGlyph>
    <TTGlyph name="florin" xMin="-136" yMin="-191" xMax="410" yMax="742">
      <contour>
        <pt x="327" y="675" on="0"/>
        <pt x="272" y="655" on="0"/>
        <pt x="248" y="598" on="0"/>
        <pt x="231" y="517" on="1"/>
        <pt x="229" y="510" on="1"/>
        <pt x="360" y="510" on="1"/>
        <pt x="345" y="436" on="1"/>
        <pt x="214" y="436" on="1"/>
        <pt x="125" y="16" on="1"/>
        <pt x="103" y="-85" on="0"/>
        <pt x="50" y="-170" on="0"/>
        <pt x="-37" y="-191" on="0"/>
        <pt x="-136" y="-191" on="1"/>
        <pt x="-122" y="-124" on="1"/>
        <pt x="-65" y="-124" on="0"/>
        <pt x="-10" y="-113" on="0"/>
        <pt x="17" y="-80" on="0"/>
        <pt x="25" y="-44" on="1"/>
        <pt x="127" y="436" on="1"/>
        <pt x="24" y="436" on="1"/>
        <pt x="39" y="510" on="1"/>
        <pt x="142" y="510" on="1"/>
        <pt x="143" y="513" on="1"/>
        <pt x="168" y="625" on="0"/>
        <pt x="222" y="718" on="0"/>
        <pt x="309" y="742" on="0"/>
        <pt x="410" y="742" on="1"/>
        <pt x="396" y="675" on="1"/>
      </contour>
    </TTGlyph>
    <TTGlyph name="four" xMin="45" yMin="0" xMax="597" yMax="688">
      <contour>
        <pt x="405" y="159" on="1"/>
        <pt x="45" y="159" on="1"/>
        <pt x="45" y="229" on="1"/>
        <pt x="312" y="688" on="1"/>
        <pt x="414" y="688" on="1"/>
        <pt x="147" y="238" on="1"/>
        <pt x="405" y="238" on="1"/>
        <pt x="425" y="476" on="1"/>
        <pt x="497" y="476" on="1"/>
        <pt x="497" y="238" on="1"/>
        <pt x="597" y="238" on="1"/>
        <pt x="597" y="159" on="1"/>
        <pt x="497" y="159" on="1"/>
        <pt x="497" y="0" on="1"/>
        <pt x="405" y="0" on="1"/>
      </contour>
    </TTGlyph>
    <TTGlyph name="four.dnom" xMin="26" yMin="0" xMax="346" yMax="377">
      <contour>
        <pt x="229" y="84" on="1"/>
        <pt x="26" y="84" on="1"/>
        <pt x="26" y="129" on="1"/>
        <pt x="167" y="377" on="1"/>
        <pt x="236" y="377" on="1"/>
        <pt x="93" y="135" on="1"/>
        <pt x="230" y="135" on="1"/>
        <pt x="246" y="255" on="1"/>
        <pt x="292" y="255" on="1"/>
        <pt x="292" y="135" on="1"/>
        <pt x="346" y="135" on="1"/>
        <pt x="346" y="84" on="1"/>
        <pt x="292" y="84" on="1"/>
        <pt x="292" y="0" on="1"/>
        <pt x="229" y="0" on="1"/>
      </contour>
    </TTGlyph>
    <TTGlyph name="four.numr" xMin="26" yMin="308" xMax="346" yMax="685">
      <component glyphName=".ttfautohint" x="26" y="308" flags="0x0"/>
      <component glyphName="four.dnom" x="0" y="308" flags="0x4"/>
    </TTGlyph>
    <TTGlyph name="four.ss01" xMin="45" yMin="0" xMax="597" yMax="688">
      <contour>
        <pt x="405" y="158" on="1"/>
        <pt x="45" y="158" on="1"/>
        <pt x="45" y="232" on="1"/>
        <pt x="372" y="688" on="1"/>
        <pt x="497" y="688" on="1"/>
        <pt x="497" y="239" on="1"/>
        <pt x="597" y="239" on="1"/>
        <pt x="597" y="158" on="1"/>
        <pt x="497" y="158" on="1"/>
        <pt x="497" y="0" on="1"/>
        <pt x="405" y="0" on="1"/>
      </contour>
      <contour>
        <pt x="405" y="239" on="1"/>
        <pt x="405" y="601" on="1"/>
        <pt x="404" y="601" on="1"/>
        <pt x="140" y="239" on="1"/>
      </contour>
    </TTGlyph>
    <TTGlyph name="four.tnum" xMin="53" yMin="0" xMax="605" yMax="688">
      <contour>
        <pt x="412" y="159" on="1"/>
        <pt x="53" y="159" on="1"/>
        <pt x="53" y="229" on="1"/>
        <pt x="319" y="688" on="1"/>
        <pt x="421" y="688" on="1"/>
        <pt x="155" y="238" on="1"/>
        <pt x="413" y="238" on="1"/>
        <pt x="433" y="476" on="1"/>
        <pt x="504" y="476" on="1"/>
        <pt x="504" y="238" on="1"/>
        <pt x="605" y="238" on="1"/>
        <pt x="605" y="159" on="1"/>
        <pt x="504" y="159" on="1"/>
        <pt x="504" y="0" on="1"/>
        <pt x="412" y="0" on="1"/>
      </contour>
    </TTGlyph>
    <TTGlyph name="fraction" xMin="-186" yMin="0" xMax="330" yMax="688">
      <contour>
        <pt x="262" y="688" on="1"/>
        <pt x="330" y="688" on="1"/>
        <pt x="-118" y="0" on="1"/>
        <pt x="-186" y="0" on="1"/>
      </contour>
    </TTGlyph>
    <TTGlyph name="g" xMin="63" yMin="-206" xMax="504" yMax="518">
      <contour>
        <pt x="223" y="-206" on="0"/>
        <pt x="123" y="-200" on="0"/>
        <pt x="93" y="-196" on="1"/>
        <pt x="93" y="-127" on="1"/>
        <pt x="170" y="-132" on="0"/>
        <pt x="253" y="-132" on="1"/>
        <pt x="329" y="-132" on="0"/>
        <pt x="396" y="-104" on="0"/>
        <pt x="417" y="-33" on="0"/>
        <pt x="417" y="45" on="1"/>
        <pt x="417" y="67" on="1"/>
        <pt x="412" y="67" on="1"/>
        <pt x="393" y="28" on="0"/>
        <pt x="313" y="-5" on="0"/>
        <pt x="250" y="-5" on="1"/>
        <pt x="175" y="-5" on="0"/>
        <pt x="96" y="40" on="0"/>
        <pt x="63" y="150" on="0"/>
        <pt x="63" y="255" on="1"/>
        <pt x="63" y="360" on="0"/>
        <pt x="96" y="472" on="0"/>
        <pt x="176" y="518" on="0"/>
        <pt x="250" y="518" on="1"/>
        <pt x="309" y="518" on="0"/>
        <pt x="395" y="484" on="0"/>
        <pt x="416" y="438" on="1"/>
        <pt x="421" y="438" on="1"/>
        <pt x="425" y="510" on="1"/>
        <pt x="504" y="510" on="1"/>
        <pt x="504" y="65" on="1"/>
        <pt x="504" y="-43" on="0"/>
        <pt x="473" y="-153" on="0"/>
        <pt x="375" y="-206" on="0"/>
        <pt x="272" y="-206" on="1"/>
      </contour>
      <contour>
        <pt x="332" y="72" on="0"/>
        <pt x="388" y="97" on="0"/>
        <pt x="400" y="124" on="1"/>
        <pt x="410" y="146" on="0"/>
        <pt x="417" y="206" on="0"/>
        <pt x="417" y="255" on="1"/>
        <pt x="417" y="306" on="0"/>
        <pt x="411" y="364" on="0"/>
        <pt x="401" y="384" on="1"/>
        <pt x="388" y="414" on="0"/>
        <pt x="332" y="440" on="0"/>
        <pt x="284" y="440" on="1"/>
        <pt x="222" y="440" on="0"/>
        <pt x="169" y="415" on="0"/>
        <pt x="151" y="342" on="0"/>
        <pt x="151" y="255" on="1"/>
        <pt x="151" y="170" on="0"/>
        <pt x="169" y="97" on="0"/>
        <pt x="222" y="72" on="0"/>
        <pt x="284" y="72" on="1"/>
      </contour>
    </TTGlyph>
    <TTGlyph name="g_tilde.loclGUA" xMin="63" yMin="-206" xMax="504" yMax="743">
      <component glyphName=".ttfautohint" x="63" y="0" flags="0x0"/>
      <component glyphName="g" x="0" y="0" flags="0x0"/>
      <component glyphName="tildecomb" x="496" y="0" flags="0x0"/>
    </TTGlyph>
    <TTGlyph name="gbreve" xMin="63" yMin="-206" xMax="504" yMax="742">
      <component glyphName=".ttfautohint" x="63" y="0" flags="0x0"/>
      <component glyphName="g" x="0" y="0" flags="0x0"/>
      <component glyphName="uni0306" x="452" y="0" flags="0x0"/>
    </TTGlyph>
    <TTGlyph name="gcaron" xMin="63" yMin="-206" xMax="504" yMax="742">
      <component glyphName=".ttfautohint" x="63" y="0" flags="0x0"/>
      <component glyphName="g" x="0" y="0" flags="0x0"/>
      <component glyphName="uni030C" x="461" y="0" flags="0x0"/>
    </TTGlyph>
    <TTGlyph name="gcircumflex" xMin="63" yMin="-206" xMax="504" yMax="742">
      <component glyphName=".ttfautohint" x="63" y="0" flags="0x0"/>
      <component glyphName="g" x="0" y="0" flags="0x0"/>
      <component glyphName="uni0302" x="461" y="0" flags="0x0"/>
    </TTGlyph>
    <TTGlyph name="gcommaaccent" xMin="63" yMin="-206" xMax="504" yMax="806">
      <component glyphName=".ttfautohint" x="63" y="0" flags="0x0"/>
      <component glyphName="g" x="0" y="0" flags="0x0"/>
      <component glyphName="uni0312" x="672" y="0" flags="0x0"/>
    </TTGlyph>
    <TTGlyph name="gdotaccent" xMin="63" yMin="-206" xMax="504" yMax="729">
      <component glyphName=".ttfautohint" x="63" y="0" flags="0x0"/>
      <component glyphName="g" x="0" y="0" flags="0x0"/>
      <component glyphName="uni0307" x="354" y="0" flags="0x0"/>
    </TTGlyph>
    <TTGlyph name="germandbls" xMin="85" yMin="0" xMax="542" yMax="750">
      <contour>
        <pt x="261" y="0" on="1"/>
        <pt x="261" y="73" on="1"/>
        <pt x="313" y="73" on="1"/>
        <pt x="381" y="73" on="0"/>
        <pt x="436" y="92" on="0"/>
        <pt x="454" y="158" on="0"/>
        <pt x="454" y="239" on="1"/>
        <pt x="454" y="306" on="0"/>
        <pt x="430" y="372" on="0"/>
        <pt x="373" y="397" on="0"/>
        <pt x="317" y="397" on="1"/>
        <pt x="287" y="397" on="1"/>
        <pt x="287" y="470" on="1"/>
        <pt x="317" y="470" on="1"/>
        <pt x="390" y="470" on="0"/>
        <pt x="445" y="512" on="0"/>
        <pt x="445" y="566" on="1"/>
        <pt x="445" y="611" on="0"/>
        <pt x="422" y="657" on="0"/>
        <pt x="364" y="676" on="0"/>
        <pt x="308" y="676" on="1"/>
        <pt x="257" y="676" on="0"/>
        <pt x="200" y="655" on="0"/>
        <pt x="171" y="592" on="0"/>
        <pt x="171" y="529" on="1"/>
        <pt x="171" y="0" on="1"/>
        <pt x="85" y="0" on="1"/>
        <pt x="85" y="541" on="1"/>
        <pt x="85" y="615" on="0"/>
        <pt x="127" y="705" on="0"/>
        <pt x="227" y="750" on="0"/>
        <pt x="314" y="750" on="1"/>
        <pt x="400" y="750" on="0"/>
        <pt x="495" y="711" on="0"/>
        <pt x="533" y="635" on="0"/>
        <pt x="533" y="574" on="1"/>
        <pt x="533" y="513" on="0"/>
        <pt x="477" y="449" on="0"/>
        <pt x="417" y="439" on="1"/>
        <pt x="417" y="435" on="1"/>
        <pt x="481" y="424" on="0"/>
        <pt x="542" y="336" on="0"/>
        <pt x="542" y="241" on="1"/>
        <pt x="542" y="148" on="0"/>
        <pt x="511" y="47" on="0"/>
        <pt x="422" y="0" on="0"/>
        <pt x="333" y="0" on="1"/>
      </contour>
    </TTGlyph>
    <TTGlyph name="grave" xMin="20" yMin="602" xMax="213" yMax="743">
      <contour>
        <pt x="20" y="738" on="1"/>
        <pt x="20" y="743" on="1"/>
        <pt x="113" y="743" on="1"/>
        <pt x="213" y="607" on="1"/>
        <pt x="213" y="602" on="1"/>
        <pt x="149" y="602" on="1"/>
      </contour>
    </TTGlyph>
    <TTGlyph name="gravecomb" xMin="-213" yMin="601" xMax="-20" yMax="742">
      <contour>
        <pt x="-213" y="737" on="1"/>
        <pt x="-213" y="742" on="1"/>
        <pt x="-120" y="742" on="1"/>
        <pt x="-20" y="606" on="1"/>
        <pt x="-20" y="601" on="1"/>
        <pt x="-84" y="601" on="1"/>
      </contour>
    </TTGlyph>
    <TTGlyph name="gravecomb.case" xMin="-213" yMin="746" xMax="-20" yMax="887">
      <contour>
        <pt x="-213" y="882" on="1"/>
        <pt x="-213" y="887" on="1"/>
        <pt x="-120" y="887" on="1"/>
        <pt x="-20" y="751" on="1"/>
        <pt x="-20" y="746" on="1"/>
        <pt x="-84" y="746" on="1"/>
      </contour>
    </TTGlyph>
    <TTGlyph name="greater" xMin="70" yMin="45" xMax="469" yMax="461">
      <contour>
        <pt x="70" y="119" on="1"/>
        <pt x="397" y="253" on="1"/>
        <pt x="70" y="386" on="1"/>
        <pt x="70" y="461" on="1"/>
        <pt x="469" y="294" on="1"/>
        <pt x="469" y="212" on="1"/>
        <pt x="70" y="45" on="1"/>
      </contour>
    </TTGlyph>
    <TTGlyph name="greaterequal" xMin="70" yMin="0" xMax="469" yMax="590">
      <contour>
        <pt x="70" y="248" on="1"/>
        <pt x="398" y="382" on="1"/>
        <pt x="70" y="515" on="1"/>
        <pt x="70" y="590" on="1"/>
        <pt x="469" y="422" on="1"/>
        <pt x="469" y="340" on="1"/>
        <pt x="70" y="174" on="1"/>
      </contour>
      <contour>
        <pt x="70" y="71" on="1"/>
        <pt x="469" y="71" on="1"/>
        <pt x="469" y="0" on="1"/>
        <pt x="70" y="0" on="1"/>
      </contour>
    </TTGlyph>
    <TTGlyph name="guillemotleft" xMin="45" yMin="99" xMax="408" yMax="510">
      <contour>
        <pt x="45" y="304" on="1"/>
        <pt x="176" y="510" on="1"/>
        <pt x="238" y="510" on="1"/>
        <pt x="125" y="304" on="1"/>
        <pt x="238" y="99" on="1"/>
        <pt x="176" y="99" on="1"/>
      </contour>
      <contour>
        <pt x="214" y="304" on="1"/>
        <pt x="346" y="510" on="1"/>
        <pt x="408" y="510" on="1"/>
        <pt x="295" y="304" on="1"/>
        <pt x="408" y="99" on="1"/>
        <pt x="346" y="99" on="1"/>
      </contour>
    </TTGlyph>
    <TTGlyph name="guillemotright" xMin="68" yMin="99" xMax="431" yMax="510">
      <contour>
        <pt x="180" y="304" on="1"/>
        <pt x="68" y="510" on="1"/>
        <pt x="129" y="510" on="1"/>
        <pt x="261" y="304" on="1"/>
        <pt x="129" y="99" on="1"/>
        <pt x="68" y="99" on="1"/>
      </contour>
      <contour>
        <pt x="350" y="304" on="1"/>
        <pt x="237" y="510" on="1"/>
        <pt x="299" y="510" on="1"/>
        <pt x="431" y="304" on="1"/>
        <pt x="299" y="99" on="1"/>
        <pt x="237" y="99" on="1"/>
      </contour>
    </TTGlyph>
    <TTGlyph name="guilsinglleft" xMin="44" yMin="99" xMax="237" yMax="510">
      <contour>
        <pt x="44" y="304" on="1"/>
        <pt x="176" y="510" on="1"/>
        <pt x="237" y="510" on="1"/>
        <pt x="125" y="304" on="1"/>
        <pt x="237" y="99" on="1"/>
        <pt x="176" y="99" on="1"/>
      </contour>
    </TTGlyph>
    <TTGlyph name="guilsinglright" xMin="68" yMin="99" xMax="262" yMax="510">
      <contour>
        <pt x="180" y="304" on="1"/>
        <pt x="68" y="510" on="1"/>
        <pt x="130" y="510" on="1"/>
        <pt x="262" y="304" on="1"/>
        <pt x="130" y="99" on="1"/>
        <pt x="68" y="99" on="1"/>
      </contour>
    </TTGlyph>
    <TTGlyph name="h" xMin="85" yMin="0" xMax="512" yMax="743">
      <contour>
        <pt x="425" y="287" on="1"/>
        <pt x="425" y="359" on="0"/>
        <pt x="408" y="420" on="0"/>
        <pt x="360" y="440" on="0"/>
        <pt x="304" y="440" on="1"/>
        <pt x="244" y="440" on="0"/>
        <pt x="187" y="400" on="0"/>
        <pt x="172" y="328" on="0"/>
        <pt x="172" y="263" on="1"/>
        <pt x="172" y="0" on="1"/>
        <pt x="85" y="0" on="1"/>
        <pt x="85" y="743" on="1"/>
        <pt x="172" y="743" on="1"/>
        <pt x="172" y="443" on="1"/>
        <pt x="177" y="443" on="1"/>
        <pt x="194" y="478" on="0"/>
        <pt x="270" y="517" on="0"/>
        <pt x="340" y="517" on="1"/>
        <pt x="413" y="517" on="0"/>
        <pt x="487" y="476" on="0"/>
        <pt x="512" y="393" on="0"/>
        <pt x="512" y="319" on="1"/>
        <pt x="512" y="0" on="1"/>
        <pt x="425" y="0" on="1"/>
      </contour>
    </TTGlyph>
    <TTGlyph name="hbar" xMin="18" yMin="0" xMax="512" yMax="742">
      <contour>
        <pt x="412" y="517" on="0"/>
        <pt x="486" y="475" on="0"/>
        <pt x="512" y="392" on="0"/>
        <pt x="512" y="319" on="1"/>
        <pt x="512" y="0" on="1"/>
        <pt x="425" y="0" on="1"/>
        <pt x="425" y="287" on="1"/>
        <pt x="425" y="359" on="0"/>
        <pt x="408" y="420" on="0"/>
        <pt x="360" y="440" on="0"/>
        <pt x="304" y="440" on="1"/>
        <pt x="244" y="440" on="0"/>
        <pt x="187" y="400" on="0"/>
        <pt x="171" y="328" on="0"/>
        <pt x="171" y="263" on="1"/>
        <pt x="171" y="0" on="1"/>
        <pt x="84" y="0" on="1"/>
        <pt x="84" y="615" on="1"/>
        <pt x="18" y="615" on="1"/>
        <pt x="18" y="688" on="1"/>
        <pt x="84" y="688" on="1"/>
        <pt x="84" y="742" on="1"/>
        <pt x="171" y="742" on="1"/>
        <pt x="171" y="688" on="1"/>
        <pt x="306" y="688" on="1"/>
        <pt x="306" y="615" on="1"/>
        <pt x="171" y="615" on="1"/>
        <pt x="171" y="443" on="1"/>
        <pt x="177" y="443" on="1"/>
        <pt x="194" y="478" on="0"/>
        <pt x="270" y="517" on="0"/>
        <pt x="340" y="517" on="1"/>
      </contour>
    </TTGlyph>
    <TTGlyph name="hcircumflex" xMin="-18" yMin="0" xMax="512" yMax="920">
      <component glyphName=".ttfautohint" x="0" y="0" flags="0x0"/>
      <component glyphName="h" x="0" y="0" flags="0x0"/>
      <component glyphName="uni0302" x="295" y="178" flags="0x4"/>
    </TTGlyph>
    <TTGlyph name="hookabovecomb" xMin="-274" yMin="607" xMax="-25" yMax="804">
      <contour>
        <pt x="-202" y="616" on="1"/>
        <pt x="-202" y="643" on="0"/>
        <pt x="-185" y="664" on="0"/>
        <pt x="-158" y="671" on="1"/>
        <pt x="-136" y="678" on="1"/>
        <pt x="-103" y="686" on="0"/>
        <pt x="-85" y="701" on="0"/>
        <pt x="-85" y="718" on="1"/>
        <pt x="-85" y="743" on="0"/>
        <pt x="-116" y="755" on="0"/>
        <pt x="-162" y="755" on="1"/>
        <pt x="-211" y="755" on="0"/>
        <pt x="-274" y="750" on="1"/>
        <pt x="-274" y="796" on="1"/>
        <pt x="-208" y="804" on="0"/>
        <pt x="-156" y="804" on="1"/>
        <pt x="-108" y="804" on="0"/>
        <pt x="-54" y="793" on="0"/>
        <pt x="-25" y="759" on="0"/>
        <pt x="-25" y="725" on="1"/>
        <pt x="-25" y="690" on="0"/>
        <pt x="-50" y="659" on="0"/>
        <pt x="-87" y="649" on="1"/>
        <pt x="-111" y="643" on="1"/>
        <pt x="-131" y="637" on="0"/>
        <pt x="-147" y="630" on="0"/>
        <pt x="-151" y="619" on="0"/>
        <pt x="-151" y="607" on="1"/>
        <pt x="-202" y="607" on="1"/>
      </contour>
    </TTGlyph>
    <TTGlyph name="hookabovecomb.case" xMin="-274" yMin="731" xMax="-25" yMax="927">
      <contour>
        <pt x="-202" y="740" on="1"/>
        <pt x="-202" y="767" on="0"/>
        <pt x="-185" y="787" on="0"/>
        <pt x="-158" y="795" on="1"/>
        <pt x="-136" y="801" on="1"/>
        <pt x="-103" y="810" on="0"/>
        <pt x="-85" y="824" on="0"/>
        <pt x="-85" y="842" on="1"/>
        <pt x="-85" y="860" on="0"/>
        <pt x="-102" y="876" on="0"/>
        <pt x="-134" y="879" on="0"/>
        <pt x="-171" y="879" on="1"/>
        <pt x="-219" y="879" on="0"/>
        <pt x="-274" y="874" on="1"/>
        <pt x="-274" y="919" on="1"/>
        <pt x="-221" y="927" on="0"/>
        <pt x="-156" y="927" on="1"/>
        <pt x="-108" y="927" on="0"/>
        <pt x="-54" y="916" on="0"/>
        <pt x="-25" y="883" on="0"/>
        <pt x="-25" y="849" on="1"/>
        <pt x="-25" y="814" on="0"/>
        <pt x="-50" y="783" on="0"/>
        <pt x="-87" y="773" on="1"/>
        <pt x="-111" y="766" on="1"/>
        <pt x="-131" y="760" on="0"/>
        <pt x="-147" y="753" on="0"/>
        <pt x="-151" y="743" on="0"/>
        <pt x="-151" y="731" on="1"/>
        <pt x="-202" y="731" on="1"/>
      </contour>
    </TTGlyph>
    <TTGlyph name="house" xMin="54" yMin="0" xMax="689" yMax="695">
      <contour>
        <pt x="54" y="413" on="1"/>
        <pt x="337" y="695" on="1"/>
        <pt x="405" y="695" on="1"/>
        <pt x="689" y="413" on="1"/>
        <pt x="688" y="0" on="1"/>
        <pt x="54" y="0" on="1"/>
      </contour>
      <contour>
        <pt x="620" y="58" on="1"/>
        <pt x="621" y="391" on="1"/>
        <pt x="371" y="640" on="1"/>
        <pt x="122" y="391" on="1"/>
        <pt x="122" y="58" on="1"/>
      </contour>
    </TTGlyph>
</ttFont>
